<svg width="134" height="39" viewBox="0 0 134 39" fill="none" xmlns="http://www.w3.org/2000/svg">
<path d="M132.413 34.0303C132.413 36.0802 130.718 37.7407 128.621 37.7407H4.53496C2.43932 37.7407 0.738281 36.0802 0.738281 34.0303V4.44085C0.738281 2.39189 2.43932 0.725586 4.53496 0.725586H128.62C130.718 0.725586 132.412 2.39189 132.412 4.44085L132.413 34.0303Z" fill="#131313"/>
<path d="M128.222 0.77066C130.506 0.77066 132.364 2.5822 132.364 4.80846V33.6585C132.364 35.8847 130.506 37.6963 128.222 37.6963H4.93162C2.64828 37.6963 0.790293 35.8847 0.790293 33.6585V4.80846C0.790293 2.5822 2.64828 0.77066 4.93162 0.77066H128.222ZM128.222 0.00012673H4.93162C2.22046 0.00012673 0 2.16508 0 4.80846V33.6585C0 36.3018 2.22046 38.4668 4.93162 38.4668H128.222C130.933 38.4668 133.154 36.3018 133.154 33.6585V4.80846C133.154 2.16508 130.933 0.00012673 128.222 0.00012673Z" fill="#131313"/>
<path d="M29.7162 19.0254C29.6876 15.926 32.3191 14.4181 32.4395 14.3479C30.9491 12.2293 28.6391 11.9399 27.8274 11.9168C25.8873 11.7177 24.0054 13.0487 23.0171 13.0487C22.0091 13.0487 20.4872 11.936 18.8469 11.9687C16.7362 12.0005 14.7616 13.192 13.6786 15.0422C11.4436 18.8148 13.1104 24.3588 15.2518 27.4083C16.3229 28.9018 17.5746 30.5693 19.2128 30.5106C20.8156 30.4462 21.4143 29.5143 23.3485 29.5143C25.2649 29.5143 25.8271 30.5106 27.498 30.4731C29.2181 30.4462 30.3011 28.9729 31.3348 27.466C32.5726 25.7542 33.0697 24.0684 33.0894 23.9819C33.049 23.9684 29.7488 22.7404 29.7162 19.0254Z" fill="white"/>
<path d="M26.56 9.91077C27.422 8.85967 28.0118 7.42967 27.8481 5.97852C26.6004 6.03237 25.04 6.81997 24.1415 7.848C23.3465 8.75389 22.6364 10.2387 22.8198 11.635C24.2214 11.737 25.6604 10.9455 26.56 9.91077Z" fill="white"/>
<path d="M52.9134 30.2964H50.6734L49.4465 26.5372H45.1816L44.0128 30.2964H41.832L46.0574 17.4985H48.6673L52.9134 30.2964ZM49.0766 24.9601L47.967 21.6183C47.8496 21.2769 47.6296 20.473 47.3051 19.2074H47.2657C47.1365 19.7517 46.9284 20.5557 46.6423 21.6183L45.5524 24.9601H49.0766Z" fill="white"/>
<path d="M63.7787 25.569C63.7787 27.1384 63.3437 28.3789 62.4738 29.2896C61.6946 30.1003 60.727 30.5052 59.572 30.5052C58.3253 30.5052 57.4297 30.0686 56.8843 29.1954H56.8448V34.0566H54.742V24.1063C54.742 23.1196 54.7154 22.107 54.6641 21.0684H56.5134L56.6308 22.5311H56.6702C57.3715 21.429 58.4358 20.8789 59.864 20.8789C60.9805 20.8789 61.9126 21.3088 62.6582 22.1695C63.4059 23.0311 63.7787 24.164 63.7787 25.569ZM61.6364 25.644C61.6364 24.7458 61.4293 24.0053 61.013 23.4225C60.5583 22.8147 59.9478 22.5109 59.1824 22.5109C58.6636 22.5109 58.1921 22.6801 57.771 23.0138C57.3488 23.3504 57.0727 23.7899 56.9435 24.3342C56.8784 24.5881 56.8458 24.7958 56.8458 24.9593V26.4979C56.8458 27.1692 57.0569 27.7356 57.479 28.1982C57.9012 28.6607 58.4496 28.8915 59.1242 28.8915C59.9162 28.8915 60.5327 28.5934 60.9736 27.9991C61.4155 27.4038 61.6364 26.6191 61.6364 25.644Z" fill="white"/>
<path d="M74.6644 25.569C74.6644 27.1384 74.2295 28.3789 73.3585 29.2896C72.5803 30.1003 71.6127 30.5052 70.4577 30.5052C69.211 30.5052 68.3154 30.0686 67.771 29.1954H67.7315V34.0566H65.6287V24.1063C65.6287 23.1196 65.6021 22.107 65.5508 21.0684H67.4001L67.5175 22.5311H67.557C68.2573 21.429 69.3215 20.8789 70.7507 20.8789C71.8662 20.8789 72.7983 21.3088 73.5459 22.1695C74.2906 23.0311 74.6644 24.164 74.6644 25.569ZM72.5221 25.644C72.5221 24.7458 72.314 24.0053 71.8978 23.4225C71.4431 22.8147 70.8345 22.5109 70.0682 22.5109C69.5484 22.5109 69.0779 22.6801 68.6557 23.0138C68.2336 23.3504 67.9584 23.7899 67.8292 24.3342C67.7651 24.5881 67.7315 24.7958 67.7315 24.9593V26.4979C67.7315 27.1692 67.9426 27.7356 68.3628 28.1982C68.7849 28.6598 69.3333 28.8915 70.01 28.8915C70.802 28.8915 71.4184 28.5934 71.8593 27.9991C72.3012 27.4038 72.5221 26.6191 72.5221 25.644Z" fill="white"/>
<path d="M86.8384 26.7075C86.8384 27.7961 86.4508 28.6818 85.6726 29.3655C84.8174 30.1127 83.6269 30.4859 82.0972 30.4859C80.6847 30.4859 79.5524 30.2205 78.6953 29.6887L79.1826 27.9798C80.1058 28.5241 81.1187 28.7972 82.2224 28.7972C83.0144 28.7972 83.6309 28.6222 84.0737 28.274C84.5146 27.9259 84.7346 27.4585 84.7346 26.8758C84.7346 26.3565 84.5531 25.9189 84.1891 25.5641C83.8272 25.2092 83.2225 24.8794 82.3782 24.5745C80.0801 23.7388 78.932 22.5146 78.932 20.9048C78.932 19.8527 79.3345 18.9901 80.1403 18.3189C80.9432 17.6467 82.0143 17.311 83.3537 17.311C84.5482 17.311 85.5404 17.5139 86.3324 17.9188L85.8067 19.5902C85.067 19.1978 84.2306 19.0016 83.2945 19.0016C82.5548 19.0016 81.9768 19.1796 81.5626 19.5334C81.2124 19.8498 81.0368 20.2355 81.0368 20.6923C81.0368 21.1981 81.2371 21.6164 81.6395 21.9453C81.9896 22.2492 82.6258 22.5781 83.549 22.9329C84.6784 23.3763 85.5079 23.8946 86.0415 24.4889C86.5731 25.0813 86.8384 25.8227 86.8384 26.7075Z" fill="white"/>
<path d="M93.7875 22.6071H91.4697V27.0875C91.4697 28.227 91.878 28.7963 92.6966 28.7963C93.0724 28.7963 93.3841 28.7646 93.6307 28.7011L93.6889 30.2581C93.2746 30.4091 92.7292 30.485 92.0536 30.485C91.2231 30.485 90.5741 30.2379 90.1056 29.7445C89.639 29.2502 89.4043 28.4213 89.4043 27.2567V22.6051H88.0234V21.0665H89.4043V19.3768L91.4697 18.769V21.0665H93.7875V22.6071Z" fill="white"/>
<path d="M104.247 25.6065C104.247 27.0249 103.831 28.1895 103 29.1002C102.129 30.0378 100.973 30.5052 99.5324 30.5052C98.1437 30.5052 97.038 30.0561 96.2134 29.1579C95.3888 28.2597 94.9766 27.1259 94.9766 25.7594C94.9766 24.3294 95.4007 23.1581 96.2519 22.2474C97.1011 21.3357 98.2472 20.8799 99.6882 20.8799C101.077 20.8799 102.194 21.329 103.038 22.2281C103.845 23.1004 104.247 24.2265 104.247 25.6065ZM102.065 25.6728C102.065 24.8218 101.879 24.0919 101.501 23.4831C101.06 22.7465 100.43 22.3791 99.6133 22.3791C98.768 22.3791 98.1259 22.7474 97.685 23.4831C97.3072 24.0928 97.1208 24.8343 97.1208 25.7113C97.1208 26.5624 97.3072 27.2923 97.685 27.9C98.1397 28.6367 98.7749 29.004 99.5945 29.004C100.397 29.004 101.028 28.629 101.482 27.8808C101.87 27.2605 102.065 26.5229 102.065 25.6728Z" fill="white"/>
<path d="M111.083 22.8715C110.875 22.834 110.653 22.8147 110.421 22.8147C109.681 22.8147 109.109 23.0869 108.706 23.6322C108.356 24.113 108.181 24.7208 108.181 25.4545V30.2965H106.079L106.098 23.9745C106.098 22.9109 106.072 21.9425 106.02 21.0693H107.851L107.928 22.8349H107.986C108.208 22.2281 108.558 21.7396 109.038 21.3732C109.506 21.0434 110.012 20.8789 110.558 20.8789C110.752 20.8789 110.928 20.8924 111.083 20.9164V22.8715Z" fill="white"/>
<path d="M120.486 25.2456C120.486 25.6129 120.461 25.9226 120.409 26.1755H114.1C114.125 27.0872 114.43 27.7844 115.015 28.2652C115.547 28.6951 116.235 28.9105 117.079 28.9105C118.013 28.9105 118.865 28.7653 119.631 28.4739L119.961 29.8971C119.065 30.278 118.008 30.4674 116.788 30.4674C115.32 30.4674 114.168 30.0462 113.33 29.2047C112.493 28.3633 112.074 27.2333 112.074 25.8158C112.074 24.4243 112.464 23.2655 113.244 22.3413C114.061 21.3547 115.164 20.8613 116.553 20.8613C117.917 20.8613 118.95 21.3547 119.651 22.3413C120.206 23.1251 120.486 24.0945 120.486 25.2456ZM118.48 24.7138C118.494 24.106 118.357 23.5809 118.072 23.1376C117.708 22.5673 117.149 22.2827 116.396 22.2827C115.709 22.2827 115.15 22.5606 114.723 23.1184C114.372 23.5617 114.164 24.0935 114.1 24.7128H118.48V24.7138Z" fill="white"/>
<path d="M48.3786 9.62525C48.3786 10.7571 48.0305 11.6092 47.3351 12.1814C46.691 12.7093 45.7757 12.9738 44.5902 12.9738C44.0023 12.9738 43.4993 12.9488 43.0781 12.8988V6.71428C43.6275 6.62773 44.2193 6.5835 44.8584 6.5835C45.9878 6.5835 46.839 6.82295 47.413 7.30186C48.0561 7.84328 48.3786 8.61742 48.3786 9.62525ZM47.2888 9.65314C47.2888 8.91938 47.0895 8.35681 46.691 7.96445C46.2926 7.57305 45.7106 7.37687 44.9443 7.37687C44.6188 7.37687 44.3416 7.39803 44.1118 7.44226V12.1439C44.239 12.1631 44.4718 12.1717 44.8101 12.1717C45.6011 12.1717 46.2117 11.9573 46.6417 11.5284C47.0718 11.0995 47.2888 10.4744 47.2888 9.65314Z" fill="white"/>
<path d="M54.1554 10.6139C54.1554 11.3112 53.9513 11.8824 53.5429 12.3305C53.1149 12.7912 52.5477 13.021 51.8395 13.021C51.157 13.021 50.6135 12.8008 50.2082 12.3584C49.8038 11.917 49.6016 11.3602 49.6016 10.689C49.6016 9.98694 49.8097 9.4109 50.2279 8.96372C50.6461 8.51655 51.2083 8.29248 51.9165 8.29248C52.599 8.29248 53.1474 8.5127 53.5626 8.95411C53.9572 9.38301 54.1554 9.93693 54.1554 10.6139ZM53.0833 10.6466C53.0833 10.2283 52.9906 9.86961 52.8061 9.57053C52.5891 9.20895 52.2804 9.02815 51.879 9.02815C51.4637 9.02815 51.1481 9.20895 50.9311 9.57053C50.7457 9.86961 50.654 10.2341 50.654 10.6649C50.654 11.0832 50.7467 11.4419 50.9311 11.741C51.155 12.1026 51.4667 12.2834 51.8691 12.2834C52.2637 12.2834 52.5734 12.0997 52.7963 11.7314C52.9876 11.4266 53.0833 11.065 53.0833 10.6466Z" fill="white"/>
<path d="M61.9046 8.38477L60.4497 12.9181H59.5029L58.9002 10.9495C58.7473 10.4581 58.6231 9.96959 58.5264 9.48491H58.5077C58.4179 9.98306 58.2936 10.4706 58.1338 10.9495L57.4937 12.9181H56.536L55.168 8.38477H56.2302L56.7559 10.5399C56.8832 11.0495 56.9877 11.5352 57.0716 11.9949H57.0903C57.1672 11.616 57.2945 11.1332 57.474 10.5495L58.1338 8.38573H58.9762L59.6084 10.5033C59.7613 11.0197 59.8856 11.5169 59.9812 11.9958H60.0098C60.0799 11.5294 60.1854 11.0322 60.3255 10.5033L60.8896 8.38573H61.9046V8.38477Z" fill="white"/>
<path d="M67.263 12.9181H66.2293V10.3216C66.2293 9.52145 65.9176 9.12139 65.2923 9.12139C64.9856 9.12139 64.738 9.23102 64.5457 9.45124C64.3553 9.67147 64.2586 9.93112 64.2586 10.2283V12.9171H63.225V9.68012C63.225 9.28199 63.2122 8.8502 63.1875 8.38283H64.0959L64.1442 9.09158H64.1728C64.2932 8.87136 64.4727 8.6896 64.7084 8.54439C64.9885 8.37514 65.3022 8.28955 65.6454 8.28955C66.0794 8.28955 66.4404 8.42611 66.7274 8.70018C67.0845 9.0358 67.263 9.53683 67.263 10.2023V12.9181Z" fill="white"/>
<path d="M70.1147 12.9181H69.082V6.30469H70.1147V12.9181Z" fill="white"/>
<path d="M76.2023 10.6139C76.2023 11.3112 75.9981 11.8824 75.5898 12.3305C75.1617 12.7912 74.5936 13.021 73.8864 13.021C73.2029 13.021 72.6594 12.8008 72.255 12.3584C71.8506 11.917 71.6484 11.3602 71.6484 10.689C71.6484 9.98694 71.8566 9.4109 72.2748 8.96372C72.693 8.51655 73.2552 8.29248 73.9624 8.29248C74.6459 8.29248 75.1933 8.5127 75.6095 8.95411C76.004 9.38301 76.2023 9.93693 76.2023 10.6139ZM75.1292 10.6466C75.1292 10.2283 75.0365 9.86961 74.852 9.57053C74.636 9.20895 74.3263 9.02815 73.9259 9.02815C73.5096 9.02815 73.194 9.20895 72.978 9.57053C72.7926 9.86961 72.7008 10.2341 72.7008 10.6649C72.7008 11.0832 72.7936 11.4419 72.978 11.741C73.2019 12.1026 73.5136 12.2834 73.916 12.2834C74.3105 12.2834 74.6192 12.0997 74.8422 11.7314C75.0345 11.4266 75.1292 11.065 75.1292 10.6466Z" fill="white"/>
<path d="M81.2038 12.9181H80.2757L80.1987 12.3959H80.1701C79.8525 12.8123 79.3998 13.021 78.812 13.021C78.373 13.021 78.018 12.8835 77.7507 12.6104C77.508 12.3623 77.3867 12.0536 77.3867 11.6872C77.3867 11.1332 77.6234 10.7111 78.0998 10.4187C78.5752 10.1264 79.244 9.98309 80.105 9.98982V9.9052C80.105 9.308 79.7835 9.00988 79.1394 9.00988C78.6808 9.00988 78.2764 9.1224 77.9272 9.34551L77.7171 8.68388C78.1491 8.42327 78.6828 8.29248 79.312 8.29248C80.5272 8.29248 81.1367 8.91756 81.1367 10.1677V11.8372C81.1367 12.2901 81.1594 12.6508 81.2038 12.9181ZM80.1307 11.3602V10.6611C78.9905 10.6418 78.4204 10.9467 78.4204 11.5746C78.4204 11.8112 78.4855 11.9882 78.6186 12.1064C78.7518 12.2247 78.9214 12.2834 79.1236 12.2834C79.3505 12.2834 79.5625 12.2132 79.7559 12.0738C79.9502 11.9334 80.0695 11.7554 80.1139 11.5371C80.1248 11.4881 80.1307 11.4285 80.1307 11.3602Z" fill="white"/>
<path d="M87.0752 12.9181H86.1579L86.1096 12.1901H86.081C85.788 12.744 85.2889 13.021 84.5877 13.021C84.0274 13.021 83.5609 12.8065 83.191 12.3776C82.8212 11.9487 82.6367 11.3919 82.6367 10.7082C82.6367 9.97441 82.8369 9.3801 83.2394 8.92619C83.629 8.50306 84.1063 8.29149 84.6745 8.29149C85.2988 8.29149 85.7357 8.49633 85.9843 8.90696H86.004V6.30469H87.0387V11.6968C87.0387 12.1382 87.0505 12.5449 87.0752 12.9181ZM86.004 11.0063V10.2504C86.004 10.1196 85.9942 10.0138 85.9754 9.93306C85.9172 9.69072 85.792 9.48684 85.6016 9.3224C85.4093 9.15795 85.1775 9.07525 84.9102 9.07525C84.5245 9.07525 84.2227 9.22431 84.0008 9.52339C83.7808 9.82246 83.6694 10.2042 83.6694 10.6707C83.6694 11.1188 83.7749 11.4823 83.987 11.7621C84.2109 12.0603 84.5127 12.2093 84.8905 12.2093C85.2298 12.2093 85.501 12.0853 85.7071 11.8362C85.9064 11.6064 86.004 11.3294 86.004 11.0063Z" fill="white"/>
<path d="M95.9171 10.6139C95.9171 11.3112 95.713 11.8824 95.3046 12.3305C94.8766 12.7912 94.3104 13.021 93.6013 13.021C92.9197 13.021 92.3762 12.8008 91.9699 12.3584C91.5655 11.917 91.3633 11.3602 91.3633 10.689C91.3633 9.98694 91.5714 9.4109 91.9896 8.96372C92.4078 8.51655 92.97 8.29248 93.6792 8.29248C94.3607 8.29248 94.9101 8.5127 95.3244 8.95411C95.7189 9.38301 95.9171 9.93693 95.9171 10.6139ZM94.846 10.6466C94.846 10.2283 94.7533 9.86961 94.5688 9.57053C94.3509 9.20895 94.0431 9.02815 93.6407 9.02815C93.2265 9.02815 92.9108 9.20895 92.6928 9.57053C92.5074 9.86961 92.4157 10.2341 92.4157 10.6649C92.4157 11.0832 92.5084 11.4419 92.6928 11.741C92.9167 12.1026 93.2284 12.2834 93.6308 12.2834C94.0254 12.2834 94.3361 12.0997 94.559 11.7314C94.7493 11.4266 94.846 11.065 94.846 10.6466Z" fill="white"/>
<path d="M101.477 12.9181H100.444V10.3216C100.444 9.52145 100.132 9.12139 99.5062 9.12139C99.1994 9.12139 98.9519 9.23102 98.7605 9.45124C98.5692 9.67147 98.4735 9.93112 98.4735 10.2283V12.9171H97.4388V9.68012C97.4388 9.28199 97.427 8.8502 97.4023 8.38283H98.3098L98.3581 9.09158H98.3867C98.508 8.87136 98.6875 8.6896 98.9223 8.54439C99.2034 8.37514 99.516 8.28955 99.8603 8.28955C100.293 8.28955 100.654 8.42611 100.941 8.70018C101.299 9.0358 101.477 9.53683 101.477 10.2023V12.9181Z" fill="white"/>
<path d="M108.433 9.13976H107.295V11.342C107.295 11.9017 107.497 12.1815 107.898 12.1815C108.083 12.1815 108.237 12.1661 108.358 12.1344L108.385 12.8989C108.181 12.9739 107.913 13.0114 107.582 13.0114C107.174 13.0114 106.856 12.8903 106.626 12.6479C106.396 12.4056 106.281 11.9978 106.281 11.4256V9.13976H105.602V8.38486H106.281V7.55398L107.294 7.25586V8.38389H108.432V9.13976H108.433Z" fill="white"/>
<path d="M113.905 12.9181H112.871V10.3408C112.871 9.52819 112.559 9.12141 111.935 9.12141C111.455 9.12141 111.128 9.35702 110.948 9.82823C110.918 9.92729 110.9 10.0485 110.9 10.1908V12.9171H109.867V6.30469H110.9V9.03678H110.92C111.245 8.5396 111.712 8.29149 112.316 8.29149C112.744 8.29149 113.098 8.42805 113.38 8.70212C113.73 9.04351 113.905 9.55127 113.905 10.2225V12.9181Z" fill="white"/>
<path d="M119.548 10.4369C119.548 10.6177 119.534 10.7696 119.509 10.8937H116.409C116.423 11.3418 116.571 11.6832 116.858 11.9198C117.12 12.1313 117.459 12.2371 117.873 12.2371C118.332 12.2371 118.75 12.1659 119.127 12.0227L119.288 12.7227C118.847 12.9093 118.329 13.0026 117.728 13.0026C117.008 13.0026 116.441 12.7958 116.031 12.3823C115.618 11.9688 115.414 11.4139 115.414 10.7177C115.414 10.0339 115.604 9.46462 115.988 9.01071C116.389 8.52603 116.93 8.28369 117.614 8.28369C118.282 8.28369 118.79 8.52603 119.133 9.01071C119.411 9.39538 119.548 9.8714 119.548 10.4369ZM118.561 10.1763C118.569 9.87717 118.501 9.61945 118.361 9.40211C118.182 9.12226 117.908 8.98186 117.539 8.98186C117.201 8.98186 116.926 9.11842 116.716 9.39249C116.544 9.61079 116.443 9.8714 116.409 10.1763H118.561Z" fill="white"/>
</svg>
