<svg width="82" height="83" viewBox="0 0 82 83" fill="none" xmlns="http://www.w3.org/2000/svg">
<path fill-rule="evenodd" clip-rule="evenodd" d="M72.2278 52.871H75.5805C75.932 53.0459 76.2565 53.2813 76.5491 53.5692L79.3802 56.3955C80.8355 57.8492 80.8355 60.227 79.3802 61.6807L79.3039 61.757L62.2857 78.7561L62.2141 78.8277C60.7588 80.2814 58.3747 80.2814 56.9178 78.8277L54.0915 76.0046C52.6362 74.5509 52.6362 72.1699 54.0915 70.7146L71.2544 53.5676C71.5487 53.2797 71.8763 53.0459 72.2278 52.871Z" fill="#01A9E4"/>
<g clip-path="url(#clip0)">
<path fill-rule="evenodd" clip-rule="evenodd" d="M21.1692 79.9181H24.5219C24.8734 79.7432 25.1979 79.5078 25.4905 79.2199L28.3216 76.3936C29.7769 74.9399 29.7769 72.5621 28.3216 71.1084L28.2453 71.0321L11.2271 54.0329L11.1555 53.9614C9.7002 52.5077 7.31606 52.5077 5.85917 53.9614L3.03288 56.7845C1.57758 58.2382 1.57758 60.6192 3.03288 62.0744L20.1958 79.2215C20.4901 79.5094 20.8177 79.7432 21.1692 79.9181Z" fill="#48CA87"/>
<path d="M41.0547 10.9688C41.9391 10.9688 42.6564 10.2515 42.6564 9.36718V2.22271C42.6564 1.3384 41.9391 0.621094 41.0547 0.621094C40.1704 0.621094 39.4531 1.3384 39.4531 2.22271V9.36718C39.4531 10.2515 40.1704 10.9688 41.0547 10.9688Z" fill="black"/>
<path d="M80.2114 55.6483L77.3819 52.8268C76.3751 51.8216 75.0343 51.2681 73.6045 51.2681C72.6899 51.2681 71.8136 51.4956 71.0358 51.9218L65.7029 46.5953L65.9622 46.336C68.1252 44.1682 68.1252 40.6469 65.9622 38.487C65.1892 37.7124 64.2254 37.1971 63.1741 36.9792C63.3188 36.4798 63.3951 35.9565 63.3951 35.4205C63.3951 33.9334 62.8178 32.537 61.7713 31.4952C60.9983 30.7206 60.0344 30.2053 58.9831 29.9874C59.1279 29.488 59.2042 28.9647 59.2042 28.4287C59.2042 26.94 58.6269 25.5452 57.5787 24.5018C56.7867 23.7114 55.8149 23.2104 54.7922 22.9972C55.3393 21.1125 54.8717 18.9924 53.3894 17.5085C52.1552 16.2806 50.4804 15.7526 48.8676 15.9227L38.302 13.9235C36.6909 13.6181 34.6773 13.4161 33.4081 14.574C33.3286 14.6472 33.2459 14.7315 33.1664 14.8253C31.1973 14.108 28.8991 14.5343 27.3229 16.1104C26.2764 17.1554 25.7006 18.5502 25.7006 20.0373C25.7006 20.5733 25.777 21.0966 25.9217 21.596C24.872 21.8139 23.9081 22.3292 23.1383 23.1006C22.0902 24.1456 21.5113 25.5372 21.5113 27.0228C21.5113 27.5603 21.5876 28.0852 21.7323 28.5862C20.6826 28.8025 19.7188 29.3178 18.9458 30.0892C17.8977 31.1373 17.3203 32.5322 17.3203 34.0177C17.3203 35.1565 17.6607 36.2412 18.2905 37.1573C17.4953 37.4277 16.7668 37.8762 16.1561 38.4854C13.9851 40.6469 13.9851 44.1698 16.1513 46.3392L16.4106 46.5969L11.0777 51.9202C9.09593 50.9866 6.65453 51.3365 5.01792 52.9699L2.18686 55.7947C1.18008 56.7998 0.625 58.1422 0.625 59.5721C0.625 61.0019 1.18008 62.3443 2.18686 63.3511L5.72092 66.8803C6.34598 67.5054 7.36071 67.5054 7.98577 66.8788C8.61083 66.2537 8.61083 65.239 7.98418 64.6139L4.45012 61.0846C4.04932 60.6838 3.82824 60.1478 3.82824 59.5721C3.82824 58.9979 4.04932 58.4619 4.45012 58.0611L7.28119 55.238C7.98895 54.5318 9.07207 54.4252 9.89435 54.9183C9.95161 55.0058 10.0184 55.0885 10.0963 55.1648C10.2331 55.3016 10.3906 55.4082 10.556 55.4845L26.7933 71.6979C26.8712 71.8665 26.9762 72.024 27.1146 72.1623C27.2497 72.2975 27.4024 72.4009 27.5662 72.4773C27.9098 72.8653 28.0991 73.3616 28.0991 73.8912C28.0991 74.4654 27.878 75.0014 27.4772 75.4022L24.6477 78.2269C23.8111 79.0587 22.4528 79.0587 21.6194 78.2301L18.0854 74.696C17.4603 74.0709 16.4456 74.0709 15.8205 74.696C15.1954 75.3211 15.1954 76.3358 15.8205 76.9608L19.3562 80.4965C20.3963 81.5335 21.7642 82.0504 23.132 82.0504C24.4998 82.0504 25.8676 81.5319 26.911 80.4933L29.742 77.667C30.7488 76.6602 31.3039 75.3195 31.3039 73.888C31.3039 72.8669 31.0192 71.892 30.4927 71.0522L36.4952 65.0576C36.5016 65.0513 36.508 65.0449 36.5143 65.0386C37.2014 64.3276 39.1148 64.4612 40.9661 64.59C42.2814 64.6807 43.7479 64.7825 45.1793 64.6187L51.7512 71.1826C51.3249 71.9588 51.0975 72.8351 51.0975 73.7481C51.0975 75.1763 51.6526 76.5187 52.6594 77.5239L55.4904 80.3502C56.4972 81.3554 57.838 81.9089 59.2678 81.9089C60.6977 81.9089 62.0385 81.3554 63.0452 80.3502L80.2114 63.2063C81.2181 62.2011 81.7732 60.8588 81.7732 59.4289C81.7732 57.9975 81.2181 56.6551 80.2114 55.6483ZM37.704 17.0711L44.6528 18.3864L40.4937 22.5439C39.8512 22.2354 38.9684 21.658 38.0014 20.7324C36.6781 19.4663 35.7302 18.0031 35.6443 17.0918V17.0902C35.638 17.025 35.6364 16.9725 35.638 16.9327C35.8447 16.8818 36.4014 16.8246 37.704 17.0711ZM29.583 18.3785C30.3941 17.5673 31.6554 17.4751 32.5715 18.0954C33.0916 20.2743 34.9493 22.2481 35.7859 23.0481C36.4062 23.6414 38.3943 25.418 40.3999 25.9078C40.6719 26.2975 40.8198 26.7603 40.8198 27.2502C40.8198 27.88 40.578 28.4701 40.1359 28.9123C39.6953 29.3544 39.1052 29.5962 38.4722 29.5962C37.8408 29.5962 37.2491 29.3528 36.807 28.9091L36.8054 28.9075L29.5814 21.6962C29.1408 21.2572 28.8991 20.6672 28.8991 20.0357C28.8991 19.4075 29.1424 18.8174 29.583 18.3785ZM25.3968 25.3671C25.8374 24.9265 26.4275 24.6831 27.0589 24.6831C27.6903 24.6831 28.282 24.9265 28.7257 25.3702L34.5421 31.1755C35.4582 32.0932 35.4582 33.5851 34.5453 34.4996C34.1016 34.9402 33.5099 35.1835 32.8769 35.1835C32.2439 35.1835 31.6506 34.9402 31.2101 34.5012L26.798 30.0892C26.7917 30.0828 26.7837 30.0765 26.7774 30.0685L25.3968 28.688C24.9531 28.2458 24.7097 27.6542 24.7097 27.0243C24.7097 26.3977 24.9531 25.8092 25.3968 25.3671ZM21.2043 32.3557C21.6449 31.9151 22.2365 31.6733 22.8695 31.6733C23.4978 31.6733 24.0831 31.9119 24.5221 32.3445L28.9484 36.7693C29.3889 37.2082 29.6323 37.7983 29.6323 38.4281C29.6323 39.058 29.3889 39.6464 28.9452 40.0886C28.5046 40.5292 27.913 40.7709 27.2816 40.7709C26.6485 40.7709 26.0569 40.5276 25.6147 40.0886L24.0099 38.4854L24.0083 38.4838L21.2011 35.6798C20.759 35.2376 20.5156 34.6475 20.5156 34.0177C20.5172 33.3879 20.7606 32.7978 21.2043 32.3557ZM18.4146 40.7518C18.8583 40.3097 19.45 40.0663 20.0814 40.0663C20.7128 40.0663 21.3045 40.3097 21.7483 40.7518L23.3546 42.3566C23.7952 42.7956 24.0386 43.3857 24.0386 44.0155C24.0386 44.6453 23.7952 45.2338 23.3515 45.6776C22.9109 46.1181 22.3208 46.3615 21.6878 46.3615C21.0564 46.3615 20.4647 46.1181 20.021 45.6744L19.8206 45.474C19.8174 45.4708 19.8158 45.4676 19.8126 45.466C19.8094 45.4628 19.8063 45.4613 19.8031 45.4581L18.4146 44.0759C17.5001 43.1551 17.4985 41.6648 18.4146 40.7518ZM51.0561 58.9549C50.4311 58.3283 49.4164 58.3283 48.7913 58.9534L47.3662 60.3768C46.0127 61.7303 43.5586 61.5602 41.1856 61.3963C38.609 61.2166 35.9449 61.0321 34.2208 62.8023L28.3201 68.6951L13.5668 53.9624L18.7884 48.7504C19.652 49.28 20.6476 49.5631 21.6894 49.5631C23.1781 49.5631 24.573 48.9858 25.6163 47.9408C26.666 46.8959 27.2434 45.501 27.2434 44.0123C27.2434 43.998 27.2418 43.9853 27.2418 43.971C27.2561 43.971 27.2688 43.9726 27.2831 43.9726C28.7702 43.9726 30.1651 43.3968 31.2085 42.355C32.2582 41.3101 32.8355 39.9152 32.8355 38.4265C32.8355 38.4122 32.8339 38.3995 32.8339 38.3852C32.8483 38.3852 32.8626 38.3868 32.8753 38.3868C34.3608 38.3868 35.7573 37.8126 36.8086 36.7661C37.8996 35.6734 38.4388 34.234 38.4293 32.7994C38.4436 32.7994 38.4579 32.801 38.4722 32.801C39.9609 32.801 41.3558 32.2236 42.4007 31.1771C43.4473 30.1322 44.023 28.7373 44.023 27.2502C44.023 26.21 43.7399 25.216 43.2135 24.3539L47.7893 19.7797C48.1297 19.4393 48.5511 19.2278 48.9917 19.1387C49.0394 19.1339 49.0871 19.126 49.1332 19.1164C49.841 19.0194 50.5822 19.2373 51.1245 19.7749C52.0407 20.6926 52.0407 22.1861 51.1277 23.099L49.7344 24.4875C49.7297 24.4923 49.7249 24.4955 49.7201 24.5018L48.1153 26.105C47.4887 26.7301 47.4887 27.7448 48.1137 28.3699C48.7388 28.9965 49.7535 28.9965 50.3786 28.3715L51.7782 26.9734C51.7782 26.9734 51.7782 26.9734 51.7798 26.9719L51.9913 26.7619C52.9091 25.8522 54.3978 25.8537 55.3155 26.7699C55.7576 27.2088 55.9994 27.7989 55.9994 28.4287C55.9994 29.0586 55.756 29.6471 55.3107 30.0908L53.9095 31.4952L52.3047 33.0936C51.678 33.7187 51.6764 34.7318 52.2999 35.3585C52.9234 35.9851 53.9381 35.9867 54.5648 35.3633L56.1775 33.7569C56.6181 33.3147 57.2081 33.073 57.8412 33.073C58.4726 33.073 59.0642 33.3163 59.508 33.7601C59.9501 34.199 60.1919 34.7891 60.1919 35.4189C60.1919 36.0488 59.9486 36.6372 59.5048 37.0794L56.7103 39.8755C56.0853 40.5005 56.0853 41.5153 56.7103 42.1403C57.0236 42.4536 57.4324 42.6095 57.8428 42.6095C58.2531 42.6095 58.6634 42.4536 58.9752 42.1403L60.3446 40.7709C60.3525 40.763 60.3605 40.7566 60.3684 40.7486C60.809 40.3065 61.3991 40.0647 62.0321 40.0647C62.6651 40.0647 63.2552 40.3081 63.6973 40.7502C64.6119 41.6648 64.6119 43.1551 63.6973 44.0712L62.3041 45.4613L62.3025 45.4629L62.3009 45.4644L60.0901 47.672C59.465 48.2971 59.4635 49.3118 60.0885 49.9369C60.4018 50.2502 60.8122 50.4061 61.2225 50.4061C61.6329 50.4061 62.0416 50.2502 62.355 49.9369L63.4365 48.8569L68.6183 54.0324L53.8649 68.7667L48.5798 63.4878C48.9487 63.2509 49.3002 62.9725 49.6311 62.6417L51.0546 61.2198C51.6812 60.5963 51.6812 59.5816 51.0561 58.9549ZM77.9481 60.9399L60.7804 78.0869C60.3796 78.4877 59.842 78.7088 59.2662 78.7088C58.6905 78.7088 58.1545 78.4877 57.7521 78.0869L54.921 75.2606C54.5202 74.8598 54.2991 74.3238 54.2991 73.7512C54.2991 73.1787 54.5202 72.6427 54.921 72.2419L72.0887 55.0948C72.4911 54.694 73.0287 54.473 73.6029 54.473C74.177 54.473 74.7146 54.694 75.117 55.0964L77.9465 57.918C78.3473 58.3188 78.5684 58.8548 78.5684 59.4289C78.57 60.0015 78.3489 60.5391 77.9481 60.9399Z" fill="black"/>
<path d="M19.7871 9.61861C20.1005 9.93035 20.5092 10.0862 20.918 10.0862C21.3283 10.0862 21.7387 9.92875 22.052 9.61543C22.6771 8.98878 22.6755 7.97564 22.0504 7.35058L16.2133 1.52621C15.5883 0.901153 14.5735 0.901153 13.9485 1.5278C13.3234 2.15446 13.325 3.1676 13.9501 3.79266L19.7871 9.61861Z" fill="black"/>
<path d="M61.1942 10.0862C61.6045 10.0862 62.0133 9.93035 62.3266 9.61861L68.1589 3.79266C68.784 3.1676 68.7856 2.15287 68.1605 1.5278C67.5354 0.901153 66.5207 0.901153 65.8957 1.52621L60.0633 7.35217C59.4383 7.97723 59.4367 8.99196 60.0618 9.61702C60.3735 9.93035 60.7838 10.0862 61.1942 10.0862Z" fill="black"/>
<path d="M10.4755 69.5212C9.85524 70.1526 9.86319 71.1658 10.4946 71.7861L10.4994 71.7908C10.8111 72.0962 11.2151 72.2489 11.6191 72.2489C12.0342 72.2489 12.4477 72.0882 12.7626 71.7686C13.3829 71.1371 13.3718 70.1208 12.7404 69.5005C12.109 68.8802 11.0958 68.8914 10.4755 69.5212Z" fill="black"/>
<path d="M54.9728 56.649C55.2162 56.649 55.4643 56.5934 55.6965 56.4772C56.487 56.078 56.8035 55.1158 56.4059 54.3253C56.0067 53.5348 55.0444 53.2183 54.2539 53.616L54.2444 53.6207C53.4539 54.0199 53.1422 54.9806 53.5398 55.7695C53.8213 56.3277 54.3875 56.649 54.9728 56.649Z" fill="black"/>
</g>
<defs>
<clipPath id="clip0">
<rect width="81.1482" height="81.4329" fill="white" transform="translate(0.625 0.621094)"/>
</clipPath>
</defs>
</svg>
