<svg width="1208" height="564" viewBox="0 0 1208 564" fill="none" xmlns="http://www.w3.org/2000/svg">
<g clip-path="url(#clip0)">
<path d="M0 -7C0 41.2152 33.6603 83.0146 71.7956 112.566C109.931 142.117 154.098 163.503 189.509 196.165C261.889 262.849 295.354 372.5 385.245 412.744C415.208 426.159 448.674 430.242 479.026 442.879C529.419 464.07 566.971 507.425 614.446 534.449C675.151 568.86 751.811 573.526 816.407 546.891C867.773 525.7 912.329 485.845 967.587 479.235C1000.27 475.346 1033.35 483.901 1066.04 481.762C1116.04 478.651 1160.99 451.822 1203.79 425.576C1210.8 421.299 1225 412.744 1225 412.744L1220.33 -4.27818L0 -7Z" fill="url(#paint0_linear)" fill-opacity="0.15"/>
</g>
<defs>
<linearGradient id="paint0_linear" x1="779" y1="-7.00001" x2="898.674" y2="647.402" gradientUnits="userSpaceOnUse">
<stop offset="0.00896761" stop-color="#239EE1"/>
<stop offset="0.444123" stop-color="#70FF00"/>
<stop offset="1" stop-color="#70FF00" stop-opacity="0"/>
</linearGradient>
<clipPath id="clip0">
<rect width="1225" height="571" fill="white" transform="translate(0 -7)"/>
</clipPath>
</defs>
</svg>
