<svg width="70" height="112" viewBox="0 0 70 112" fill="none" xmlns="http://www.w3.org/2000/svg">
<g clip-path="url(#clip0)">
<path d="M23.8438 106.296L35.6035 95.2676L39.6293 99.4192L40.2583 106.716L39.7866 109.169L32.5842 112L25.0043 109.169L23.8438 106.296Z" fill="#01A9E4"/>
<path d="M44.0328 66.71L50.0086 73.4721L49.5368 81.4922L46.7061 85.5809L43.6553 87.3422L39.6295 85.2664L36.4844 77.7809L38.686 71.8995L44.0328 66.71Z" fill="#48CA87"/>
<path d="M62.4312 66.71L68.407 73.4721L67.9352 81.4922L65.1046 85.5809L62.0538 87.3422L58.028 85.2664L54.8828 77.7809L57.0844 71.8995L62.4312 66.71Z" fill="#01A9E4"/>
<path d="M1.41406 95.3308C1.73172 95.3937 2.64854 87.0716 5.54051 87.5544C9.79277 88.2636 15.5972 89.9888 19.3415 94.3873C22.0416 97.5592 23.2918 102.123 23.8422 106.296C24.5719 111.851 12.7366 110.899 12.7366 110.899L7.38987 109.327C7.38987 109.327 2.04309 103.194 1.88584 102.565C1.72858 101.936 1.41406 95.3308 1.41406 95.3308Z" fill="#48CA87"/>
<path d="M63 43H46V47H63V43Z" fill="#01A9E4"/>
<path d="M32.585 112H31.4527C27.8043 112 24.4076 110.616 21.7656 108.1L23.5269 106.339C25.6656 108.477 28.4334 109.61 31.4527 109.61H32.585C35.6043 109.61 38.4979 108.477 40.6366 106.339L59.6334 87.3419C59.7592 87.2161 59.885 87.2161 60.0108 87.0903L62.0237 86.0839C65.043 84.5742 66.9301 81.5548 66.9301 78.1581V77.2774C66.9301 74.8871 66.0495 72.7484 64.414 71.1129L62.2753 68.9742C61.7721 68.5968 61.6463 68.3452 61.6463 67.9677V36.5161H45.2914V34H62.9043C63.6592 34 64.1624 34.5032 64.1624 35.2581V67.4645L65.9237 69.2258C68.0624 71.3645 69.1947 74.2581 69.1947 77.2774V78.1581C69.1947 82.4355 66.8043 86.3355 62.9043 88.2226L61.143 89.1032L42.2721 107.974C39.7559 110.49 36.2334 112 32.585 112Z" fill="black"/>
<path d="M14.971 112H13.8387C6.16452 112 0 105.835 0 98.1613V97.029C0 93.3806 1.50968 89.8581 4.02581 87.2161L18.871 72.4968V35.2581C18.871 34.5032 19.3742 34 20.129 34H45.2903C46.0452 34 46.5484 34.5032 46.5484 35.2581V67.4645L48.3097 69.2258C50.4484 71.3645 51.5806 74.2581 51.5806 77.2774V78.1581C51.5806 82.4355 49.1903 86.3355 45.2903 88.2226L43.529 89.1032L24.6581 107.974C22.1419 110.49 18.6194 112 14.971 112ZM21.3871 36.5161V73C21.3871 73.3774 21.2613 73.629 21.0097 73.8806L5.7871 89.1032C3.64839 91.2419 2.51613 94.1355 2.51613 97.1548V98.1613C2.51613 104.452 7.54839 109.484 13.8387 109.484H14.971C17.9903 109.484 20.8839 108.352 23.0226 106.213L42.0194 87.2161C42.1452 87.0903 42.271 87.0903 42.3968 86.9645L44.4097 85.9581C47.429 84.4484 49.3161 81.429 49.3161 78.0323V77.1516C49.3161 74.7613 48.4355 72.6226 46.8 70.9871L44.6613 68.8484C44.1581 68.5968 44.0323 68.3452 44.0323 67.9677V36.5161H21.3871Z" fill="black"/>
<path d="M45.2902 41.5488H20.1289V44.065H45.2902V41.5488Z" fill="black"/>
<path d="M45.2902 46.5811H20.1289V49.0972H45.2902V46.5811Z" fill="black"/>
<path d="M25.1611 106.968H22.645V106.716C22.645 102.439 20.8837 98.1614 17.8643 95.1421L16.8579 94.1356C13.8385 91.1163 9.68689 89.355 5.28367 89.355H4.90625V86.8389H5.28367C10.3159 86.8389 15.0966 88.8518 18.6192 92.3744L19.6256 93.3808C23.1482 96.9034 25.1611 101.81 25.1611 106.716V106.968Z" fill="black"/>
<path d="M41.8941 88.9777L40.1328 87.2164C37.7424 84.9519 36.4844 81.681 36.4844 78.41V77.781C36.4844 74.3842 37.7424 71.239 40.1328 68.8487L44.4102 64.5713L46.1715 66.3326L41.8941 70.61C40.007 72.4971 39.0005 75.0132 39.0005 77.781V78.41C39.0005 81.0519 40.007 83.6939 41.8941 85.581L43.6553 87.3423L41.8941 88.9777Z" fill="black"/>
<path d="M62.902 41.5488H45.2891V44.065H62.902V41.5488Z" fill="black"/>
<path d="M62.902 46.5811H45.2891V49.0972H62.902V46.5811Z" fill="black"/>
<path d="M42.7725 106.968H40.2564V106.717C40.2564 102.439 38.6209 98.2875 35.6016 95.2681L37.3629 93.5068C40.8854 97.0294 42.7725 101.81 42.7725 106.717V106.968Z" fill="black"/>
<path d="M59.5073 88.9777L57.746 87.2164C55.3557 84.9519 54.0977 81.681 54.0977 78.41V77.781C54.0977 74.3842 55.3557 71.239 57.746 68.8487L62.0235 64.5713L63.7848 66.3326L59.5073 70.61C57.6202 72.4971 56.6138 75.0132 56.6138 77.781V78.41C56.6138 81.0519 57.6202 83.6939 59.5073 85.581L61.2686 87.3423L59.5073 88.9777Z" fill="black"/>
</g>
<path d="M33 20.7641L33 2.23595C33 0.999355 32.3276 -2.93921e-08 31.5 -6.55671e-08C30.6704 -1.01829e-07 30 1.00232 30 2.23595L30 20.7641C30 22.0006 30.6724 23 31.5 23C32.3296 23.003 33 22.0006 33 20.7641Z" fill="black"/>
<path d="M24.9697 20.3962L19.2106 10.4747C18.8263 9.81249 17.9789 9.58889 17.3183 9.97234C16.6561 10.3567 16.4325 11.2041 16.816 11.8646L22.575 21.7862C22.9594 22.4484 23.8067 22.672 24.4673 22.2885C25.1304 21.9058 25.354 21.0584 24.9697 20.3962Z" fill="black"/>
<path d="M38.6944 20.3962L44.4534 10.4747C44.8378 9.81249 45.6852 9.58889 46.3458 9.97234C47.0079 10.3567 47.2315 11.2041 46.8481 11.8646L41.089 21.7862C40.7047 22.4484 39.8573 22.672 39.1967 22.2885C38.5336 21.9058 38.31 21.0584 38.6944 20.3962Z" fill="black"/>
<defs>
<clipPath id="clip0">
<rect width="69.1936" height="78" fill="white" transform="translate(0 34)"/>
</clipPath>
</defs>
</svg>
