<svg width="88" height="76" viewBox="0 0 88 76" fill="none" xmlns="http://www.w3.org/2000/svg">
<g clip-path="url(#clip0)">
<path d="M54.0797 51.0005H16.409C15.6004 51.0005 14.9453 50.3454 14.9453 49.5368V35.7596C14.9453 34.951 15.6004 34.2959 16.409 34.2959H54.0797C54.8883 34.2959 55.5434 34.951 55.5434 35.7596V49.5368C55.5417 50.3454 54.8883 51.0005 54.0797 51.0005Z" fill="#F7F7F7"/>
<path d="M55.0232 23.2129C44.2127 23.2129 35.4492 31.9763 35.4492 42.7869C35.4492 53.5975 44.2127 62.3609 55.0232 62.3609C65.8338 62.3609 74.5972 53.5975 74.5972 42.7869C74.5972 31.9763 65.8338 23.2129 55.0232 23.2129ZM55.0232 56.2673C47.5785 56.2673 41.5429 50.2317 41.5429 42.7869C41.5429 35.3422 47.5785 29.3065 55.0232 29.3065C62.468 29.3065 68.5036 35.3422 68.5036 42.7869C68.5036 50.2317 62.468 56.2673 55.0232 56.2673Z" fill="#01A9E4"/>
<path d="M44.3892 34.2979H54.0807C54.8893 34.2979 55.5444 34.9529 55.5444 35.7616V49.5388C55.5444 50.3474 54.8893 51.0025 54.0807 51.0025H44.1845L40.8477 44.8867V39.9445L44.3892 34.2979Z" fill="#F7F7F7"/>
<path d="M41.284 68.7877H4.63348C3.83851 68.7877 3.19025 68.1411 3.19025 67.3444V26.4018C3.19025 25.6921 2.61534 25.1172 1.90567 25.1172C1.196 25.1172 0.621094 25.6921 0.621094 26.4018V67.3444C0.621094 69.557 2.42087 71.3585 4.63518 71.3585H41.2857C41.9954 71.3585 42.5703 70.7836 42.5703 70.074C42.5686 69.3626 41.9937 68.7877 41.284 68.7877Z" fill="black"/>
<path d="M86.3841 66.3375C86.3534 66.3068 86.3209 66.2778 86.2868 66.2488L71.6822 54.3686C73.9614 50.9686 75.1862 46.9716 75.1862 42.7852C75.1862 37.5821 73.2943 32.6706 69.8347 28.834C69.8569 28.7402 69.8688 28.6446 69.8688 28.5457V4.41167C69.8688 2.0097 67.9138 0.0546875 65.5118 0.0546875H4.97808C2.57611 0.0546875 0.621094 2.0097 0.621094 4.41167V21.2596C0.621094 21.9693 1.196 22.5442 1.90567 22.5442C2.61534 22.5442 3.19025 21.9693 3.19025 21.2596V4.41167C3.19025 3.42734 3.99204 2.62555 4.97637 2.62555H24.4429V15.0977C24.4429 15.5157 24.6459 15.908 24.9888 16.1486C25.3317 16.3891 25.7701 16.4488 26.1625 16.3055L35.2415 13.0352L44.3206 16.3055C44.4622 16.3567 44.6089 16.3823 44.7556 16.3823C45.0166 16.3823 45.2759 16.3021 45.4943 16.1486C45.8372 15.908 46.0402 15.5157 46.0402 15.0977V2.62555H65.5067C66.491 2.62555 67.2928 3.42734 67.2928 4.41167V26.4491C63.6165 23.5183 59.0924 21.9266 54.3225 21.9266C48.7509 21.9266 43.512 24.0966 39.5729 28.0356C38.0683 29.5402 36.8417 31.2223 35.8932 33.0118H16.4096C14.8947 33.0118 13.6613 34.2452 13.6613 35.7601V49.5373C13.6613 51.0522 14.8947 52.2856 16.4096 52.2856H35.755C36.7223 54.1775 37.9949 55.9534 39.5763 57.5348C43.5171 61.4755 48.7543 63.6438 54.3259 63.6438C58.5823 63.6438 62.6424 62.3763 66.0799 60.0221L67.2962 61.3646V67.3406C67.2962 68.1355 66.6497 68.7838 65.853 68.7838H46.4274C45.7177 68.7838 45.1428 69.3587 45.1428 70.0684C45.1428 70.778 45.7177 71.3529 46.4274 71.3529H65.8547C68.0673 71.3529 69.8688 69.5532 69.8688 67.3389V64.1999L78.6902 73.9357C78.7039 73.9511 78.7193 73.9665 78.7346 73.9818C79.7889 75.0361 81.1741 75.5632 82.5593 75.5632C83.9445 75.5632 85.3298 75.0361 86.3841 73.9818C88.4926 71.8784 88.4926 68.4477 86.3841 66.3375ZM43.4744 13.2672L35.68 10.4592C35.3985 10.3586 35.0897 10.3586 34.8082 10.4592L27.0138 13.2672V2.62555H43.4727L43.4744 13.2672ZM27.2236 35.5844V49.7164H22.3224V35.5844H27.2236ZM16.2322 49.539V35.7618C16.2322 35.6646 16.3124 35.5844 16.4096 35.5844H19.7516V49.7164H16.4096C16.3107 49.7164 16.2322 49.6363 16.2322 49.539ZM29.7945 49.7164V35.5844H34.7519C33.0869 40.1325 33.0528 45.1496 34.653 49.7164H29.7945ZM41.3949 55.7197C34.264 48.5888 34.264 36.9867 41.3949 29.8558C44.8494 26.4013 49.4418 24.4992 54.3277 24.4992C59.2135 24.4992 63.8059 26.4013 67.2587 29.8558C70.7132 33.3104 72.6154 37.9028 72.6154 42.7886C72.6154 47.6744 70.7132 52.2668 67.2587 55.7214C63.8042 59.1759 59.2118 61.078 54.3277 61.078C49.4418 61.0763 44.8494 59.1725 41.3949 55.7197ZM84.5655 72.1701C83.4669 73.2704 81.6808 73.2773 80.5719 72.1906L68.1134 58.4407C68.4426 58.1506 68.7634 57.8504 69.0755 57.5382C69.4389 57.1748 69.7869 56.7995 70.1196 56.4157L84.6065 68.2004C85.1165 68.7309 85.3963 69.4269 85.3963 70.1639C85.398 70.9213 85.1012 71.6327 84.5655 72.1701Z" fill="black"/>
<path d="M64.7678 32.3461C61.9786 29.5568 58.2716 28.0215 54.3275 28.0215C50.3833 28.0215 46.6763 29.5568 43.8871 32.3461C41.0979 35.1353 39.5625 38.8423 39.5625 42.7864C39.5625 46.7306 41.0979 50.4376 43.8871 53.2268C46.6763 56.016 50.3833 57.5514 54.3275 57.5514C58.2716 57.5514 61.9786 56.016 64.7678 53.2268C70.5254 47.4693 70.5254 38.1036 64.7678 32.3461ZM54.0818 35.5839C54.179 35.5839 54.2592 35.6641 54.2592 35.7614V49.5386C54.2592 49.6358 54.179 49.716 54.0818 49.716H49.0254V35.5839H54.0818ZM44.4859 35.5839H46.4545V49.716H44.2931C42.8908 47.6944 42.1334 45.2993 42.1334 42.7864C42.1334 40.161 42.959 37.6618 44.4859 35.5839ZM62.951 51.41C60.648 53.713 57.5858 54.9822 54.3292 54.9822C51.5144 54.9822 48.8445 54.032 46.6848 52.2885H54.0835C55.5984 52.2885 56.8318 51.0551 56.8318 49.5403V35.7631C56.8318 34.2482 55.5984 33.0148 54.0835 33.0148H47.0345C49.1294 31.4436 51.6628 30.594 54.3292 30.594C57.5858 30.594 60.648 31.8633 62.951 34.1663C67.7055 38.9191 67.7055 46.6538 62.951 51.41Z" fill="black"/>
</g>
<defs>
<clipPath id="clip0">
<rect width="87.3444" height="75.5136" fill="white" transform="translate(0.621094 0.0546875)"/>
</clipPath>
</defs>
</svg>
