<svg width="91" height="90" viewBox="0 0 91 90" fill="none" xmlns="http://www.w3.org/2000/svg">
<path d="M33.7426 33.5099C42.9892 33.5099 50.4851 26.0084 50.4851 16.7549C50.4851 7.50144 42.9892 0 33.7426 0C24.4959 0 17 7.50144 17 16.7549C17 26.0084 24.4959 33.5099 33.7426 33.5099Z" fill="#48CA87"/>
<path d="M76.4277 49.3047C76.4277 48.5754 75.8412 47.9707 75.0947 47.9707C74.3482 47.9707 73.7617 48.5577 73.7617 49.3047C73.7617 50.2296 73.0152 50.9944 72.0732 50.9944C71.149 50.9944 70.3848 50.2474 70.3848 49.3047C70.3848 48.5754 69.7982 47.9707 69.0518 47.9707C68.3053 47.9707 67.7188 48.5577 67.7188 49.3047C67.7188 51.6881 69.6561 53.6446 72.0555 53.6446C74.4727 53.6446 76.4277 51.6881 76.4277 49.3047Z" fill="black"/>
<path d="M87.5164 48.2012L83.784 47.0095C83.3041 46.8494 82.9309 46.4759 82.7709 45.9957C81.9889 43.4878 80.798 41.1577 79.2518 39.0233C78.5408 38.0451 77.7588 37.1202 76.9057 36.2486C77.4566 33.8297 77.7588 31.1083 77.7232 28.7427C77.6699 25.3633 76.9945 23.3889 75.6615 22.6953C74.9506 22.3218 72.7645 21.1834 60.9451 26.5905C60.6607 26.715 60.4119 26.8751 60.1631 27.053C59.3633 26.8395 58.5457 26.6439 57.7281 26.466C57.6215 26.4482 57.5326 26.4305 57.426 26.4127C58.3857 24.3139 58.9367 22.055 59.0434 19.7071C59.0789 18.9779 58.5102 18.3554 57.7814 18.3198C57.0527 18.2842 56.4307 18.8534 56.3951 19.5826C56.2174 23.4423 54.6178 27.0708 51.8984 29.8099C50.2633 31.4463 48.3615 32.638 46.3176 33.385C42.7807 32.887 39.1904 32.887 35.6535 33.385C33.6096 32.638 31.7078 31.4463 30.0727 29.8099C27.1578 26.8929 25.5582 23.0154 25.5582 18.8889C25.5582 14.7625 27.1578 10.885 30.0727 7.968C32.9875 5.051 36.8621 3.45021 40.9855 3.45021C45.109 3.45021 48.9836 5.051 51.8984 7.968C53.0715 9.14191 54.0313 10.4759 54.7777 11.9344C55.1154 12.5925 55.8975 12.8593 56.5551 12.5214C57.2127 12.2012 57.4793 11.4008 57.1416 10.7427C56.2707 9.0174 55.151 7.45219 53.7646 6.08262C50.3521 2.6676 45.8199 0.782227 40.9855 0.782227C36.1512 0.782227 31.6367 2.63203 28.2242 6.04705C24.8117 9.47986 22.9277 14.0154 22.9277 18.8534C22.9277 23.6913 24.8117 28.2269 28.2242 31.6419C29.2018 32.6202 30.2859 33.4739 31.4057 34.1854C30.5881 34.3988 29.7705 34.6478 28.9529 34.9146C28.2598 35.1459 27.8865 35.8929 28.1176 36.5866C28.3486 37.2803 29.0951 37.6538 29.7883 37.4225C37.0043 35.0036 44.9668 35.0036 52.1828 37.4225C52.325 37.4759 52.4672 37.4937 52.6094 37.4937C53.1604 37.4937 53.6758 37.138 53.8713 36.5866C54.1023 35.8929 53.7291 35.1459 53.0359 34.9146C52.2361 34.6478 51.4186 34.3988 50.5832 34.1854C51.7207 33.4739 52.7871 32.6202 53.7646 31.6419C54.6355 30.7704 55.3998 29.8099 56.0752 28.8139C56.4484 28.885 56.8039 28.9561 57.1594 29.0451C57.6393 29.1518 58.1014 29.2585 58.5812 29.383C58.5635 29.4364 58.5457 29.4897 58.5457 29.5609C57.9059 32.6202 57.9414 35.3415 58.6701 37.6182C59.3277 39.6637 60.5008 41.3356 62.1893 42.5629C64.1621 44.0036 66.5438 44.6261 68.7121 44.6261C70.3295 44.6261 71.8402 44.2704 72.9422 43.6478C74.1863 42.9364 75.235 41.4601 76.0525 39.219C76.4258 39.6637 76.799 40.1261 77.1367 40.5886C78.523 42.4917 79.5717 44.5727 80.2648 46.7961C80.6736 48.0945 81.6867 49.1261 82.9842 49.553L86.7166 50.7447C87.6941 51.0648 88.3518 51.9542 88.3518 52.9858V59.1755C88.3518 60.2071 87.6941 61.0965 86.7166 61.4166L80.7092 63.3198C79.7494 63.6222 78.9318 64.2803 78.4164 65.1874C76.0525 69.2605 72.3557 72.6399 67.3969 75.219C66.8281 75.5214 66.4193 76.055 66.3127 76.6775L64.3932 86.8692C64.3398 87.1538 64.091 87.3494 63.8066 87.3494H57.5504C57.266 87.3494 57.0172 87.1538 56.9639 86.8692L55.8975 81.2309C55.6842 80.1281 54.6533 79.3811 53.5336 79.5589C50.832 79.968 48.0594 80.1814 45.2867 80.1814C43.225 80.1814 41.1811 80.0747 39.226 79.8435C38.1418 79.719 37.1287 80.466 36.9332 81.5332L35.9201 86.887C35.8668 87.1716 35.618 87.3672 35.3336 87.3672H29.0773C28.793 87.3672 28.5441 87.1716 28.4908 86.887L26.6424 77.2644C26.518 76.6419 26.127 76.1083 25.576 75.8237C17.1336 71.3059 12.6547 63.7644 12.6547 54.0174C12.6547 49.0905 13.7389 44.7328 15.8539 41.0688C17.8445 37.6538 20.7416 34.8257 24.4563 32.6557C25.0961 32.2822 25.3094 31.4818 24.9361 30.8415C24.5629 30.2012 23.7631 29.9878 23.1232 30.3613C15.8895 34.5411 11.535 40.9976 10.3264 49.1973C10.202 49.1795 10.0775 49.1795 9.93535 49.1617C9.95312 48.2723 9.79316 47.383 9.45547 46.5115C8.69121 44.6083 7.10938 43.221 5.43867 42.9897C4.12344 42.8119 2.86152 43.381 1.99063 44.5194C0.728711 46.1913 0.941992 47.5075 1.33301 48.3257C2.0084 49.6953 3.71465 50.6735 6.5584 51.2783C6.48731 51.4028 6.39844 51.5095 6.2918 51.634C4.62109 53.7328 2.64824 54.2131 1.35078 54.2486C0.604297 54.2664 0 54.8712 0 55.636C0 56.383 0.586523 56.9878 1.33301 57.0233C1.42188 57.0233 1.52852 57.0233 1.63516 57.0233C3.27031 57.0233 5.88301 56.4186 8.38906 53.2704C8.78008 52.7724 9.1 52.2565 9.34883 51.7052C9.59766 51.7407 9.84649 51.7585 10.0775 51.7763C10.0242 52.4878 10.0064 53.217 10.0064 53.964C10.0064 59.4779 11.3217 64.4048 13.9166 68.5846C16.2982 72.4443 19.7285 75.6103 24.1008 77.9759L25.8959 87.3316C26.1803 88.8613 27.5311 89.9818 29.0773 89.9818H35.3336C36.8977 89.9818 38.2307 88.8791 38.515 87.3316L39.4215 82.4937C41.3232 82.6893 43.2961 82.7961 45.2867 82.7961C48.0238 82.7961 50.7432 82.6004 53.4092 82.2269L54.3689 87.3316C54.6533 88.8613 56.0041 89.9818 57.5504 89.9818H63.8066C65.3707 89.9818 66.7037 88.8791 66.9881 87.3316L68.8543 77.4067C74.1508 74.6143 78.132 70.9324 80.7092 66.468C80.8869 66.1478 81.1891 65.9166 81.509 65.8099L87.5164 63.889C89.5959 63.2309 91 61.3099 91 59.1222V52.9324C91 50.7803 89.5959 48.8593 87.5164 48.2012ZM74.8795 32.4423C74.3641 36.8 72.9955 40.5352 71.627 41.3178C70.0629 42.2071 66.4549 42.3672 63.7533 40.3929C61.0518 38.4008 60.1453 34.8435 61.1406 30.0767C61.2473 29.5965 61.585 29.1874 62.0471 28.9739C68.6766 25.9324 72.4978 24.9364 73.9197 24.9364C74.133 24.9364 74.293 24.9542 74.3996 25.0075C74.8262 25.4522 75.3949 28.049 74.8795 32.4423ZM3.71465 47.1518C3.57246 46.8672 3.89238 46.3692 4.10566 46.1024C4.42559 45.6755 4.72773 45.5866 4.95879 45.5866C5.01211 45.5866 5.04766 45.5866 5.10098 45.6044C5.70527 45.6933 6.5584 46.3514 7.02051 47.472C7.12715 47.7388 7.26934 48.1834 7.30488 48.717C5.45645 48.3435 4.03457 47.7921 3.71465 47.1518Z" fill="black"/>
</svg>
