<svg width="133" height="39" viewBox="0 0 133 39" fill="none" xmlns="http://www.w3.org/2000/svg">
<path d="M128.046 38.4688H4.92485C2.21741 38.4688 0 36.3038 0 33.6604V4.81042C0 2.16704 2.21741 0.00208458 4.92485 0.00208458H128.046C130.753 0.00208458 132.971 2.16704 132.971 4.81042V33.6604C132.971 36.3038 130.753 38.4688 128.046 38.4688Z" fill="#131313"/>
<path d="M128.046 0.772618C130.326 0.772618 132.182 2.58416 132.182 4.81042V33.6604C132.182 35.8867 130.326 37.6982 128.046 37.6982H4.92485C2.64464 37.6982 0.789206 35.8867 0.789206 33.6604V4.81042C0.789206 2.58416 2.64464 0.772618 4.92485 0.772618H128.046ZM128.046 0.00208458H4.92485C2.21741 0.00208458 0 2.16704 0 4.81042V33.6604C0 36.3038 2.21741 38.4688 4.92485 38.4688H128.046C130.753 38.4688 132.971 36.3038 132.971 33.6604V4.81042C132.971 2.16704 130.753 0.00208458 128.046 0.00208458Z" fill="#A6A6A6"/>
<path d="M46.7043 9.85275C46.7043 10.6557 46.4581 11.2989 45.973 11.7785C45.4152 12.3471 44.6888 12.6332 43.7986 12.6332C42.9479 12.6332 42.2215 12.3423 41.6256 11.7689C41.0284 11.1871 40.7305 10.473 40.7305 9.61834C40.7305 8.76366 41.0284 8.04962 41.6256 7.47262C42.2215 6.89442 42.9479 6.60352 43.7986 6.60352C44.2222 6.60352 44.626 6.68886 45.0114 6.84754C45.3955 7.00742 45.7083 7.22379 45.9348 7.49065L45.4202 7.99793C45.0249 7.54234 44.4869 7.31755 43.7986 7.31755C43.1781 7.31755 42.6401 7.52912 42.1833 7.95586C41.7314 8.3838 41.5049 8.93796 41.5049 9.61834C41.5049 10.2987 41.7314 10.8577 42.1833 11.2856C42.6401 11.7076 43.1781 11.9239 43.7986 11.9239C44.4573 11.9239 45.0114 11.7076 45.4485 11.2808C45.7366 10.9983 45.9003 10.6089 45.9434 10.1112H43.7986V9.41639H46.66C46.6945 9.56665 46.7043 9.7121 46.7043 9.85275Z" fill="white" stroke="white" stroke-width="0.118359" stroke-miterlimit="10"/>
<path d="M51.2455 7.44435H48.5578V9.27152H50.9808V9.96632H48.5578V11.7935H51.2455V12.5015H47.7969V6.73633H51.2455V7.44435Z" fill="white" stroke="white" stroke-width="0.118359" stroke-miterlimit="10"/>
<path d="M54.4485 12.5015H53.6877V7.44435H52.0391V6.73633H56.0984V7.44435H54.4485V12.5015Z" fill="white" stroke="white" stroke-width="0.118359" stroke-miterlimit="10"/>
<path d="M59.0352 12.5015V6.73633H59.7948V12.5015H59.0352Z" fill="white" stroke="white" stroke-width="0.118359" stroke-miterlimit="10"/>
<path d="M63.1634 12.5015H62.4086V7.44435H60.7539V6.73633H64.8181V7.44435H63.1634V12.5015Z" fill="white" stroke="white" stroke-width="0.118359" stroke-miterlimit="10"/>
<path d="M72.5012 11.7593C71.9188 12.3423 71.1974 12.6332 70.3367 12.6332C69.4712 12.6332 68.7497 12.3423 68.1673 11.7593C67.5862 11.1774 67.2969 10.4634 67.2969 9.61834C67.2969 8.77328 67.5862 8.05924 68.1673 7.47743C68.7497 6.89442 69.4712 6.60352 70.3367 6.60352C71.1924 6.60352 71.9139 6.89442 72.4963 7.48224C73.0823 8.06885 73.3717 8.77808 73.3717 9.61834C73.3717 10.4634 73.0823 11.1774 72.5012 11.7593ZM68.73 11.276C69.1683 11.7076 69.7014 11.9239 70.3367 11.9239C70.9671 11.9239 71.5052 11.7076 71.9385 11.276C72.3756 10.8445 72.5972 10.2903 72.5972 9.61834C72.5972 8.94638 72.3756 8.39222 71.9385 7.96067C71.5052 7.52912 70.9671 7.31274 70.3367 7.31274C69.7014 7.31274 69.1683 7.52912 68.73 7.96067C68.2929 8.39222 68.0713 8.94638 68.0713 9.61834C68.0713 10.2903 68.2929 10.8445 68.73 11.276Z" fill="white" stroke="white" stroke-width="0.118359" stroke-miterlimit="10"/>
<path d="M74.4414 12.5015V6.73633H75.3648L78.236 11.2201H78.2692L78.236 10.1118V6.73633H78.9957V12.5015H78.2028L75.1961 7.79657H75.1629L75.1961 8.90969V12.5015H74.4414Z" fill="white" stroke="white" stroke-width="0.118359" stroke-miterlimit="10"/>
<path d="M67.1096 20.9209C64.7962 20.9209 62.9063 22.6399 62.9063 25.0116C62.9063 27.3641 64.7962 29.1011 67.1096 29.1011C69.428 29.1011 71.3179 27.3641 71.3179 25.0116C71.3179 22.6399 69.428 20.9209 67.1096 20.9209ZM67.1096 27.4903C65.8402 27.4903 64.7481 26.4673 64.7481 25.0116C64.7481 23.5366 65.8402 22.5317 67.1096 22.5317C68.379 22.5317 69.476 23.5366 69.476 25.0116C69.476 26.4673 68.379 27.4903 67.1096 27.4903ZM57.9383 20.9209C55.6199 20.9209 53.735 22.6399 53.735 25.0116C53.735 27.3641 55.6199 29.1011 57.9383 29.1011C60.2554 29.1011 62.1417 27.3641 62.1417 25.0116C62.1417 22.6399 60.2554 20.9209 57.9383 20.9209ZM57.9383 27.4903C56.6677 27.4903 55.5719 26.4673 55.5719 25.0116C55.5719 23.5366 56.6677 22.5317 57.9383 22.5317C59.2077 22.5317 60.2998 23.5366 60.2998 25.0116C60.2998 26.4673 59.2077 27.4903 57.9383 27.4903ZM47.0249 22.1747V23.9129H51.2762C51.1519 24.8842 50.8194 25.5982 50.3097 26.0959C49.6892 26.6969 48.7227 27.3641 47.0249 27.3641C44.4085 27.3641 42.3598 25.3025 42.3598 22.7481C42.3598 20.1936 44.4085 18.1321 47.0249 18.1321C48.4395 18.1321 49.4688 18.6718 50.2285 19.3714L51.4831 18.1465C50.4205 17.156 49.0071 16.3951 47.0249 16.3951C43.4371 16.3951 40.4219 19.2452 40.4219 22.7481C40.4219 26.2509 43.4371 29.1011 47.0249 29.1011C48.964 29.1011 50.4205 28.4808 51.5656 27.3172C52.7389 26.1716 53.1046 24.5608 53.1046 23.2602C53.1046 22.8563 53.0701 22.4848 53.0085 22.1747H47.0249ZM91.6513 23.5222C91.3054 22.6074 90.2379 20.9209 88.0636 20.9209C85.909 20.9209 84.1151 22.5786 84.1151 25.0116C84.1151 27.3028 85.8905 29.1011 88.2704 29.1011C90.1948 29.1011 91.3054 27.9555 91.7621 27.2883L90.3339 26.3591C89.8575 27.0395 89.2086 27.4903 88.2704 27.4903C87.3384 27.4903 86.6698 27.0732 86.2414 26.2509L91.8446 23.9874L91.6513 23.5222ZM85.9385 24.8842C85.8905 23.307 87.1931 22.4992 88.1264 22.4992C88.8577 22.4992 89.4782 22.8563 89.6851 23.3671L85.9385 24.8842ZM81.3843 28.8522H83.2262V16.8314H81.3843V28.8522ZM78.3678 21.8321H78.3062C77.8925 21.3536 77.1033 20.9209 76.1036 20.9209C74.0056 20.9209 72.0874 22.7192 72.0874 25.0248C72.0874 27.3172 74.0056 29.1011 76.1036 29.1011C77.1033 29.1011 77.8925 28.6647 78.3062 28.1719H78.3678V28.7585C78.3678 30.3224 77.5121 31.1626 76.1319 31.1626C75.0066 31.1626 74.3085 30.3693 74.0204 29.7021L72.4186 30.3548C72.8803 31.4391 74.1029 32.7734 76.1319 32.7734C78.2915 32.7734 80.1137 31.5329 80.1137 28.5145V21.1697H78.3678V21.8321ZM76.2612 27.4903C74.9918 27.4903 73.9293 26.4529 73.9293 25.0248C73.9293 23.5835 74.9918 22.5317 76.2612 22.5317C77.5121 22.5317 78.4983 23.5835 78.4983 25.0248C78.4983 26.4529 77.5121 27.4903 76.2612 27.4903ZM100.275 16.8314H95.8695V28.8522H97.7064V24.2976H100.275C102.315 24.2976 104.316 22.8563 104.316 20.5639C104.316 18.2727 102.31 16.8314 100.275 16.8314ZM100.323 22.6255H97.7064V18.5035H100.323C101.694 18.5035 102.477 19.6154 102.477 20.5639C102.477 21.4943 101.694 22.6255 100.323 22.6255ZM111.678 20.8981C110.351 20.8981 108.971 21.4702 108.403 22.7384L110.033 23.4056C110.384 22.7384 111.029 22.5221 111.711 22.5221C112.664 22.5221 113.631 23.081 113.646 24.068V24.1942C113.313 24.0066 112.602 23.729 111.726 23.729C109.971 23.729 108.182 24.6726 108.182 26.4337C108.182 28.0444 109.62 29.0818 111.236 29.0818C112.472 29.0818 113.154 28.5373 113.583 27.9038H113.646V28.833H115.42V24.2218C115.42 22.0905 113.79 20.8981 111.678 20.8981ZM111.457 27.4855C110.856 27.4855 110.019 27.1946 110.019 26.4673C110.019 25.5369 111.063 25.1799 111.966 25.1799C112.775 25.1799 113.154 25.3542 113.646 25.5838C113.502 26.6969 112.52 27.4855 111.457 27.4855ZM121.884 21.1613L119.772 26.3723H119.709L117.526 21.1613H115.545L118.825 28.4435L116.954 32.4958H118.873L123.928 21.1613H121.884ZM105.325 28.8522H107.167V16.8314H105.325V28.8522Z" fill="white"/>
<path d="M10.2771 7.25171C9.98776 7.54742 9.82031 8.00782 9.82031 8.60406V29.8713C9.82031 30.4676 9.98776 30.9279 10.2771 31.2237L10.3485 31.2886L22.5547 19.3759V19.0946L10.3485 7.18199L10.2771 7.25171Z" fill="url(#paint0_linear)"/>
<path d="M26.6189 23.3486L22.5547 19.3757V19.0945L26.6238 15.1216L26.715 15.1733L31.5339 17.8503C32.9092 18.61 32.9092 19.8602 31.5339 20.6247L26.715 23.2969L26.6189 23.3486Z" fill="url(#paint1_linear)"/>
<path d="M26.7152 23.2973L22.555 19.2355L10.2773 31.2238C10.7341 31.6927 11.479 31.7492 12.3261 31.2803L26.7152 23.2973Z" fill="url(#paint2_linear)"/>
<path d="M26.7152 15.1735L12.3261 7.19048C11.479 6.72647 10.7341 6.78297 10.2773 7.25178L22.555 19.2354L26.7152 15.1735Z" fill="url(#paint3_linear)"/>
<defs>
<linearGradient id="paint0_linear" x1="21.471" y1="30.0928" x2="5.33651" y2="13.5674" gradientUnits="userSpaceOnUse">
<stop stop-color="#00A0FF"/>
<stop offset="0.0066" stop-color="#00A1FF"/>
<stop offset="0.2601" stop-color="#00BEFF"/>
<stop offset="0.5122" stop-color="#00D2FF"/>
<stop offset="0.7604" stop-color="#00DFFF"/>
<stop offset="1" stop-color="#00E3FF"/>
</linearGradient>
<linearGradient id="paint1_linear" x1="33.3247" y1="19.2338" x2="9.49154" y2="19.2338" gradientUnits="userSpaceOnUse">
<stop stop-color="#FFE000"/>
<stop offset="0.4087" stop-color="#FFBD00"/>
<stop offset="0.7754" stop-color="#FFA500"/>
<stop offset="1" stop-color="#FF9C00"/>
</linearGradient>
<linearGradient id="paint2_linear" x1="24.453" y1="17.0274" x2="2.57339" y2="-5.38241" gradientUnits="userSpaceOnUse">
<stop stop-color="#FF3A44"/>
<stop offset="1" stop-color="#C31162"/>
</linearGradient>
<linearGradient id="paint3_linear" x1="7.18681" y1="38.2992" x2="16.957" y2="28.2924" gradientUnits="userSpaceOnUse">
<stop stop-color="#32A071"/>
<stop offset="0.0685" stop-color="#2DA771"/>
<stop offset="0.4762" stop-color="#15CF74"/>
<stop offset="0.8009" stop-color="#06E775"/>
<stop offset="1" stop-color="#00F076"/>
</linearGradient>
</defs>
</svg>
