<svg width="43" height="43" viewBox="0 0 43 43" fill="none" xmlns="http://www.w3.org/2000/svg">
<rect width="43" height="43" rx="6.71875" fill="#1F2D3D"/>
<path fill-rule="evenodd" clip-rule="evenodd" d="M29.5625 21.3116C29.5625 25.0293 27.5827 29.5622 21.6165 29.5622C19.463 29.5765 17.392 28.7354 15.8584 27.2236C14.3248 25.7118 13.4541 23.6531 13.4375 21.4997C13.4541 19.3463 14.3248 17.2876 15.8584 15.7758C17.392 14.264 19.463 13.4229 21.6165 13.4372C23.4714 13.4441 25.2701 14.0752 26.7227 15.2289C26.7724 15.2694 26.8131 15.3198 26.8424 15.3768C26.8717 15.4339 26.8889 15.4963 26.8929 15.5603C26.8932 15.6251 26.8806 15.6893 26.8561 15.7493C26.8315 15.8092 26.7953 15.8637 26.7496 15.9097C26.1664 16.4429 25.6103 17.005 25.0833 17.5939C25.0094 17.6752 24.9077 17.7259 24.7982 17.7358C24.6887 17.7458 24.5795 17.7143 24.4921 17.6476C23.6645 17.0351 22.6545 16.7195 21.6254 16.7518C20.3543 16.7518 19.1353 17.2567 18.2365 18.1555C17.3377 19.0543 16.8327 20.2734 16.8327 21.5445C16.8327 22.8156 17.3377 24.0346 18.2365 24.9334C19.1353 25.8322 20.3543 26.3372 21.6254 26.3372C24.3129 26.3372 25.4506 25.1905 26.0419 23.157H21.9479C21.8291 23.157 21.7152 23.1098 21.6312 23.0258C21.5472 22.9418 21.5 22.8279 21.5 22.7091V20.3351C21.5 20.2163 21.5472 20.1024 21.6312 20.0184C21.7152 19.9344 21.8291 19.8872 21.9479 19.8872H29.1146C29.2142 19.8866 29.3105 19.9228 29.3849 19.989C29.4593 20.0552 29.5066 20.1466 29.5177 20.2455C29.5509 20.5999 29.5659 20.9557 29.5625 21.3116Z" fill="white"/>
</svg>
