<svg width="115" height="88" viewBox="0 0 115 88" fill="none" xmlns="http://www.w3.org/2000/svg">
<g clip-path="url(#clip0)">
<rect width="113.418" height="87.4938" transform="translate(0.683594)" fill="white"/>
<path d="M107.384 9.7136H74.5515V3.92736C74.5515 1.76214 72.7875 0.000976562 70.6225 0.000976562H44.0938C41.9288 0.000976562 40.1678 1.76214 40.1678 3.92736V9.7136H36.211V14.3494H57.3581C58.638 14.3494 59.6773 13.31 59.6773 12.0299C59.6773 10.7499 58.6411 9.71052 57.3581 9.71052H44.8031V4.63676H69.9132V9.7136H66.6318C65.3519 9.7136 64.3126 10.753 64.3126 12.033C64.3126 13.313 65.3488 14.3525 66.6318 14.3525H81.3796V82.859H36.211C36.322 84.3827 36.2079 85.9711 36.211 87.4948H107.384C111.091 87.4948 114.104 84.4783 114.104 80.774V16.4375C114.107 12.7301 111.091 9.7136 107.384 9.7136ZM90.6532 82.5321H86.0148V14.3525H90.6532V82.5321ZM109.469 80.774C109.469 81.9244 108.534 82.859 107.384 82.859H95.2885V14.3525H107.384C108.534 14.3525 109.469 15.287 109.469 16.4375V80.774Z" fill="url(#paint0_linear)"/>
<path d="M0.6875 16.4375V80.774C0.6875 84.4814 3.70367 87.4948 7.40758 87.4948H78.5806C78.5837 85.9711 78.4696 84.3827 78.5806 82.859H33.4151V14.3525H48.1629C49.4428 14.3525 50.4821 13.313 50.4821 12.033C50.4821 10.753 49.4458 9.7136 48.1629 9.7136H44.8815V4.63676H69.9916V9.7136H57.4335C56.1536 9.7136 55.1143 10.753 55.1143 12.033C55.1143 13.313 56.1505 14.3525 57.4335 14.3525H78.5806V9.7136H74.6238V3.92736C74.6238 1.76214 72.8628 0.000976562 70.6978 0.000976562H44.1691C42.0041 0.000976562 40.2431 1.76214 40.2431 3.92736V9.7136H7.40758C3.70367 9.7136 0.6875 12.7301 0.6875 16.4375ZM24.1384 14.3525H28.7767V82.5321H24.1384V14.3525ZM5.32278 16.4375C5.32278 15.287 6.25724 14.3525 7.40758 14.3525H19.5031V82.8621H7.40758C6.25724 82.8621 5.32278 81.9275 5.32278 80.7771V16.4375Z" fill="url(#paint1_linear)"/>
<path d="M48.8294 65.5997H65.958C68.8231 65.5997 71.1546 63.2679 71.1546 60.4026V53.6571C71.1546 50.7917 68.8231 48.46 65.958 48.46H48.8294C45.9643 48.46 43.6328 50.7917 43.6328 53.6571V60.4026C43.6328 63.2679 45.9643 65.5997 48.8294 65.5997ZM48.2681 53.6571C48.2681 53.3487 48.521 53.0957 48.8294 53.0957H65.958C66.2664 53.0957 66.5193 53.3487 66.5193 53.6571V60.4026C66.5193 60.711 66.2664 60.9639 65.958 60.9639H48.8294C48.521 60.9639 48.2681 60.711 48.2681 60.4026V53.6571Z" fill="url(#paint2_linear)"/>
</g>
<defs>
<linearGradient id="paint0_linear" x1="56.413" y1="65.7719" x2="116.934" y2="70.712" gradientUnits="userSpaceOnUse">
<stop offset="0.00906761" stop-color="#00A8E4"/>
<stop offset="0.00916761" stop-color="#00A7E5"/>
<stop offset="0.99861" stop-color="#55D074"/>
</linearGradient>
<linearGradient id="paint1_linear" x1="20.8896" y1="65.7719" x2="81.4103" y2="70.712" gradientUnits="userSpaceOnUse">
<stop offset="0.00906761" stop-color="#00A8E4"/>
<stop offset="0.00916761" stop-color="#00A7E5"/>
<stop offset="0.99861" stop-color="#55D074"/>
</linearGradient>
<linearGradient id="paint2_linear" x1="50.7708" y1="61.3443" x2="71.8402" y2="64.4462" gradientUnits="userSpaceOnUse">
<stop offset="0.00906761" stop-color="#00A8E4"/>
<stop offset="0.00916761" stop-color="#00A7E5"/>
<stop offset="0.99861" stop-color="#55D074"/>
</linearGradient>
<clipPath id="clip0">
<rect width="113.418" height="87.4938" fill="white" transform="translate(0.683594)"/>
</clipPath>
</defs>
</svg>
