<svg width="546" height="523" viewBox="0 0 546 523" fill="none" xmlns="http://www.w3.org/2000/svg">
<g clip-path="url(#clip0)">
<path d="M308.183 520.529C286.912 510.4 278.379 486.437 275.411 464.203C274.916 460.497 273.803 456.668 275.04 453.085C276.277 449.503 279.987 446.662 283.573 447.65C286.541 448.515 288.273 451.48 290.251 453.827C292.848 457.038 296.435 459.385 300.392 460.62C302.989 461.485 305.957 461.732 308.183 460.003C311.028 457.656 310.657 453.209 310.038 449.503C308.802 442.586 307.565 435.792 306.452 428.875C305.834 425.169 305.215 421.463 305.71 417.758C306.205 414.052 308.307 410.346 311.646 408.864C314.985 407.258 319.685 408.617 321.045 412.075C321.663 413.558 321.54 415.164 321.911 416.646C322.282 418.128 323.271 419.734 324.755 419.857C326.239 419.981 327.599 418.746 328.465 417.511C331.681 413.187 333.412 407.876 335.02 402.688C336.627 397.5 338.111 392.188 340.956 387.618C343.676 382.924 348.005 378.971 353.199 377.736C358.393 376.501 364.577 378.848 366.803 383.789C369.029 388.729 366.926 394.535 364.329 399.353C360.495 406.393 355.672 412.94 349.984 418.622C348.994 419.61 347.881 420.722 347.634 422.204C347.263 424.798 349.984 426.898 352.581 427.269C355.425 427.763 358.393 426.898 361.361 426.775C364.329 426.651 367.668 427.392 369.152 429.863C371.255 433.322 368.781 437.892 366.184 440.98C360.866 447.156 354.436 452.468 347.386 456.544C344.789 458.026 342.192 459.385 340.214 461.609C338.359 463.832 337.617 467.414 339.348 469.761C341.079 472.108 344.666 472.355 347.386 471.367C350.107 470.379 352.457 468.402 354.93 466.92C359.63 464.203 366.308 463.338 370.265 467.167C372.862 469.638 373.728 473.714 373.233 477.296C372.739 480.878 371.007 484.213 369.152 487.302C362.598 498.172 353.57 507.559 342.44 513.736C331.309 519.788 320.55 522.753 308.183 520.529Z" fill="#F5F5F5"/>
<path d="M311.523 505.583C312.884 493.848 315.481 481.125 318.573 467.785C319.315 464.45 320.18 461.238 320.922 458.026C321.664 454.815 322.53 451.603 323.396 448.515C325.251 442.339 327.6 436.533 329.95 431.222C332.3 425.787 334.65 420.722 336.999 416.028C339.349 411.334 341.575 407.011 343.677 403.058C348.006 395.276 352.334 389.471 355.426 385.518C356.91 383.542 358.27 382.059 359.012 381.071C359.383 380.577 359.754 380.207 360.002 379.959C360.249 379.712 360.373 379.589 360.373 379.589C360.373 379.589 360.249 379.712 360.125 379.959C359.878 380.207 359.631 380.577 359.136 381.071C358.27 382.059 357.157 383.542 355.55 385.518C352.582 389.471 348.377 395.276 344.048 403.058C341.822 406.888 339.72 411.334 337.37 416.028C335.144 420.722 332.671 425.787 330.445 431.222C328.095 436.657 325.869 442.339 324.014 448.515C323.025 451.603 322.283 454.691 321.541 457.903C320.799 461.115 319.933 464.45 319.191 467.661C316.099 480.878 313.502 493.601 312.018 505.336" fill="#E0E0E0"/>
<path d="M323.767 448.515C323.767 448.515 323.519 448.021 323.148 447.033C322.777 446.045 322.283 444.563 321.788 442.833C320.675 439.251 319.191 434.31 317.707 428.752C316.223 423.193 314.739 418.252 313.502 414.67C312.884 412.941 312.389 411.458 312.018 410.47C311.647 409.482 311.523 408.864 311.523 408.864C311.523 408.864 311.771 409.358 312.265 410.347C312.636 411.335 313.255 412.693 313.873 414.423C315.234 418.005 316.718 422.946 318.325 428.381C319.809 433.816 321.17 438.757 322.159 442.463C322.654 444.192 323.025 445.551 323.396 446.786C323.643 447.898 323.767 448.515 323.767 448.515Z" fill="#E0E0E0"/>
<path d="M369.646 431.593C369.646 431.593 369.027 431.84 367.791 432.087C366.554 432.457 364.822 432.828 362.72 433.446C358.515 434.681 352.579 436.534 346.272 438.881C339.965 441.228 334.276 443.575 330.195 445.427C328.216 446.292 326.609 447.157 325.372 447.651C324.259 448.145 323.641 448.516 323.641 448.392C323.641 448.392 324.259 448.021 325.248 447.404C326.361 446.786 327.969 445.922 329.948 444.933C333.905 442.957 339.594 440.487 345.901 438.14C352.208 435.793 358.144 433.94 362.473 432.952C364.575 432.334 366.43 431.963 367.543 431.84C369.027 431.716 369.646 431.593 369.646 431.593Z" fill="#E0E0E0"/>
<path d="M312.019 504.595C312.019 504.595 311.895 504.471 311.648 504.101C311.4 503.73 311.029 503.113 310.534 502.495C309.545 501.136 308.308 499.16 306.701 496.566C303.485 491.501 299.281 484.461 294.705 476.555C290.129 468.649 286.048 461.485 282.956 456.421C281.472 453.95 280.236 451.85 279.246 450.368C278.875 449.75 278.504 449.133 278.257 448.762C278.009 448.392 277.886 448.145 278.009 448.145C278.009 448.145 278.133 448.268 278.38 448.639C278.628 449.009 278.999 449.627 279.493 450.244C280.483 451.603 281.72 453.58 283.327 456.174C286.543 461.238 290.747 468.279 295.323 476.184C299.899 484.09 303.98 491.254 307.072 496.319C308.556 498.789 309.792 500.889 310.782 502.372C311.153 502.989 311.524 503.607 311.771 503.977C311.895 504.471 312.019 504.595 312.019 504.595Z" fill="#E0E0E0"/>
<path d="M371.626 473.714C371.626 473.714 371.378 473.837 371.007 474.084C370.512 474.331 370.018 474.579 369.276 474.949C367.668 475.814 365.566 476.926 362.845 478.284C357.404 481.125 350.107 485.078 341.945 489.401C333.783 493.848 326.363 497.677 320.921 500.395C318.2 501.754 315.974 502.865 314.49 503.483C313.748 503.854 313.13 504.101 312.759 504.348C312.388 504.471 312.141 504.595 312.141 504.595C312.141 504.595 312.388 504.471 312.759 504.224C313.254 503.977 313.748 503.73 314.49 503.36C316.098 502.495 318.2 501.383 320.921 500.024C326.363 497.183 333.659 493.231 341.821 488.907C349.983 484.46 357.404 480.631 362.845 477.914C365.566 476.555 367.792 475.443 369.276 474.826C370.018 474.455 370.636 474.208 371.007 473.961C371.378 473.714 371.626 473.714 371.626 473.714Z" fill="#E0E0E0"/>
<path d="M153.594 255.324C153.594 255.324 138.878 257.424 147.164 289.541C155.449 321.657 162.375 338.209 162.375 338.209C162.375 338.209 163.488 345.497 157.552 345.25C151.616 345.003 139.743 340.309 135.662 346.609C131.458 353.155 135.168 361.061 144.319 369.337C153.594 377.613 173.01 396.512 174.866 398.242C176.597 399.971 177.957 403.43 173.876 403.924C169.795 404.418 141.227 401.083 140.485 414.67C139.743 428.381 169.177 447.157 172.392 449.257C175.608 451.357 176.102 453.086 175.36 454.939C174.618 456.792 165.096 454.692 156.933 454.074C148.771 453.457 139.125 454.198 139.372 462.103C139.62 470.009 155.078 490.02 200.218 504.843L221.613 510.401L237.442 494.837C269.225 459.509 272.688 434.434 268.978 427.517C265.268 420.599 256.611 424.676 249.809 429.246C243.007 433.816 235.834 440.363 234.227 439.128C232.743 437.893 232.248 436.163 233.979 432.705C235.711 429.246 251.912 398.242 244.368 386.877C236.948 375.39 213.698 392.559 209.988 394.042C206.278 395.648 205.659 391.818 206.278 389.595C206.896 387.248 214.44 361.184 218.397 349.326C222.231 337.591 221.489 328.821 214.563 325.239C207.885 321.78 199.847 331.786 194.9 334.997C189.953 338.085 187.232 331.292 187.232 331.292C187.232 331.292 185.006 313.381 176.226 281.511C167.445 249.519 153.347 255.201 153.347 255.201" fill="#EBEBEB"/>
<path d="M221.49 515.96C215.059 492.49 204.424 450.492 195.148 414.423C185.749 378.478 177.34 345.867 171.033 322.274C167.941 310.54 165.344 301.028 163.613 294.358C162.747 291.146 162.005 288.552 161.634 286.823C161.387 285.958 161.263 285.341 161.139 284.847C161.016 284.353 161.016 284.105 161.016 284.105C161.016 284.105 161.139 284.353 161.263 284.723C161.387 285.217 161.634 285.835 161.881 286.699C162.376 288.429 163.118 291.023 163.984 294.234C165.839 300.781 168.436 310.293 171.651 322.027C178.082 345.497 186.615 378.107 195.89 414.053C205.289 449.998 215.801 492.12 222.108 515.589" fill="#E0E0E0"/>
<path d="M152.109 354.021C152.109 354.021 152.604 354.268 153.47 354.762C154.335 355.256 155.572 356.12 157.18 357.109C160.272 359.085 164.476 361.926 169.052 365.138C173.504 368.349 177.585 371.19 180.677 373.414C182.037 374.402 183.274 375.267 184.263 375.884C185.129 376.502 185.5 376.872 185.5 376.872C185.5 376.872 185.005 376.625 184.14 376.131C183.274 375.637 182.037 374.773 180.43 373.784C177.338 371.808 173.257 368.843 168.681 365.632C164.229 362.42 160.148 359.579 156.932 357.356C155.572 356.367 154.335 355.503 153.346 354.885C152.604 354.391 152.109 354.021 152.109 354.021Z" fill="#E0E0E0"/>
<path d="M187.358 375.884C187.234 375.76 192.675 366.866 199.601 355.996C206.526 345.126 212.339 336.479 212.462 336.479C212.586 336.603 207.145 345.497 200.219 356.367C193.294 367.237 187.481 375.884 187.358 375.884Z" fill="#E0E0E0"/>
<path d="M199.227 431.716C199.227 431.716 199.598 431.222 200.34 430.604C201.205 429.863 202.318 428.875 203.679 427.64C206.523 425.169 210.357 421.711 214.438 417.881C218.519 413.929 222.229 410.223 224.826 407.629C226.063 406.394 227.052 405.282 227.918 404.417C228.66 403.676 229.031 403.306 229.155 403.306C229.155 403.306 228.784 403.8 228.165 404.541C227.547 405.282 226.557 406.517 225.197 407.876C222.724 410.594 219.137 414.423 214.933 418.376C210.851 422.328 206.894 425.664 203.926 428.01C202.442 429.246 201.329 430.11 200.463 430.728C199.721 431.469 199.227 431.84 199.227 431.716Z" fill="#E0E0E0"/>
<path d="M162.992 418.993C162.992 418.993 163.487 419.117 164.476 419.364C165.589 419.734 166.826 420.105 168.434 420.599C171.773 421.587 176.225 423.193 181.295 424.799C186.242 426.528 190.818 428.01 194.033 429.246C195.517 429.863 196.878 430.234 197.867 430.604C198.733 430.975 199.227 431.222 199.227 431.222C199.227 431.222 198.733 431.098 197.743 430.851C196.63 430.481 195.394 430.11 193.786 429.616C190.447 428.628 185.995 427.022 180.924 425.416C175.977 423.687 171.402 422.205 168.186 420.97C166.702 420.352 165.342 419.981 164.353 419.611C163.487 419.24 162.992 418.993 162.992 418.993Z" fill="#E0E0E0"/>
<path d="M167.199 469.762C167.199 469.762 167.818 469.885 169.054 470.256C170.415 470.626 172.022 471.12 174.125 471.738C178.329 473.097 184.142 474.95 190.573 477.05C197.004 479.15 202.816 481.126 207.021 482.485C208.999 483.226 210.731 483.72 211.968 484.214C213.081 484.585 213.823 484.955 213.699 484.955C213.699 484.955 213.081 484.832 211.844 484.461C210.483 484.091 208.876 483.596 206.773 482.979C202.569 481.62 196.756 479.767 190.325 477.667C183.895 475.567 178.082 473.591 173.877 472.232C171.899 471.491 170.167 470.997 168.931 470.503C167.818 470.009 167.199 469.762 167.199 469.762Z" fill="#E0E0E0"/>
<path d="M212.707 484.214C212.707 484.214 213.202 483.597 214.191 482.732C215.304 481.744 216.664 480.385 218.272 478.903C221.735 475.691 226.434 471.121 231.628 466.056C236.699 460.992 241.275 456.174 244.49 452.716C246.098 451.11 247.334 449.628 248.324 448.64C249.189 447.651 249.808 447.157 249.808 447.157C249.808 447.157 249.437 447.775 248.571 448.763C247.705 449.751 246.469 451.234 244.861 452.963C241.769 456.545 237.194 461.362 232.123 466.427C227.053 471.615 222.23 476.062 218.643 479.15C216.912 480.756 215.428 481.991 214.438 482.856C213.325 483.844 212.707 484.338 212.707 484.214Z" fill="#E0E0E0"/>
<path d="M89.7818 63.7389L77.6623 60.0332C77.6623 60.0332 74.4469 70.1621 63.935 67.074C58.4935 65.4682 56.7621 61.0214 56.3911 57.9333C56.0201 54.3511 57.6278 50.8924 60.3486 48.4219C63.4403 45.7044 68.8817 43.9751 76.5492 47.9278L85.0824 20.7526L73.2102 17.0469L68.2634 32.9815C68.2634 32.9815 50.2077 32.1168 44.3952 50.5218C38.8301 68.1858 53.4231 77.203 60.2249 79.3029C65.2953 80.7852 83.351 84.985 89.7818 63.7389Z" fill="#F5F5F5"/>
<path d="M74.6763 11.3L86.8359 15.0889L90.3715 3.76895L78.2119 -0.0199525L74.6763 11.3Z" fill="#F5F5F5"/>
<path d="M123.051 32.9807L127.874 31.7454C127.874 31.7454 126.761 27.6692 130.965 26.5574C133.191 25.9398 134.675 27.0515 135.418 28.0397C136.283 29.1514 136.531 30.6337 136.16 31.9925C135.665 33.5983 134.181 35.2041 130.842 35.5747L133.686 46.4448L138.509 45.2095L136.778 38.7863C136.778 38.7863 143.085 35.3276 141.106 27.9162C139.251 20.8753 132.449 20.8753 129.729 21.6165C127.626 22.1106 120.701 24.4575 123.051 32.9807Z" fill="#EBEBEB"/>
<path d="M139.18 47.3389L134.277 48.6309L135.476 53.1694L140.379 51.8774L139.18 47.3389Z" fill="#EBEBEB"/>
<path d="M522.254 157.987L526.953 159.716C526.953 159.716 528.437 155.763 532.519 157.246C534.621 157.987 535.239 159.716 535.363 160.951C535.487 162.434 534.745 163.793 533.632 164.657C532.395 165.645 530.169 166.263 527.201 164.534L523.367 175.157L528.066 176.886L530.292 170.71C530.292 170.71 537.465 171.327 540.062 164.163C542.536 157.246 536.971 153.417 534.374 152.552C532.271 151.687 525.222 149.711 522.254 157.987Z" fill="#EBEBEB"/>
<path d="M527.345 179.01L522.578 177.285L520.977 181.698L525.745 183.423L527.345 179.01Z" fill="#EBEBEB"/>
<path d="M23.4953 211.72L33.3888 207.89C33.3888 207.89 30.1734 199.491 38.8303 196.032C43.2823 194.179 46.7451 196.279 48.6001 198.132C50.7025 200.355 51.5682 203.444 50.9498 206.408C50.3315 209.867 47.6108 213.82 40.438 215.178L49.0948 237.536L58.9883 233.707L53.9179 220.613C53.9179 220.613 66.2848 211.72 60.4724 196.526C54.9073 181.95 40.5616 183.68 34.9965 185.78C30.6681 187.756 16.5698 194.303 23.4953 211.72Z" fill="#F5F5F5"/>
<path d="M60.9201 238.533L50.9961 242.352L54.5973 251.688L64.5213 247.869L60.9201 238.533Z" fill="#F5F5F5"/>
<path d="M526.087 249.519L519.038 252.236C519.038 252.236 521.264 258.166 515.205 260.636C511.989 261.871 509.516 260.512 508.279 259.154C506.795 257.548 506.177 255.324 506.548 253.225C507.042 250.754 508.897 248.037 513.968 247.048L507.784 231.237L500.859 233.955L504.445 243.219C504.445 243.219 495.665 249.519 499.746 260.265C503.703 270.518 513.844 269.406 517.802 267.924C521.017 266.565 531.034 261.871 526.087 249.519Z" fill="#F5F5F5"/>
<path d="M499.664 230.486L506.703 227.777L504.169 221.208L497.13 223.916L499.664 230.486Z" fill="#F5F5F5"/>
<path d="M545.999 522.629C545.999 522.753 423.69 523 272.937 523C122.06 523 -0.125 522.876 -0.125 522.629C-0.125 522.382 122.06 522.259 272.937 522.259C423.813 522.259 545.999 522.382 545.999 522.629Z" fill="#263238"/>
<path d="M78.4039 490.514C79.517 485.943 76.5489 481.373 73.2098 478.161C69.8708 474.826 65.9133 471.861 64.182 467.538C61.3376 460.497 65.1713 451.357 60.3482 445.427C57.5038 441.969 52.4334 440.857 49.96 437.151C48.5996 435.175 48.2286 432.828 47.7339 430.481C45.1369 418.87 39.2008 407.876 31.0386 399.229C30.4202 409.605 32.77 420.105 37.5931 429.369C39.5718 433.075 41.9215 436.657 42.5398 440.857C43.5292 447.527 39.8191 454.445 41.4268 461.115C43.2818 468.65 51.815 473.714 52.186 481.496C52.557 488.043 46.7446 493.849 47.2393 500.396C47.3629 503.237 48.7233 505.831 50.2073 508.177C55.2778 516.577 62.6979 522.383 74.0755 522.259L87.8028 522.506L78.4039 490.514Z" fill="#51CA89"/>
<g opacity="0.3">
<g opacity="0.3">
<g opacity="0.3">
<g opacity="0.3">
<path opacity="0.3" d="M78.4039 490.514C79.517 485.943 76.5489 481.373 73.2098 478.161C69.8708 474.826 65.9133 471.861 64.182 467.538C61.3376 460.497 65.1713 451.357 60.3482 445.427C57.5038 441.969 52.4334 440.857 49.96 437.151C48.5996 435.175 48.2286 432.828 47.7339 430.481C45.1369 418.87 39.2008 407.876 31.0386 399.229C30.4202 409.605 32.77 420.105 37.5931 429.369C39.5718 433.075 41.9215 436.657 42.5398 440.857C43.5292 447.527 39.8191 454.445 41.4268 461.115C43.2818 468.65 51.815 473.714 52.186 481.496C52.557 488.043 46.7446 493.849 47.2393 500.396C47.3629 503.237 48.7233 505.831 50.2073 508.177C55.2778 516.577 62.6979 522.383 74.0755 522.259L87.8028 522.506L78.4039 490.514Z" fill="black"/>
</g>
</g>
</g>
</g>
<path d="M90.6471 522.877C90.6471 522.877 92.0075 523.124 94.4809 522.753C95.7176 522.63 97.2016 522.259 98.933 521.642C100.664 521.024 102.643 520.159 104.498 518.554C105.364 517.812 106.353 516.824 106.724 515.465C107.219 514.23 107.342 512.748 107.342 511.389C107.466 509.907 107.466 508.425 107.713 506.942C107.961 505.46 108.579 503.978 109.445 502.495C111.053 499.654 113.773 496.937 114.639 492.984C115.628 489.155 114.886 485.079 114.268 480.879C113.65 476.679 113.031 472.232 114.639 467.909C116.123 463.585 119.215 459.633 120.699 454.815C122.183 449.874 121.564 444.563 121.812 439.375C121.935 436.781 122.43 434.187 123.667 431.716C124.78 429.246 126.388 426.899 127.501 424.428C129.974 419.24 130.345 413.311 131.087 407.506C131.458 404.541 131.705 401.7 132.076 398.612C132.447 395.647 132.695 392.683 133.56 389.718C134.426 386.877 135.663 384.036 136.899 381.195C137.518 379.713 138.136 378.354 138.507 376.748C138.754 375.142 138.878 373.537 139.002 371.931C139.125 368.719 139.002 365.507 138.631 362.296C138.26 359.084 137.641 355.996 137.394 352.785C137.394 352.538 137.394 352.414 137.27 352.29L137.147 351.673L136.528 351.92C133.56 353.402 130.963 355.626 129.108 358.22C127.13 360.814 125.646 363.655 124.533 366.619C122.183 372.548 121.441 378.848 120.204 384.777C119.091 390.706 117.607 396.512 114.515 401.453C113.031 403.923 111.176 406.147 109.569 408.617C107.961 410.964 106.6 413.682 106.106 416.523C105.24 422.328 108.456 427.516 107.837 432.704C107.59 435.298 106.6 437.645 105.364 439.869C104.127 442.092 102.643 444.069 101.283 446.169C99.9223 448.268 98.562 450.368 97.5726 452.592C96.5833 454.815 95.9649 457.162 95.8412 459.509C95.4702 464.203 96.2123 468.65 95.8412 472.726C95.5939 476.926 94.1099 480.755 92.3785 484.09C90.6471 487.549 88.7921 490.514 87.3081 493.602C86.566 495.084 85.824 496.566 85.2057 498.049C84.5873 499.531 84.2163 501.013 83.969 502.372C83.4743 505.213 83.598 507.931 83.8453 510.277C84.4637 514.971 86.195 518.43 87.8027 520.406C88.1737 520.9 88.5448 521.271 88.9158 521.642C89.2868 522.012 89.5341 522.259 89.7814 522.383C90.3998 522.753 90.6471 522.877 90.6471 522.877C90.6471 522.753 89.5341 522.136 87.9264 520.283C86.4424 518.307 84.711 514.971 84.2163 510.277C83.969 507.931 83.969 505.336 84.34 502.495C84.5873 501.137 84.9583 499.654 85.5767 498.172C86.195 496.69 86.9371 495.331 87.6791 493.849C89.2868 490.884 91.1418 487.796 92.8732 484.461C94.6045 481.002 96.0886 477.173 96.4596 472.85C96.8306 468.526 96.2122 464.203 96.5833 459.633C96.7069 457.409 97.3253 455.062 98.191 452.962C99.1803 450.862 100.417 448.763 101.901 446.663C103.261 444.563 104.745 442.586 106.106 440.363C107.342 438.14 108.456 435.669 108.703 432.952C109.321 427.393 106.106 422.205 106.971 416.77C107.342 414.052 108.703 411.582 110.311 409.235C111.918 406.888 113.773 404.665 115.257 402.071C118.349 397.006 119.957 391.077 121.07 385.024C122.306 379.095 123.048 372.919 125.398 367.113C126.511 364.272 127.995 361.431 129.85 358.961C131.705 356.49 134.179 354.39 137.023 352.908L136.405 352.537C136.405 352.661 136.405 352.908 136.528 353.155C136.899 356.367 137.394 359.578 137.765 362.666C138.136 365.878 138.26 368.966 138.136 372.054C138.012 373.537 138.012 375.266 137.765 376.625C137.394 378.107 136.776 379.466 136.157 380.948C134.921 383.789 133.684 386.63 132.818 389.595C131.829 392.559 131.582 395.647 131.211 398.612C130.84 401.576 130.592 404.541 130.221 407.506C129.603 413.311 129.108 419.117 126.759 424.181C125.646 426.652 124.038 428.999 122.925 431.469C121.688 433.94 121.193 436.781 121.07 439.375C120.822 444.686 121.441 449.874 119.957 454.692C118.473 459.386 115.505 463.338 114.021 467.785C112.413 472.356 113.031 476.926 113.773 481.126C114.392 485.326 115.134 489.402 114.268 492.984C113.526 496.69 110.805 499.407 109.198 502.372C108.332 503.854 107.713 505.46 107.466 506.942C107.219 508.548 107.219 510.03 107.219 511.513C107.095 512.995 107.095 514.354 106.6 515.589C106.106 516.824 105.364 517.689 104.498 518.554C102.643 520.036 100.788 521.024 99.0566 521.642C97.3253 522.259 95.8412 522.63 94.6046 522.877C93.3679 523.124 92.3785 523.124 91.7602 523.124C91.0181 522.877 90.6471 522.877 90.6471 522.877Z" fill="#263238"/>
<path d="M134.425 359.949C134.425 359.949 134.425 360.073 134.301 360.32C134.177 360.69 134.177 361.061 134.054 361.555C133.806 362.667 133.435 364.273 132.941 366.372C132.446 368.472 131.086 370.696 130.096 373.537C128.983 376.378 127.87 379.713 126.757 383.295C125.644 387.001 124.779 391.077 123.789 395.524C122.8 399.847 121.811 404.541 119.337 408.988C118.224 411.212 116.864 413.559 115.874 416.029C114.885 418.5 114.267 421.217 113.896 423.935C113.277 429.37 112.164 434.928 110.928 440.61C108.207 451.975 105.486 462.721 103.136 472.603C100.663 482.361 98.437 491.255 96.582 498.667C94.7269 506.078 93.2429 512.007 92.2536 516.207C91.7589 518.183 91.3879 519.789 91.1405 521.024C91.0169 521.518 90.8932 521.889 90.8932 522.26C90.8932 522.507 90.7695 522.63 90.7695 522.754C90.7695 522.754 90.8932 522.63 90.8932 522.383C91.0169 522.013 91.1405 521.642 91.2642 521.148C91.6352 520.036 92.0062 518.43 92.6246 516.454C93.7376 512.254 95.3453 506.325 97.2003 498.914C99.179 491.502 101.405 482.732 104.002 472.85C106.476 462.968 109.073 452.222 111.917 440.857C113.277 435.175 114.267 429.493 114.885 424.058C115.256 421.341 115.751 418.747 116.864 416.276C117.853 413.806 119.09 411.582 120.203 409.359C122.676 404.788 123.666 399.971 124.655 395.648C125.644 391.201 126.51 387.124 127.499 383.542C128.489 379.837 129.602 376.625 130.591 373.784C131.58 370.943 132.817 368.596 133.312 366.496C133.806 364.396 134.054 362.79 134.301 361.679C134.425 361.184 134.425 360.69 134.548 360.443C134.425 360.073 134.425 359.949 134.425 359.949Z" fill="#263238"/>
<path d="M93.122 523.001C102.15 517.689 104.747 501.384 101.037 491.502C97.2031 481.744 90.6486 472.727 89.6593 462.227C88.9173 454.198 91.5143 445.922 89.6593 438.016C87.1859 427.393 76.7977 419.241 76.9214 408.247C77.045 402.071 80.5078 396.389 80.1368 390.213C79.7657 382.678 74.077 376.749 70.4905 370.202C65.0491 360.073 64.6781 348.091 62.823 336.85C60.968 325.486 56.6396 313.381 46.6224 307.822C45.1383 317.457 42.5413 324.004 43.407 337.097C43.6543 341.791 49.0958 350.685 49.8378 361.061C50.3324 367.237 50.5798 373.29 50.9508 379.466C51.3218 385.395 51.6928 391.571 53.7952 397.13C55.4029 401.453 58.1236 405.283 59.2366 409.729C61.5864 418.006 58.4946 427.023 60.3497 435.422C61.9574 442.587 66.9041 448.763 67.8935 455.927C69.2539 466.056 62.6994 476.679 66.0385 486.314C67.7698 491.132 71.7272 494.961 72.8403 499.902C73.7059 503.731 72.7166 507.807 73.5823 511.76C74.819 518.06 86.8149 522.877 93.122 522.507" fill="#51CA89"/>
<path d="M48.9726 317.457C48.9726 317.457 48.9726 317.704 48.9726 317.951C48.9726 318.322 49.0962 318.816 49.2199 319.557C49.4672 320.916 49.7146 323.016 50.0856 325.61C50.5803 328.204 51.9406 331.292 53.0537 334.874C54.1667 338.456 55.4034 342.656 56.3927 347.226C57.3821 351.92 58.2478 356.985 59.2371 362.543C60.2265 367.978 61.0922 374.031 63.8129 379.837C65.0496 382.678 66.5336 385.642 67.523 388.73C68.636 391.818 69.1307 395.154 69.378 398.489C69.8727 405.283 70.7384 412.447 71.9751 419.488C74.6958 433.693 77.4165 447.281 79.7662 459.633C82.2396 471.985 84.5893 482.979 86.4444 492.367C88.4231 501.631 89.9071 509.166 91.0201 514.478C91.5148 517.072 92.0095 519.048 92.3805 520.407C92.5042 521.024 92.6278 521.519 92.7515 522.013C92.8752 522.383 92.8752 522.507 92.8752 522.507C92.8752 522.507 92.8752 522.26 92.7515 522.013C92.6278 521.642 92.6278 521.148 92.5042 520.407C92.2568 518.924 91.8858 516.948 91.3911 514.354C90.4018 509.043 88.9178 501.508 87.0627 492.243C85.2077 482.856 82.9816 471.738 80.5082 459.51C78.1585 447.157 75.5615 433.569 72.7171 419.364C71.4804 412.2 70.491 405.283 69.9964 398.365C69.6253 394.907 69.1307 391.571 68.0176 388.36C66.9046 385.272 65.4206 382.307 64.1839 379.466C61.4632 373.784 60.4738 367.855 59.4845 362.42C58.4951 356.861 57.6294 351.797 56.5164 347.103C55.4034 342.409 54.2904 338.333 53.0537 334.75C51.9406 331.168 50.4566 328.204 49.9619 325.61C49.4673 323.016 49.0962 320.916 48.8489 319.557C48.7252 318.939 48.6016 318.445 48.6016 317.951C48.9726 317.581 48.9726 317.457 48.9726 317.457Z" fill="#263238"/>
<path d="M485.032 59.4156H480.085C480.085 59.4156 480.085 63.4919 475.757 63.6154C473.531 63.6154 472.418 62.1331 471.923 61.0214C471.429 59.6626 471.552 58.3039 472.294 57.0686C473.16 55.7099 475.015 54.4746 478.23 54.9687V43.8516H473.407V50.3983C473.407 50.3983 466.605 52.1277 466.605 59.6626C466.605 66.827 473.036 68.5563 475.881 68.5563C477.983 68.5563 485.156 68.0623 485.032 59.4156Z" fill="#51CA89"/>
<path d="M473.424 41.6758H478.371V37.1054H473.424V41.6758Z" fill="#51CA89"/>
<path d="M511.991 52.8687C511.991 52.8687 511.991 52.6216 511.991 52.2511C511.991 51.757 511.991 51.1394 511.991 50.3982C511.991 50.0276 511.991 49.5335 511.991 49.0394C511.868 48.5453 511.868 48.0513 511.744 47.4336C511.62 46.816 511.62 46.1984 511.497 45.5808C511.373 44.9632 511.126 44.222 511.002 43.4809C510.26 40.5163 508.9 36.9341 506.55 33.2284C504.2 29.5227 500.861 25.817 496.285 22.7289C491.71 19.6408 485.897 17.4173 479.466 16.7997C477.859 16.7997 476.251 16.5527 474.52 16.6762C473.654 16.6762 472.788 16.6762 472.046 16.7997C471.181 16.9232 470.315 17.0468 469.449 17.1703C466.11 17.9114 462.647 18.8996 459.432 20.629C456.217 22.3583 453.125 24.4582 450.404 27.1757C447.683 29.8932 445.457 33.1049 443.602 36.5635C441.747 40.1457 440.511 43.975 440.016 48.0513C439.769 49.0394 439.769 50.1512 439.769 51.1394C439.645 52.1275 439.645 53.2393 439.769 54.2274C439.892 56.3274 440.14 58.4273 440.511 60.4036C441.5 64.8505 443.231 69.0503 445.705 72.756V72.3855C443.973 76.7088 442.242 80.9086 440.634 84.9849L440.387 85.726L441.129 85.479C445.705 84.2437 450.28 83.0085 454.609 81.7733L454.238 81.6497C458.937 85.2319 464.255 87.4554 469.697 88.32C472.417 88.8141 475.014 88.9377 477.611 88.8141C478.848 88.8141 480.208 88.6906 481.445 88.4436C482.063 88.32 482.682 88.1965 483.3 88.1965C483.918 88.073 484.537 87.9495 485.032 87.7024C494.554 85.2319 501.48 79.4263 505.561 73.6207C507.663 70.7796 509.023 67.8151 510.013 65.2211C510.26 64.6035 510.507 63.9858 510.631 63.3682C510.755 62.7506 511.002 62.133 511.126 61.6389C511.249 61.0213 511.373 60.5272 511.497 60.0331C511.62 59.539 511.62 59.0449 511.744 58.5508C511.868 57.5626 511.991 56.8214 512.115 56.0803C512.115 55.3392 512.115 54.7215 512.239 54.2274C512.239 53.7334 512.239 53.3628 512.239 53.1157C512.115 52.9922 512.115 52.8687 511.991 52.8687C511.991 52.8687 511.991 52.9922 511.991 53.2393C511.991 53.4863 511.991 53.8569 511.868 54.351C511.868 54.8451 511.744 55.4627 511.744 56.2038C511.744 56.945 511.497 57.8096 511.373 58.6743C510.631 62.38 509.271 67.9386 505.066 73.6207C501.109 79.3028 494.059 84.9849 484.784 87.3318C484.166 87.4554 483.671 87.7024 483.053 87.7024C482.434 87.8259 481.816 87.8259 481.198 87.9495C479.961 88.1965 478.724 88.1965 477.488 88.32C475.014 88.4436 472.417 88.32 469.697 87.8259C464.502 86.8378 459.185 84.6143 454.609 81.1556L454.485 81.0321H454.362C450.033 82.2674 445.457 83.5026 440.882 84.7378L441.376 85.2319C442.984 81.1557 444.715 76.9558 446.447 72.6325L446.57 72.3855L446.447 72.2619C444.097 68.6797 442.242 64.4799 441.376 60.1566C441.005 58.1802 440.634 56.0803 440.634 54.1039C440.634 53.1157 440.634 52.1275 440.634 51.0158C440.634 50.0276 440.634 49.0394 440.882 48.0513C441.376 44.0985 442.613 40.2692 444.344 36.8106C446.076 33.3519 448.302 30.2638 451.022 27.5463C453.743 24.9523 456.711 22.7289 459.803 21.123C462.895 19.3937 466.357 18.4055 469.573 17.7879C470.439 17.6644 471.181 17.5409 472.046 17.4173C472.912 17.2938 473.654 17.2938 474.52 17.2938C476.127 17.1703 477.735 17.2938 479.343 17.4173C485.65 18.035 491.339 20.2584 495.914 23.223C500.49 26.1875 503.829 29.8932 506.179 33.4754C508.529 37.0576 509.889 40.6398 510.755 43.4809C511.002 44.222 511.126 44.9632 511.249 45.5808C511.373 46.1984 511.497 46.816 511.497 47.4336C511.62 48.0513 511.62 48.5453 511.744 49.0394C511.744 49.5335 511.868 50.0276 511.868 50.3982C511.868 51.1394 511.991 51.757 511.991 52.2511C511.991 52.6216 511.991 52.8687 511.991 52.8687Z" fill="#263238"/>
<path d="M143.208 198.503H214.688C214.688 198.503 214.688 138.594 277.018 137.483C309.419 136.865 326.114 158.111 333.04 174.293C340.955 193.192 338.605 214.561 327.97 232.102C315.85 252.113 289.756 272.124 241.648 263.6L241.154 422.576H311.645V328.327C311.645 328.327 410.704 302.757 410.704 193.686C410.704 89.3083 326.238 66.8269 280.852 65.3446C255.623 64.48 246.471 63.4918 215.183 67.9386C175.485 73.6207 142.466 119.819 143.208 198.503Z" fill="#51CA89"/>
<path d="M312.634 455.804H240.906V522.63H312.634V455.804Z" fill="#51CA89"/>
<path opacity="0.1" d="M312.634 455.804H240.906V522.63H312.634V455.804Z" fill="black"/>
<path opacity="0.1" d="M143.208 198.503H214.688C214.688 198.503 214.688 138.594 277.018 137.483C309.419 136.865 326.114 158.111 333.04 174.293C340.955 193.192 338.605 214.561 327.97 232.102C315.85 252.113 289.756 272.124 241.648 263.6L241.154 422.576H311.645V328.327C311.645 328.327 410.704 302.757 410.704 193.686C410.704 89.3083 326.238 66.8269 280.852 65.3446C255.623 64.48 246.471 63.4918 215.183 67.9386C175.485 73.6207 142.466 119.819 143.208 198.503Z" fill="black"/>
<path d="M113.65 198.503H185.131C185.131 198.503 185.131 138.594 247.46 137.483C279.861 136.865 296.557 158.111 303.482 174.293C311.397 193.192 309.047 214.562 298.412 232.102C286.292 252.113 259.703 270.147 211.596 261.748V422.576H282.211V328.327C282.211 328.327 381.27 302.758 381.27 193.686C381.27 89.3083 287.653 65.0977 247.46 65.0977C216.79 65.2212 112.29 72.6326 113.65 198.503Z" fill="#51CA89"/>
<path opacity="0.3" d="M113.65 198.503H185.131C185.131 198.503 185.131 138.594 247.46 137.483C279.861 136.865 296.557 158.111 303.482 174.293C311.397 193.192 309.047 214.562 298.412 232.102C286.292 252.113 259.703 270.147 211.596 261.748V422.576H282.211V328.327C282.211 328.327 381.27 302.758 381.27 193.686C381.27 89.3083 287.653 65.0977 247.46 65.0977C216.79 65.2212 112.29 72.6326 113.65 198.503Z" fill="black"/>
<path d="M283.076 455.804H211.348V522.63H283.076V455.804Z" fill="#51CA89"/>
<path opacity="0.3" d="M283.076 455.804H211.348V522.63H283.076V455.804Z" fill="black"/>
<path d="M255.498 137.853C255.498 137.853 255.127 137.853 254.385 137.73C253.643 137.73 252.654 137.483 251.293 137.483C248.696 137.359 244.739 137.359 240.039 137.977C235.34 138.594 229.775 139.706 223.839 141.806C220.87 142.918 217.779 144.029 214.811 145.635C211.719 147.117 208.751 149.094 206.03 151.317C203.186 153.541 200.836 156.258 198.857 158.976C196.755 161.693 195.024 164.411 193.416 167.128C190.324 172.563 188.345 177.875 186.985 182.445C185.625 187.016 185.13 190.845 184.883 193.439C184.759 194.798 184.635 195.786 184.635 196.527C184.635 197.268 184.512 197.639 184.512 197.639C184.512 197.639 184.512 197.268 184.512 196.527C184.512 195.786 184.512 194.798 184.635 193.439C184.759 190.845 185.377 186.892 186.614 182.322C187.851 177.751 189.953 172.44 192.921 166.881C194.529 164.164 196.26 161.323 198.363 158.605C200.465 155.888 202.815 153.17 205.659 150.823C208.504 148.476 211.472 146.623 214.563 145.018C217.655 143.412 220.747 142.176 223.715 141.188C229.651 139.212 235.34 137.977 240.039 137.483C244.739 136.988 248.696 136.988 251.293 137.236C252.654 137.236 253.643 137.483 254.385 137.606C255.127 137.73 255.498 137.853 255.498 137.853Z" fill="#263238"/>
<path d="M363.091 125.13C363.091 125.13 362.967 125.007 362.843 124.883C362.72 124.636 362.472 124.389 362.225 124.019C361.606 123.277 360.864 122.166 359.875 120.683C359.38 119.942 358.762 119.078 358.144 118.336C357.402 117.472 356.66 116.607 355.918 115.619C355.176 114.631 354.31 113.643 353.321 112.531C352.331 111.419 351.342 110.431 350.229 109.196C349.116 108.084 348.003 106.849 346.766 105.614C345.529 104.502 344.169 103.267 342.809 102.031C342.067 101.414 341.448 100.796 340.706 100.178C339.964 99.5608 339.222 98.9432 338.357 98.3256C336.749 97.0904 335.265 95.8551 333.534 94.6199C326.732 89.6789 318.817 84.985 310.16 80.7852C307.934 79.797 305.832 78.8088 303.606 77.8206C301.38 76.956 299.277 76.0913 297.175 75.3502C295.072 74.4855 292.97 73.8679 290.868 73.1267C288.765 72.5091 286.787 71.768 284.684 71.2739C282.705 70.7798 280.727 70.2857 278.748 69.6681C276.893 69.174 274.914 68.8034 273.059 68.4328C271.204 68.0623 269.473 67.6917 267.742 67.4446C266.01 67.1976 264.402 66.9505 262.795 66.7035C259.703 66.2094 256.859 66.0859 254.262 65.8388C253.025 65.7153 251.788 65.5918 250.799 65.5918C249.686 65.5918 248.696 65.5918 247.831 65.4682C246.099 65.4682 244.739 65.3447 243.75 65.3447C243.255 65.3447 243.008 65.3447 242.637 65.3447C242.389 65.3447 242.266 65.3447 242.266 65.3447C242.266 65.3447 242.389 65.3447 242.637 65.3447C242.884 65.3447 243.255 65.3447 243.75 65.3447C244.739 65.3447 246.099 65.3447 247.831 65.3447C248.696 65.3447 249.686 65.3447 250.799 65.3447C251.912 65.3447 253.025 65.4682 254.262 65.5918C256.735 65.8388 259.703 65.8388 262.795 66.3329C264.402 66.58 266.01 66.827 267.742 66.9505C269.473 67.1976 271.204 67.5682 273.059 67.9387C274.914 68.3093 276.769 68.5563 278.748 69.174C280.727 69.6681 282.705 70.1622 284.684 70.6563C286.787 71.1503 288.765 71.8915 290.868 72.5091C292.97 73.2503 295.072 73.8679 297.175 74.7325C299.277 75.5972 301.503 76.3383 303.729 77.203C305.832 78.1912 308.058 79.1794 310.284 80.1676C319.064 84.3674 326.979 89.0613 333.781 94.1258C335.512 95.361 336.996 96.7198 338.604 97.955C339.346 98.5726 340.088 99.1903 340.954 99.8079C341.696 100.426 342.314 101.043 343.056 101.661C344.416 102.896 345.777 104.131 347.014 105.366C348.25 106.602 349.363 107.837 350.476 108.949C351.589 110.06 352.579 111.172 353.568 112.284C354.434 113.396 355.299 114.507 356.041 115.495C356.783 116.484 357.525 117.348 358.267 118.213C358.886 119.078 359.38 119.942 359.875 120.683C360.864 122.166 361.606 123.277 362.101 124.142C362.348 124.513 362.472 124.76 362.719 125.007C363.09 125.007 363.091 125.13 363.091 125.13Z" fill="#263238"/>
<path d="M355.672 278.3C355.672 278.3 355.548 278.547 355.177 279.041C354.806 279.535 354.188 280.276 353.57 281.141C352.828 282.006 351.962 283.117 350.849 284.352C349.736 285.588 348.623 286.946 347.139 288.429C345.778 289.911 344.171 291.517 342.439 293.123C340.708 294.852 338.853 296.458 336.751 298.311C332.669 301.893 327.97 305.475 322.9 309.057C317.705 312.639 312.635 315.604 307.936 318.198C305.586 319.433 303.236 320.668 301.134 321.657C299.031 322.768 296.929 323.633 295.074 324.374C293.219 325.239 291.488 325.856 290.004 326.351C288.519 326.968 287.159 327.339 286.046 327.709C285.057 328.08 284.191 328.327 283.573 328.574C282.954 328.698 282.707 328.821 282.707 328.821C282.707 328.821 282.954 328.697 283.573 328.45C284.191 328.203 285.057 327.956 286.046 327.586C287.159 327.215 288.396 326.721 289.88 326.104C291.364 325.486 293.095 324.868 294.95 324.004C296.805 323.139 298.908 322.274 301.01 321.286C303.236 320.298 305.462 319.063 307.812 317.827C312.511 315.233 317.582 312.145 322.776 308.687C327.846 305.104 332.546 301.522 336.627 297.94C338.606 296.211 340.584 294.481 342.316 292.876C344.047 291.27 345.655 289.664 347.015 288.182C348.499 286.699 349.736 285.341 350.849 284.229C351.962 283.117 352.828 282.006 353.57 281.141C354.312 280.276 354.93 279.659 355.301 279.164C355.425 278.547 355.672 278.3 355.672 278.3Z" fill="#263238"/>
<path d="M280.851 417.017C280.728 417.017 280.48 397.13 280.48 372.672C280.48 348.215 280.604 328.327 280.851 328.327C280.975 328.327 281.222 348.215 281.222 372.672C281.222 397.13 281.099 417.017 280.851 417.017Z" fill="#263238"/>
<path d="M283.57 518.06C283.447 518.06 283.199 504.102 283.199 486.932C283.199 469.762 283.323 455.804 283.57 455.804C283.694 455.804 283.941 469.762 283.941 486.932C283.941 504.102 283.818 518.06 283.57 518.06Z" fill="#263238"/>
<path d="M353.938 188.991C352.701 191.462 357.277 193.438 359.998 194.303C362.719 195.168 365.563 195.044 368.284 194.921C371.994 194.674 375.828 194.427 379.043 192.574C381.887 190.968 383.99 188.25 385.474 185.286C386.958 182.321 387.823 179.233 388.689 176.021C388.689 176.021 359.503 177.998 353.938 188.991Z" fill="#51CA89"/>
<g opacity="0.4">
<path opacity="0.4" d="M353.938 188.991C352.701 191.462 357.277 193.438 359.998 194.303C362.719 195.168 365.563 195.044 368.284 194.921C371.994 194.674 375.828 194.427 379.043 192.574C381.887 190.968 383.99 188.25 385.474 185.286C386.958 182.321 387.823 179.233 388.689 176.021C388.689 176.021 359.503 177.998 353.938 188.991Z" fill="black"/>
</g>
<path d="M436.427 181.086C441.25 184.545 447.062 186.274 452.875 186.274C455.719 186.274 458.687 185.657 460.789 183.804C461.779 182.939 462.397 181.827 463.386 180.963C464.005 180.345 464.87 179.975 465.489 179.357C466.107 178.739 466.602 177.875 466.355 177.01C466.107 176.145 465.489 174.663 464.623 174.292C461.284 172.44 457.203 172.44 453.369 172.563C449.536 172.687 445.702 173.551 441.992 174.787C439.024 175.775 435.808 177.257 434.324 179.975" fill="#51CA89"/>
<g opacity="0.4">
<path opacity="0.4" d="M466.477 177.01C466.23 176.145 465.117 174.91 464.251 174.539C460.912 172.686 457.326 172.439 453.492 172.563C449.658 172.686 445.824 173.551 442.238 174.786C439.27 175.774 436.054 177.257 434.57 179.974L436.425 181.086C441.248 184.545 447.061 186.274 452.873 186.274C455.718 186.274 458.686 185.656 460.788 183.804C461.778 182.939 462.396 181.827 463.385 180.962C464.004 180.345 464.869 179.974 465.488 179.357C466.106 178.739 466.601 177.874 466.477 177.01Z" fill="black"/>
</g>
<path d="M379.415 225.431L441.126 226.296C441.621 226.296 442.116 225.802 441.868 225.308L434.696 202.826C434.696 202.826 435.809 191.586 437.293 177.998C439.519 157.493 442.487 131.553 442.487 131.676C438.282 119.818 413.424 117.842 413.424 117.842L385.104 119.571L384.115 117.965L375.953 121.795C374.221 122.659 372.49 123.647 370.882 124.636C365.441 128.218 352.456 136.494 350.106 145.758C344.664 167.004 353.94 190.844 353.94 190.844L359.876 186.15C361.483 184.915 362.967 183.927 364.575 182.939L376.571 214.932C376.571 214.932 374.098 216.414 373.974 219.008C373.603 221.478 374.963 224.566 379.415 225.431Z" fill="#51CA89"/>
<g opacity="0.3">
<path opacity="0.3" d="M405.881 187.757C407.86 177.257 406.747 166.511 405.758 155.888C402.295 164.534 402.419 174.416 398.832 182.939C398.461 183.928 397.967 184.792 397.843 185.78C397.719 186.769 397.967 187.88 398.709 188.622C399.698 189.486 401.182 188.992 402.542 188.869C403.779 188.622 404.521 188.127 405.881 187.757Z" fill="black"/>
</g>
<g opacity="0.4">
<path opacity="0.4" d="M383.125 212.09C388.072 213.82 393.389 210.608 398.583 209.99C402.046 209.62 405.509 210.361 408.972 210.979C415.897 212.09 423.07 212.337 429.995 211.473C431.108 211.349 432.098 211.226 433.087 210.732C434.077 210.237 434.819 208.755 434.695 207.643C423.07 206.408 411.445 205.791 399.82 204.555C396.852 204.308 393.884 203.938 391.04 204.802C387.577 205.914 384.856 208.632 382.383 211.349" fill="black"/>
</g>
<path d="M464.623 172.933C459.553 161.569 441.868 130.317 441.868 130.317L428.141 147.487L431.356 181.333C431.356 181.333 438.653 173.18 458.934 173.057C463.634 173.057 466.478 177.009 466.478 177.009L464.623 172.933Z" fill="#51CA89"/>
<path d="M382.138 167.004C382.014 167.004 380.901 163.792 379.788 159.593C378.675 155.516 377.933 152.058 378.056 152.058C378.18 152.058 379.293 155.269 380.406 159.469C381.519 163.545 382.261 167.004 382.138 167.004Z" fill="#263238"/>
<path d="M427.027 145.264C427.027 145.264 427.522 145.634 428.264 146.375C429.006 147.117 430.119 148.228 431.356 149.711C433.705 152.675 436.674 157.369 437.91 163.175C438.529 166.016 438.652 168.857 438.281 171.451C437.91 173.921 437.539 176.145 437.168 178.121C436.797 179.974 436.674 181.58 436.55 182.568C436.426 183.68 436.426 184.174 436.426 184.174C436.426 184.174 436.303 183.556 436.303 182.568C436.303 181.456 436.426 179.974 436.674 177.998C436.921 176.145 437.416 173.798 437.663 171.327C437.91 168.857 437.787 166.016 437.168 163.298C435.932 157.616 433.211 153.046 430.861 150.081C428.759 146.869 427.027 145.387 427.027 145.264Z" fill="#263238"/>
<path d="M414.539 222.714C414.539 222.714 414.045 222.837 413.179 223.084C412.684 223.208 412.19 223.331 411.571 223.455C410.953 223.578 410.211 223.702 409.469 223.702C407.861 223.826 405.883 223.826 403.78 223.702C401.678 223.455 399.328 223.084 396.978 222.343C394.629 221.602 392.526 220.614 390.548 219.626C388.693 218.514 387.085 217.526 385.848 216.414C385.23 215.92 384.735 215.426 384.24 214.932C383.746 214.561 383.375 214.067 383.127 213.82C382.509 213.202 382.262 212.708 382.262 212.708C382.385 212.585 383.622 214.067 386.219 216.044C387.456 217.032 389.064 218.02 390.919 219.008C392.774 219.996 394.876 220.861 397.226 221.602C399.575 222.343 401.801 222.714 403.904 222.961C406.006 223.208 407.861 223.208 409.469 223.084C412.561 223.084 414.416 222.59 414.539 222.714Z" fill="#263238"/>
<path d="M433.582 215.673C433.706 215.673 433.953 216.29 434.077 217.526C434.201 218.637 434.201 220.243 433.706 221.973C433.211 223.702 432.222 225.061 431.233 225.802C430.367 226.543 429.625 226.79 429.625 226.79C429.625 226.666 430.12 226.296 430.985 225.555C431.727 224.814 432.593 223.455 433.088 221.849C433.953 218.637 433.335 215.673 433.582 215.673Z" fill="#263238"/>
<path d="M430.121 220.12C430.244 220.12 430.616 221.849 429.75 223.949C429.008 226.049 427.524 227.161 427.4 226.914C427.276 226.79 428.389 225.555 429.131 223.702C429.997 221.726 429.997 220.12 430.121 220.12Z" fill="#263238"/>
<path d="M419.112 179.48C419.236 179.604 418.123 180.962 416.886 182.692C415.65 184.421 414.908 185.903 414.784 185.903C414.66 185.903 415.155 184.174 416.392 182.321C417.628 180.468 418.989 179.357 419.112 179.48Z" fill="#263238"/>
<path d="M376.817 149.464C376.693 149.588 375.827 148.723 374.096 147.611C372.365 146.5 370.015 145.141 367.047 144.029C364.203 142.917 361.482 142.423 359.379 142.176C357.401 141.929 356.164 141.806 356.164 141.806C356.164 141.682 357.401 141.559 359.503 141.806C361.482 141.929 364.326 142.423 367.294 143.535C370.262 144.647 372.736 146.129 374.343 147.364C375.951 148.6 376.817 149.464 376.817 149.464Z" fill="#263238"/>
<path d="M441.87 129.947C441.994 130.071 438.655 132.171 435.563 135.753C432.471 139.335 431.111 143.041 430.864 142.917C430.74 142.917 431.111 141.929 431.729 140.571C432.348 139.088 433.461 137.235 435.068 135.383C436.676 133.53 438.284 132.171 439.644 131.183C440.881 130.318 441.87 129.824 441.87 129.947Z" fill="#263238"/>
<path d="M416.393 119.694C416.393 119.694 416.517 119.941 416.64 120.312C416.764 120.683 417.011 121.3 417.259 122.041C417.63 123.524 417.877 125.994 417.259 128.712C416.64 131.429 415.032 134.641 412.188 137.235C409.344 139.829 405.139 141.311 400.81 141.311C396.482 141.311 392.277 139.829 389.309 137.482C386.217 135.258 384.239 132.294 383.002 129.823C381.765 127.229 381.147 125.006 380.9 123.524C380.776 122.782 380.652 122.165 380.652 121.671C380.652 121.3 380.652 121.053 380.652 121.053C380.776 121.053 380.776 121.918 381.147 123.4C381.518 124.882 382.136 127.106 383.373 129.576C384.733 132.047 386.712 134.764 389.68 136.988C392.648 139.211 396.606 140.57 400.81 140.693C405.015 140.693 409.096 139.211 411.817 136.864C414.538 134.394 416.146 131.306 416.764 128.712C417.382 125.994 417.259 123.647 417.011 122.165C416.764 120.559 416.269 119.818 416.393 119.694Z" fill="#263238"/>
<g opacity="0.3">
<path opacity="0.3" d="M420.721 181.58C420.721 180.963 420.598 180.222 420.103 179.975C419.732 179.728 419.361 179.851 418.99 179.975C418.619 180.098 418.372 180.469 418.124 180.716C416.64 182.322 415.527 183.927 414.785 186.027L420.845 185.533C420.845 184.174 420.721 182.939 420.721 181.58Z" fill="black"/>
</g>
<g opacity="0.3">
<path opacity="0.3" d="M440.878 168.857C440.383 165.398 438.652 162.186 436.426 159.469C439.023 167.992 438.157 172.809 436.673 178.738L437.044 177.874C438.776 174.539 441.373 172.315 440.878 168.857Z" fill="black"/>
</g>
<path d="M428.761 456.05L425.051 511.388L400.935 511.141L397.102 453.579L428.761 456.05Z" fill="#FFBE9D"/>
<path d="M425.792 504.1V505.706C425.792 505.706 452.999 516.576 453.247 521.764L399.203 521.393L400.069 503.482C408.107 507.312 416.517 507.806 425.792 504.1Z" fill="#51CA89"/>
<path d="M405.509 509.288C404.519 509.535 403.777 510.77 404.025 511.758C404.272 512.87 405.385 513.611 406.498 513.364C407.487 513.117 408.477 511.758 408.106 510.647C407.735 509.658 406.374 508.794 405.385 509.288" fill="white"/>
<path d="M399.203 521.517L399.45 517.193L451.144 519.046C451.144 519.046 453.494 520.158 453.247 521.764L399.203 521.517Z" fill="#263238"/>
<path d="M425.916 505.829C425.916 506.076 424.556 506.2 423.319 507.065C421.959 507.929 421.341 509.041 421.093 508.917C420.846 508.917 421.217 507.312 422.825 506.323C424.432 505.335 426.04 505.706 425.916 505.829Z" fill="#263238"/>
<path d="M431.603 508.3C431.603 508.547 430.49 509.041 429.624 510.153C428.635 511.265 428.511 512.377 428.14 512.377C427.893 512.377 427.769 510.894 428.882 509.535C429.995 508.053 431.603 508.053 431.603 508.3Z" fill="#263238"/>
<path d="M434.698 515.093C434.45 515.093 434.079 513.858 434.821 512.376C435.44 510.894 436.8 510.4 436.8 510.647C436.924 510.894 436.182 511.635 435.563 512.87C435.069 513.858 435.069 514.97 434.698 515.093Z" fill="#263238"/>
<path d="M424.307 50.8913C425.668 47.4326 424.06 43.2328 420.968 41.0094C418 38.786 413.919 38.2919 410.209 38.9095C406.499 39.5271 403.036 41.0094 399.697 42.6152C396.605 39.5271 391.658 38.2919 387.577 39.6506C383.373 41.0094 380.157 44.8386 379.539 49.162C376.942 48.5444 373.85 49.409 371.995 51.3854C370.14 53.3618 369.522 56.4499 370.511 59.0439L387.206 64.8495L405.509 96.9657C410.827 101.536 419.608 101.413 424.802 96.7187C429.996 92.0247 430.985 83.3781 427.028 77.5725C428.017 76.7078 428.883 75.5961 429.625 74.3608C432.469 72.6315 434.819 69.7905 435.561 66.4553C437.045 59.538 431.48 51.756 424.307 50.8913Z" fill="#263238"/>
<path d="M413.302 117.718C412.312 112.53 411.57 108.948 411.57 108.948C411.57 108.948 421.464 105.119 420.722 91.4074C420.351 84.6136 417.754 73.7435 415.404 64.9733C413.178 57.0678 405.881 48.4211 398.09 50.8916L374.593 62.3793C372.243 63.1204 371.872 65.3439 372.367 67.8143V69.0496L381.519 106.971L385.352 123.894C387.084 131.059 394.009 135.752 401.306 134.764C409.468 133.529 414.909 125.747 413.302 117.718Z" fill="#FFBE9D"/>
<path d="M415.156 74.1138C415.403 74.9785 414.785 75.9666 413.919 76.2137C412.93 76.4607 412.064 75.9666 411.817 75.102C411.569 74.2373 412.188 73.2491 413.053 73.0021C414.043 72.755 414.908 73.2491 415.156 74.1138Z" fill="#263238"/>
<path d="M414.168 71.5197C414.044 71.7668 412.56 71.1491 410.705 71.5197C408.85 71.8903 407.737 73.1255 407.49 72.8785C407.366 72.7549 407.49 72.3844 407.985 71.7668C408.479 71.2727 409.345 70.655 410.582 70.408C411.695 70.1609 412.808 70.408 413.426 70.655C413.921 71.0256 414.292 71.3962 414.168 71.5197Z" fill="#263238"/>
<path d="M397.226 78.3129C397.473 79.1775 396.855 80.1657 395.989 80.4128C395 80.6598 394.134 80.1657 393.887 79.3011C393.64 78.4364 394.258 77.4482 395.124 77.2012C396.113 76.8306 397.102 77.3247 397.226 78.3129Z" fill="#263238"/>
<path d="M396.359 75.8429C396.236 76.09 394.752 75.4724 392.897 75.8429C391.042 76.2135 389.929 77.4488 389.681 77.2017C389.558 77.0782 389.681 76.7076 390.176 76.09C390.671 75.5959 391.536 74.9783 392.649 74.7312C393.762 74.4842 394.875 74.7312 395.494 74.9783C396.236 75.3489 396.483 75.7194 396.359 75.8429Z" fill="#263238"/>
<path d="M405.759 87.4548C405.759 87.3312 406.872 86.9607 408.604 86.343C409.098 86.2195 409.469 85.9725 409.469 85.7254C409.469 85.3548 409.222 84.8608 408.851 84.3667C408.233 83.3785 407.491 82.2667 406.748 81.0315C403.78 76.3376 401.431 72.5084 401.678 72.3848C401.925 72.2613 404.399 75.967 407.491 80.6609C408.233 81.7727 408.851 82.8844 409.593 83.9961C409.84 84.4902 410.335 84.9843 410.211 85.7254C410.211 86.096 409.84 86.4666 409.593 86.5901C409.346 86.7136 409.098 86.8371 408.851 86.8371C406.872 87.3312 405.759 87.5783 405.759 87.4548Z" fill="#263238"/>
<path d="M411.571 108.947C411.571 108.947 402.791 111.418 392.773 107.959C392.773 107.959 399.204 116.359 412.313 112.406L411.571 108.947Z" fill="#EB996E"/>
<path d="M396.729 73.2492C396.606 73.7433 394.751 73.7433 392.525 74.2374C390.299 74.7315 388.691 75.5961 388.32 75.102C388.196 74.855 388.444 74.3609 389.062 73.8668C389.68 73.2492 390.793 72.6316 392.03 72.3845C393.267 72.1375 394.503 72.1375 395.369 72.3845C396.359 72.6316 396.729 73.0021 396.729 73.2492Z" fill="#263238"/>
<path d="M413.423 65.7144C413.176 66.2085 411.568 66.0849 409.713 66.4555C407.858 66.7025 406.498 67.4437 406.003 67.0731C405.756 66.9496 406.003 66.4555 406.498 65.8379C407.116 65.3438 408.106 64.7262 409.342 64.4791C410.579 64.2321 411.692 64.3556 412.434 64.7262C413.3 65.0967 413.547 65.4673 413.423 65.7144Z" fill="#263238"/>
<path d="M380.284 53.6091C380.778 56.3266 382.633 58.6735 384.983 59.9088C387.333 61.144 390.301 61.3911 392.898 60.2793C394.877 59.5382 396.855 58.0559 398.834 58.6735C400.936 59.4147 401.555 62.2557 403.533 63.2439C406.254 64.8497 409.593 62.1322 412.809 62.3793C415.282 62.6263 417.137 64.4792 419.116 65.9615C421.095 67.4437 423.692 68.8025 425.794 67.5673C425.176 65.4674 424.681 63.491 423.568 61.6381C422.579 59.7853 420.971 58.1794 418.992 57.3148C417.879 56.9442 416.766 56.6972 415.653 56.2031C413.427 55.0913 412.438 52.4973 410.83 50.521C408.728 48.0505 405.389 46.6917 402.173 47.0623C399.452 47.3093 396.979 48.6681 394.258 48.5446C392.28 48.4211 390.425 47.5564 388.322 47.5564C384.488 47.6799 381.52 51.0151 379.418 54.2267" fill="#263238"/>
<path d="M393.266 56.4503C391.535 56.3267 387.825 55.9562 386.712 54.7209C384.115 52.0034 380.281 50.5211 376.818 51.5093C373.355 52.374 370.511 55.8326 370.635 59.7854C366.43 60.6501 362.843 64.2323 361.607 68.6791C360.37 73.126 361.607 78.314 364.698 81.6491C365.44 82.5138 366.677 84.6137 366.677 84.6137C366.677 84.6137 365.069 86.5901 364.451 87.9488C361.607 94.2486 369.274 96.5955 369.274 96.5955C369.274 100.795 373.232 100.795 375.705 100.795C378.055 100.795 379.539 107.466 381.517 107.095L379.415 86.4666C379.662 86.5901 379.91 86.5901 380.281 86.5901C384.98 86.7136 383.744 77.8199 382.259 75.4729C383.62 73.7436 384.857 71.8907 385.722 69.7908C386.588 67.6909 386.588 62.5029 385.846 60.2795C387.701 60.156 394.008 56.4503 393.266 56.4503Z" fill="#263238"/>
<path d="M380.157 87.578C379.415 84.7369 375.953 83.5017 373.727 85.4781C372.49 86.5898 371.872 88.3191 372.614 91.2837C374.592 99.1892 382.136 95.607 382.136 95.36C382.136 95.1129 381.023 90.7896 380.157 87.578Z" fill="#FFBE9D"/>
<path d="M379.045 92.8894C379.045 92.8894 378.921 93.013 378.674 93.1365C378.427 93.26 378.056 93.5071 377.685 93.3835C376.819 93.26 375.706 92.1483 375.335 90.666C375.088 89.9249 375.088 89.1837 375.211 88.5661C375.335 87.9485 375.582 87.4544 375.953 87.2073C376.324 86.9603 376.695 87.2073 376.819 87.3309C376.943 87.5779 376.943 87.7014 377.066 87.7014C377.066 87.7014 377.19 87.5779 377.066 87.2073C376.943 87.0838 376.819 86.8368 376.572 86.8368C376.324 86.7133 376.077 86.7133 375.706 86.8368C375.088 87.0838 374.717 87.7014 374.593 88.4426C374.469 89.1837 374.469 89.9249 374.717 90.7895C375.211 92.3953 376.324 93.6306 377.561 93.7541C378.179 93.7541 378.55 93.5071 378.798 93.26C379.045 93.1365 379.045 92.8894 379.045 92.8894Z" fill="#EB996E"/>
<path d="M422.822 76.4613C422.822 76.4613 423.564 75.9672 424.553 74.6085C425.543 73.3732 426.779 71.2733 427.027 68.4323C427.15 67.0735 427.15 65.4677 426.532 63.8619C426.037 62.2561 425.172 60.6503 423.688 59.415C420.967 56.9445 416.391 55.7093 412.31 57.1916C411.939 57.3151 411.568 57.4386 411.197 57.6857C410.826 57.8092 410.579 58.0563 410.208 58.1798L409.713 58.4268V57.9327C409.713 56.9445 409.342 56.0799 408.724 55.3387C408.105 54.5976 407.24 54.1035 406.498 53.7329C404.766 52.9918 402.911 52.9918 401.18 53.3623C397.717 54.1035 394.873 55.7093 392.152 55.9563C389.431 56.3269 387.205 55.5858 385.968 54.7211C385.35 54.227 384.979 53.8564 384.732 53.4859C384.484 53.1153 384.484 52.9918 384.484 52.9918C384.608 52.9918 384.855 53.7329 386.092 54.5976C387.329 55.4623 389.431 55.9563 392.028 55.5858C393.265 55.3387 394.749 54.9682 396.233 54.3505C397.717 53.8564 399.325 53.1153 401.056 52.7447C401.922 52.4977 402.911 52.3742 403.9 52.4977C404.89 52.4977 405.879 52.7447 406.745 53.1153C407.734 53.4859 408.6 54.1035 409.218 54.8446C409.96 55.5858 410.331 56.6975 410.331 57.8092L409.837 57.5622C410.208 57.3151 410.455 57.1916 410.826 56.9445C411.197 56.821 411.568 56.574 411.939 56.4504C416.267 54.9682 421.091 56.2034 423.935 58.7974C425.419 60.1562 426.408 61.762 426.903 63.4913C427.398 65.2206 427.521 66.8264 427.274 68.3087C426.903 71.2733 425.666 73.3732 424.553 74.6085C424.059 75.2261 423.564 75.5966 423.193 75.8437C423.069 76.3378 422.946 76.4613 422.822 76.4613Z" fill="#455A64"/>
<path d="M421.214 48.5442C421.214 48.6678 420.349 47.9266 418.617 47.6796C417.752 47.556 416.762 47.556 415.526 47.9266C414.413 48.2972 413.176 49.0383 412.434 50.15L412.187 50.6441L411.939 50.15C410.95 47.4325 407.982 44.962 404.395 44.5915C401.675 44.2209 399.201 45.4561 397.099 46.6914C394.997 47.9266 393.141 49.0383 391.41 49.6559C389.679 50.2736 388.071 50.3971 387.082 50.15C386.587 50.0265 386.216 49.903 385.969 49.7795C385.721 49.6559 385.598 49.6559 385.598 49.5324C385.598 49.5324 386.092 49.6559 387.205 49.7795C388.195 49.903 389.679 49.7795 391.41 49.0383C393.141 48.4207 394.873 47.1855 396.975 45.9502C397.965 45.3326 399.201 44.715 400.438 44.2209C401.675 43.7268 403.159 43.4798 404.643 43.7268C408.476 44.0974 411.568 46.9384 412.681 49.7795H412.187C413.176 48.5442 414.413 47.6796 415.649 47.4325C416.886 47.0619 417.999 47.0619 418.865 47.309C419.73 47.4325 420.349 47.8031 420.843 48.0501C421.091 48.2972 421.214 48.4207 421.214 48.5442Z" fill="#455A64"/>
<path d="M405.016 91.1598C404.397 90.6657 403.655 90.4187 402.79 90.5422C402.048 90.6657 401.182 91.2834 400.687 92.0245C400.687 92.0245 400.687 92.148 400.564 92.148C400.44 92.3951 400.316 92.7656 400.316 93.1362C400.44 93.8774 400.935 94.495 401.553 94.8656C402.542 95.3597 404.026 95.2361 404.768 94.3715C405.758 93.5068 405.882 92.0245 405.016 91.1598Z" fill="#E8505B"/>
<path d="M405.632 94.9898C405.508 94.9898 405.384 94.6192 405.137 94.1251C404.766 93.631 404.271 93.0134 403.405 92.6428C402.54 92.2722 401.674 92.2722 401.056 92.3958C400.437 92.5193 400.066 92.6428 400.066 92.5193C400.066 92.3958 400.314 92.1487 400.932 91.9017C401.55 91.6546 402.663 91.6546 403.653 92.0252C404.642 92.5193 405.261 93.2604 405.508 94.0016C405.755 94.4957 405.632 94.9898 405.632 94.9898Z" fill="#263238"/>
<path d="M380.404 96.4714C380.404 96.4714 380.775 97.089 380.28 98.0772C380.033 98.5713 379.662 99.0654 378.92 99.3125C378.301 99.5595 377.436 99.436 376.694 99.0654C376.075 98.6948 375.581 97.9537 375.457 97.2125C375.457 96.4714 375.704 95.8538 375.952 95.4832C376.57 94.6185 377.312 94.6185 377.312 94.7421C377.312 94.8656 376.817 94.9891 376.323 95.7303C376.075 96.1008 375.952 96.5949 376.075 97.089C376.075 97.5831 376.446 98.0772 377.065 98.4478C377.559 98.8184 378.178 98.8184 378.672 98.6948C379.167 98.5713 379.538 98.2007 379.785 97.8302C380.28 97.089 380.28 96.4714 380.404 96.4714Z" fill="#51CA89"/>
<path d="M376.2 96.101C376.324 96.101 376.2 96.4716 375.582 96.8421C375.335 96.9657 374.964 97.0892 374.593 96.9657C374.222 96.8421 373.851 96.5951 373.603 96.101C373.356 95.7304 373.356 95.2363 373.48 94.8658C373.603 94.4952 373.851 94.2481 374.098 94.0011C374.593 93.754 374.964 93.8776 374.964 93.8776C374.964 94.0011 374.716 94.0011 374.345 94.3717C373.974 94.6187 373.851 95.2363 374.098 95.8539C374.345 96.4716 374.964 96.5951 375.458 96.4716C375.829 96.2245 376.077 95.9775 376.2 96.101Z" fill="#51CA89"/>
<path d="M389.805 205.79C389.805 205.79 420.475 207.519 438.53 207.766C452.505 207.89 458.812 204.184 461.657 195.167C464.006 187.632 458.936 173.18 458.936 173.18C449.413 173.18 443.601 174.538 437.541 177.38L439.149 184.05L389.805 188.25V205.79Z" fill="#FFBE9D"/>
<path d="M449.414 190.967C449.29 191.091 447.806 188.373 444.838 186.397C441.87 184.297 438.778 183.926 438.902 183.803C438.902 183.679 439.644 183.679 440.881 183.926C442.117 184.173 443.725 184.791 445.209 185.903C446.817 187.014 447.93 188.25 448.548 189.238C449.167 190.226 449.414 190.967 449.414 190.967Z" fill="#EB996E"/>
<path d="M378.55 177.256C378.55 177.256 369.027 179.48 362.102 184.174L369.522 204.308C371.995 210.855 379.539 214.19 385.599 210.731C394.874 205.42 398.213 189.856 398.213 189.856L408.478 145.511L391.535 134.888L378.55 177.256Z" fill="#FFBE9D"/>
<path d="M391.412 134.887L392.154 120.311L388.32 105.489C388.073 104.624 387.949 103.636 388.691 103.142C389.433 102.647 390.423 102.647 390.917 103.265C392.031 104.377 396.977 117.347 396.977 117.347C396.977 117.347 404.521 112.9 405.758 112.653C407.118 112.406 408.726 116.482 408.85 116.729C408.973 117.1 408.85 119.447 408.85 119.447C408.85 119.447 413.549 119.57 413.92 120.188C414.291 120.805 414.415 124.141 414.415 124.141C414.415 124.141 416.393 124.758 416.641 126.241C417.012 127.723 417.63 130.193 416.641 130.687C415.775 131.182 413.796 132.293 413.796 132.293C413.796 132.293 413.054 139.828 412.807 140.569C412.56 141.31 408.231 145.51 408.231 145.51L391.412 134.887Z" fill="#FFBE9D"/>
<path d="M375.707 210.978C375.707 210.978 376.202 211.225 377.067 211.596C378.057 211.966 379.541 212.213 381.396 211.966C383.251 211.719 385.601 210.855 387.703 209.002C389.805 207.149 391.908 204.678 393.639 201.59C394.505 199.985 395.247 198.379 395.989 196.526C396.607 194.673 397.102 192.697 397.597 190.597C398.586 186.397 399.575 181.95 400.688 177.133C402.914 167.621 405.388 156.998 408.108 145.511V145.387L408.232 145.263C409.098 144.399 409.963 143.534 410.829 142.669C411.2 142.175 411.695 141.805 412.066 141.311C412.313 141.064 412.437 140.817 412.684 140.57C412.808 140.446 412.808 140.075 412.932 139.828C413.303 137.358 413.55 134.764 413.797 132.17V132.046L413.921 131.923C414.663 131.429 415.529 131.058 416.271 130.564C416.394 130.441 416.765 130.317 416.765 130.194C416.889 130.07 417.013 129.947 417.013 129.823C417.136 129.452 417.013 128.958 417.013 128.588C416.889 127.723 416.642 126.735 416.518 125.87C416.271 125.129 415.405 124.635 414.539 124.264L414.292 124.141V123.894C414.292 123.153 414.168 122.412 414.168 121.67C414.168 121.3 414.045 120.929 414.045 120.559C414.045 120.435 413.921 120.188 413.921 120.065C413.921 119.941 413.921 120.065 413.797 119.941C413.674 119.941 413.674 119.818 413.55 119.818C412.19 119.447 410.582 119.323 408.974 119.323H408.603V118.953C408.603 118.212 408.603 117.347 408.603 116.482C408.603 116.235 408.479 115.988 408.356 115.618C408.232 115.371 408.108 115 407.985 114.753C407.737 114.135 407.366 113.641 406.995 113.147C406.748 112.9 406.624 112.653 406.377 112.53C406.13 112.406 406.006 112.406 405.759 112.406C405.14 112.653 404.646 112.9 404.027 113.147C401.678 114.383 399.452 115.618 397.226 116.977L396.855 117.224L396.731 116.853C395.618 113.888 394.381 111.047 393.268 108.206C392.65 106.724 392.155 105.365 391.537 104.007C391.289 103.265 390.795 102.895 390.176 102.771C389.558 102.648 388.816 102.771 388.569 103.389C388.445 103.636 388.321 104.007 388.321 104.254C388.321 104.501 388.445 104.995 388.569 105.242C388.816 105.983 388.94 106.724 389.187 107.342C389.558 108.7 389.929 110.183 390.3 111.541C391.042 114.259 391.784 116.977 392.402 119.694C392.155 124.759 391.908 129.576 391.66 134.27C386.961 149.463 383.127 162.063 380.406 170.833C379.046 175.156 377.933 178.615 377.191 181.085C376.82 182.197 376.573 183.185 376.325 183.803C376.078 184.421 375.954 184.668 375.954 184.668C375.954 184.668 376.078 184.297 376.202 183.679C376.325 183.062 376.696 182.197 376.944 180.962C377.686 178.615 378.675 175.156 380.035 170.709C382.756 161.816 386.466 149.216 391.042 134.023V134.146C391.289 129.452 391.413 124.635 391.66 119.571V119.694C390.918 116.977 390.176 114.259 389.558 111.541C389.187 110.183 388.816 108.7 388.445 107.342C388.198 106.601 388.074 105.983 387.827 105.242C387.703 104.871 387.579 104.624 387.579 104.13C387.579 103.759 387.579 103.265 387.827 102.895C388.074 102.524 388.445 102.154 388.816 102.03C389.311 101.907 389.682 101.907 390.053 102.03C390.424 102.154 390.918 102.277 391.166 102.648C391.537 102.895 391.66 103.389 391.784 103.759C392.402 105.118 392.897 106.601 393.515 107.959C394.628 110.8 395.865 113.641 396.978 116.606L396.484 116.482C398.71 115.124 400.936 113.888 403.285 112.653C403.904 112.406 404.398 112.036 405.14 111.789C405.264 111.789 405.511 111.665 405.759 111.665C406.006 111.665 406.253 111.789 406.377 111.912C406.748 112.159 406.995 112.406 407.119 112.653C407.49 113.147 407.861 113.765 408.232 114.383C408.356 114.63 408.479 115 408.727 115.247C408.85 115.618 409.098 115.865 409.098 116.235C409.098 117.1 409.098 117.965 409.098 118.706L408.727 118.335C410.334 118.459 411.818 118.459 413.426 118.829C413.55 118.829 413.674 118.953 413.797 118.953C413.921 118.953 414.045 119.2 414.168 119.323C414.292 119.571 414.292 119.694 414.416 119.941C414.539 120.312 414.539 120.682 414.539 121.053C414.663 121.794 414.663 122.535 414.663 123.276L414.416 123.029C415.405 123.4 416.271 123.894 416.765 125.006C417.013 125.994 417.26 126.858 417.384 127.847C417.384 128.341 417.507 128.835 417.384 129.329C417.384 129.576 417.136 129.947 416.889 130.07C416.642 130.317 416.518 130.317 416.271 130.441C415.529 130.935 414.663 131.305 413.921 131.799L414.045 131.552C413.797 134.146 413.55 136.617 413.179 139.211L413.055 139.705C413.055 139.828 412.932 140.075 412.808 140.199C412.561 140.446 412.437 140.693 412.19 140.94C411.818 141.434 411.324 141.805 410.953 142.299C410.087 143.164 409.221 144.028 408.356 144.893L408.479 144.769C405.759 156.257 403.285 166.88 400.936 176.392C399.823 181.209 398.71 185.656 397.72 189.732C397.226 191.832 396.731 193.808 396.112 195.661C395.494 197.514 394.628 199.243 393.763 200.849C392.031 203.937 389.805 206.408 387.703 208.384C385.477 210.237 383.127 211.102 381.149 211.225C379.17 211.472 377.686 211.102 376.696 210.731C376.202 210.608 375.831 210.361 375.707 210.237C375.831 210.978 375.707 210.978 375.707 210.978Z" fill="#EB996E"/>
<path d="M408.973 119.447C408.973 119.57 408.602 119.57 407.86 119.57C407.242 119.57 406.376 119.57 405.387 119.817C404.521 120.064 403.779 120.559 403.284 120.929C402.79 121.3 402.666 121.67 402.542 121.67C402.419 121.67 402.542 121.176 402.913 120.682C403.284 120.064 404.15 119.447 405.14 119.2C406.129 118.953 407.118 118.953 407.737 119.076C408.602 119.2 408.973 119.323 408.973 119.447Z" fill="#EB996E"/>
<path d="M405.265 119.57C405.141 119.446 405.141 119.076 405.265 118.705C405.388 118.335 405.636 117.964 405.883 118.088C406.007 118.211 406.007 118.582 405.883 118.952C405.759 119.323 405.512 119.57 405.265 119.57Z" fill="#EB996E"/>
<path d="M414.787 124.017C414.787 124.265 413.179 124.388 411.077 124.512C410.087 124.635 409.345 125.006 408.974 125.5C408.603 125.994 408.727 126.364 408.603 126.488C408.603 126.488 408.232 126.117 408.48 125.376C408.603 125.006 408.974 124.635 409.345 124.388C409.84 124.141 410.335 124.017 410.829 123.894C413.055 123.77 414.787 123.894 414.787 124.017Z" fill="#EB996E"/>
<path d="M413.922 128.464C414.045 128.464 414.169 129.329 414.169 130.564C414.169 131.675 413.922 132.54 413.798 132.54C413.674 132.54 413.551 131.675 413.551 130.44C413.551 129.329 413.674 128.464 413.922 128.464Z" fill="#EB996E"/>
<path d="M418.988 161.692L420.101 157.863C420.349 157.121 421.338 156.874 421.833 157.369L423.317 158.851L424.182 155.269C424.43 154.28 425.666 154.157 426.161 155.022L428.14 159.221L418.988 161.692Z" fill="white"/>
<path d="M428.139 161.074C428.139 161.198 426.284 161.939 423.81 162.433C421.337 163.051 419.358 163.421 419.234 163.174C419.234 163.051 421.089 162.31 423.563 161.816C426.16 161.198 428.139 160.827 428.139 161.074Z" fill="white"/>
<path d="M354.683 139.952C354.683 139.952 354.188 140.446 353.57 141.434C352.951 142.423 352.209 144.028 351.838 146.128C351.467 148.228 351.467 150.699 351.591 153.54C351.714 156.381 351.962 159.345 352.333 162.557C352.951 168.98 354.064 174.786 354.93 178.862C355.425 180.962 355.796 182.568 356.043 183.803C356.167 184.297 356.29 184.791 356.414 185.162C356.538 185.409 356.538 185.656 356.538 185.656C356.538 185.656 356.538 185.532 356.414 185.162C356.29 184.791 356.167 184.297 356.043 183.803C355.796 182.691 355.301 180.962 354.806 178.986C353.817 174.909 352.828 169.104 352.086 162.681C351.715 159.469 351.467 156.381 351.344 153.54C351.22 150.699 351.22 148.228 351.591 146.128C351.962 144.028 352.704 142.423 353.322 141.434C354.188 140.323 354.683 139.952 354.683 139.952Z" fill="white"/>
<path d="M380.65 123.153C380.65 123.153 380.527 123.153 380.403 123.276C380.156 123.4 379.908 123.523 379.537 123.647C378.795 124.017 377.806 124.512 376.569 125.129C374.096 126.488 370.757 128.464 367.294 130.935C363.708 133.405 360.616 135.629 358.39 137.235C357.4 137.976 356.411 138.593 355.669 139.211C355.422 139.334 355.174 139.581 354.927 139.705C354.803 139.829 354.68 139.829 354.68 139.829C354.68 139.829 354.803 139.705 354.927 139.581C355.174 139.458 355.422 139.211 355.669 139.087C356.411 138.47 357.277 137.852 358.39 137.111C360.616 135.382 363.708 133.158 367.294 130.688C370.88 128.217 374.096 126.241 376.693 124.882C377.93 124.265 378.919 123.77 379.661 123.4C379.908 123.276 380.279 123.153 380.527 123.029C380.527 123.153 380.65 123.153 380.65 123.153Z" fill="white"/>
<path d="M439.643 131.182C439.643 131.182 439.519 131.182 439.396 131.058C439.272 130.935 439.025 130.688 438.901 130.564C438.406 130.193 437.664 129.576 436.675 128.958C434.82 127.723 431.976 126.241 428.76 124.882C425.545 123.647 422.453 122.659 420.227 122.041C419.114 121.794 418.248 121.547 417.63 121.3C417.383 121.176 417.135 121.176 416.888 121.176C416.764 121.176 416.641 121.053 416.641 121.053C416.641 121.053 416.764 121.053 416.888 121.053C417.135 121.053 417.383 121.176 417.63 121.176C418.248 121.3 419.114 121.547 420.227 121.794C422.453 122.411 425.545 123.276 428.76 124.511C431.976 125.87 434.82 127.229 436.675 128.588C438.777 130.07 439.643 131.182 439.643 131.182Z" fill="white"/>
<path d="M381.025 225.431C381.025 225.431 380.901 225.431 380.53 225.308C380.283 225.184 379.788 224.937 379.293 224.69C378.304 224.072 376.944 222.837 376.573 221.108C376.202 219.378 376.573 217.649 377.067 216.537C377.315 216.043 377.562 215.549 377.809 215.302C378.057 215.055 378.18 214.932 378.18 214.932C378.18 214.932 377.686 215.549 377.315 216.537C376.82 217.526 376.573 219.255 376.944 220.984C377.315 222.714 378.551 223.825 379.541 224.566C380.406 225.184 381.025 225.431 381.025 225.431Z" fill="white"/>
<path d="M377.066 212.09C377.19 212.09 377.437 212.707 377.685 213.696C377.932 214.56 378.056 215.301 378.056 215.301C377.932 215.301 377.685 214.684 377.437 213.696C377.19 212.831 377.066 212.09 377.066 212.09Z" fill="white"/>
<path d="M393.761 489.031L431.48 488.784L430.738 358.466L430.491 226.048L379.415 225.431L370.264 242.724C366.554 249.641 364.08 257.3 363.215 265.082C362.596 271.011 367.048 290.528 368.656 295.592L382.754 340.184L393.761 489.031Z" fill="#263238"/>
<path d="M441.621 226.295L483.05 339.196C487.874 354.266 486.266 369.336 477.98 383.294L429.873 477.172L402.789 443.326L443.105 359.33L407.612 301.892L413.548 226.542L430.244 226.295H441.621Z" fill="#263238"/>
<path d="M427.027 264.094C427.027 264.094 427.027 264.341 427.027 264.711C427.027 265.082 427.027 265.7 427.151 266.441C427.275 267.923 427.398 270.146 427.522 272.987C427.769 278.67 428.14 286.946 428.635 297.075C429.13 307.204 429.624 319.309 430.243 332.773C430.49 339.443 430.861 346.484 431.232 353.896C431.479 357.601 431.356 361.307 431.356 365.013C431.356 368.842 431.356 372.671 431.356 376.5C431.356 407.505 431.479 435.668 431.479 456.05C431.479 466.179 431.479 474.455 431.479 480.137C431.479 482.978 431.479 485.201 431.479 486.684C431.479 487.425 431.479 487.919 431.479 488.413C431.479 488.784 431.479 489.031 431.479 489.031C431.479 489.031 431.479 488.784 431.479 488.413C431.479 488.042 431.479 487.425 431.479 486.684C431.479 485.201 431.479 482.978 431.356 480.137C431.356 474.455 431.232 466.179 431.232 456.05C431.108 435.668 430.985 407.628 430.861 376.5C430.861 372.671 430.861 368.842 430.861 365.013C430.861 361.183 430.985 357.478 430.737 353.896C430.366 346.608 430.119 339.567 429.872 332.773C429.253 319.309 428.759 307.204 428.388 297.075C428.017 286.946 427.646 278.67 427.398 272.987C427.275 270.146 427.275 267.923 427.151 266.441C427.151 265.7 427.151 265.205 427.151 264.711C427.027 264.217 427.027 264.094 427.027 264.094Z" fill="#455A64"/>
<path d="M426.162 228.519C426.162 228.519 426.285 228.889 426.409 229.754C426.533 230.495 426.656 231.73 426.904 233.089C427.275 235.93 427.522 239.883 427.769 244.33C428.017 248.776 428.017 252.729 427.893 255.57C427.893 257.053 427.769 258.164 427.769 259.029C427.769 259.894 427.646 260.264 427.646 260.264C427.522 260.264 427.522 258.535 427.522 255.57C427.522 252.729 427.398 248.776 427.151 244.33C426.904 240.006 426.656 236.054 426.409 233.089C426.162 230.248 426.038 228.519 426.162 228.519Z" fill="#455A64"/>
<path d="M417.752 230.989C417.876 231.113 417.134 231.36 416.886 232.348C416.763 232.842 416.886 233.46 417.381 233.83C417.876 234.201 418.618 234.448 419.236 234.201C419.854 233.954 420.225 233.213 420.225 232.595C420.225 231.978 419.854 231.483 419.36 231.236C418.494 230.866 417.876 231.113 417.752 230.989C417.752 230.989 417.876 230.866 418.247 230.742C418.618 230.619 419.112 230.619 419.607 230.866C420.102 231.113 420.72 231.73 420.844 232.595C420.844 233.46 420.473 234.448 419.607 234.819C418.618 235.189 417.628 234.942 417.134 234.324C416.515 233.707 416.392 232.842 416.639 232.348C416.763 231.73 417.134 231.36 417.381 231.236C417.628 230.989 417.752 230.989 417.752 230.989Z" fill="#455A64"/>
<path d="M397.964 228.766C397.964 228.766 398.212 229.136 398.335 230.001C398.459 230.742 398.583 231.977 398.459 233.336C398.335 234.695 397.841 236.424 396.975 238.153C396.109 239.883 394.749 241.489 393.017 242.847C391.162 244.083 389.184 244.824 387.329 245.071C385.474 245.318 383.742 245.194 382.382 244.947C381.022 244.577 379.909 244.206 379.29 243.712C378.548 243.341 378.301 243.094 378.301 242.971C378.301 242.847 379.785 243.836 382.506 244.453C385.226 244.947 389.307 244.7 392.77 242.353C396.233 239.883 397.717 236.054 398.088 233.336C398.335 230.495 397.841 228.766 397.964 228.766Z" fill="#455A64"/>
<path d="M446.569 239.636C446.569 239.759 445.58 239.759 444.219 239.389C442.735 239.018 440.88 238.03 439.396 236.301C437.912 234.571 437.046 232.595 436.799 231.113C436.552 229.63 436.675 228.766 436.799 228.766C436.923 228.766 436.923 229.63 437.294 231.113C437.665 232.471 438.53 234.324 440.014 235.93C441.498 237.536 443.23 238.524 444.59 239.018C445.58 239.389 446.569 239.512 446.569 239.636Z" fill="#455A64"/>
<path d="M461.284 361.307C461.284 361.307 460.542 362.172 459.058 363.037C458.316 363.531 457.327 364.025 456.214 364.272C455.101 364.519 453.74 364.642 452.38 364.148C449.783 363.284 448.052 361.307 447.062 359.948C446.073 358.59 445.578 357.602 445.578 357.602C445.702 357.602 446.32 358.343 447.433 359.701C448.546 360.937 450.154 362.79 452.504 363.531C454.977 364.395 457.203 363.407 458.687 362.666C460.295 361.801 461.16 361.184 461.284 361.307Z" fill="#455A64"/>
<path d="M451.761 368.471C451.637 368.595 449.906 366.371 447.803 363.53C445.825 360.689 444.341 358.342 444.464 358.219C444.588 358.095 446.319 360.319 448.422 363.16C450.4 366.001 452.008 368.348 451.761 368.471Z" fill="#455A64"/>
<path d="M388.442 268.416C388.318 268.54 387.824 267.799 387.453 266.811C387.082 265.822 386.958 265.081 387.082 264.958C387.205 264.834 387.7 265.575 388.071 266.564C388.442 267.552 388.566 268.416 388.442 268.416Z" fill="#FAFAFA"/>
<path d="M412.434 271.876C412.31 271.876 412.062 271.258 412.062 270.517C412.062 269.776 412.186 269.158 412.434 269.158C412.681 269.158 412.805 269.776 412.805 270.517C412.681 271.258 412.557 271.876 412.434 271.876Z" fill="#FAFAFA"/>
<path d="M402.543 284.845C402.42 284.845 402.172 284.104 402.049 283.116C401.925 282.128 402.048 281.387 402.296 281.387C402.42 281.387 402.667 282.128 402.791 283.116C402.791 284.104 402.667 284.845 402.543 284.845Z" fill="#FAFAFA"/>
<path d="M384.609 294.481C384.485 294.604 383.99 294.11 383.248 293.616C382.63 293.122 382.012 292.752 382.012 292.628C382.012 292.504 382.877 292.505 383.619 293.122C384.361 293.616 384.732 294.357 384.609 294.481Z" fill="#FAFAFA"/>
<path d="M416.269 306.462C416.145 306.339 416.269 305.845 416.64 305.227C417.011 304.61 417.506 304.239 417.629 304.363C417.753 304.486 417.629 304.98 417.258 305.598C416.887 306.215 416.393 306.586 416.269 306.462Z" fill="#FAFAFA"/>
<path d="M396.605 309.921C396.482 309.921 396.234 308.933 396.234 307.698C396.234 306.463 396.358 305.475 396.605 305.475C396.853 305.475 396.976 306.463 396.976 307.698C396.976 308.933 396.853 309.921 396.605 309.921Z" fill="#FAFAFA"/>
<path d="M390.3 323.756C390.177 323.879 389.558 323.632 388.816 323.138C388.074 322.644 387.703 322.15 387.703 322.027C387.827 321.903 388.445 322.15 389.187 322.644C389.929 323.138 390.424 323.632 390.3 323.756Z" fill="#FAFAFA"/>
<path d="M410.084 328.573C410.208 328.697 409.713 329.067 409.218 329.314C408.6 329.562 408.105 329.685 408.105 329.438C407.981 329.315 408.476 328.944 408.971 328.697C409.466 328.45 410.084 328.45 410.084 328.573Z" fill="#FAFAFA"/>
<path d="M396.604 351.178C396.48 351.301 395.862 350.313 395.12 349.078C394.502 347.842 394.13 346.731 394.254 346.607C394.378 346.484 394.996 347.472 395.738 348.707C396.48 349.942 396.851 351.054 396.604 351.178Z" fill="#FAFAFA"/>
<path d="M418.496 349.078C418.373 348.954 418.62 348.213 419.115 347.225C419.609 346.237 420.104 345.619 420.351 345.619C420.475 345.743 420.228 346.484 419.733 347.472C419.238 348.46 418.744 349.201 418.496 349.078Z" fill="#FAFAFA"/>
<path d="M408.974 368.224C408.85 368.224 408.85 367.236 408.603 366.124C408.479 365.012 408.108 364.024 408.232 363.9C408.356 363.777 408.974 364.642 409.221 366C409.469 367.236 409.098 368.224 408.974 368.224Z" fill="#FAFAFA"/>
<path d="M398.707 379.218C398.583 379.342 397.965 378.847 397.346 378.23C396.728 377.489 396.357 376.871 396.481 376.748C396.604 376.624 397.223 377.118 397.841 377.736C398.459 378.353 398.83 379.095 398.707 379.218Z" fill="#FAFAFA"/>
<path d="M423.566 383.295C423.442 383.171 423.937 382.554 424.555 381.812C425.297 381.071 425.916 380.701 426.039 380.824C426.163 380.948 425.668 381.565 425.05 382.306C424.432 382.924 423.69 383.418 423.566 383.295Z" fill="#FAFAFA"/>
<path d="M409.343 399.723C409.219 399.723 409.219 398.735 409.343 397.623C409.466 396.511 409.837 395.646 409.961 395.646C410.085 395.646 410.085 396.635 409.961 397.746C409.714 398.858 409.466 399.723 409.343 399.723Z" fill="#FAFAFA"/>
<path d="M399.695 407.629C399.572 407.752 398.953 407.135 398.459 406.146C397.964 405.282 397.593 404.541 397.84 404.417C397.964 404.294 398.582 404.911 399.077 405.899C399.448 406.764 399.819 407.505 399.695 407.629Z" fill="#FAFAFA"/>
<path d="M422.822 417.634C422.946 417.758 422.328 418.375 421.462 418.993C420.596 419.61 419.731 419.981 419.731 419.857C419.607 419.734 420.225 419.116 421.091 418.499C421.957 417.881 422.822 417.51 422.822 417.634Z" fill="#FAFAFA"/>
<path d="M403.532 430.604C403.408 430.48 403.532 429.492 403.655 428.257C403.779 427.021 403.779 426.033 403.903 426.033C404.026 426.033 404.397 427.021 404.274 428.38C404.15 429.739 403.655 430.727 403.532 430.604Z" fill="#FAFAFA"/>
<path d="M411.197 449.38C411.073 449.503 410.578 449.009 410.083 448.392C409.589 447.774 409.341 447.156 409.465 447.033C409.589 446.909 410.083 447.403 410.578 448.021C411.073 448.639 411.32 449.256 411.197 449.38Z" fill="#FAFAFA"/>
<path d="M402.79 461.855C402.666 461.979 401.924 461.238 401.306 460.25C400.564 459.261 400.193 458.397 400.316 458.273C400.44 458.15 401.182 458.891 401.8 459.879C402.542 460.867 402.913 461.732 402.79 461.855Z" fill="#FAFAFA"/>
<path d="M426.038 446.168C425.914 446.045 425.914 445.674 426.038 445.18C426.285 444.686 426.533 444.315 426.656 444.439C426.78 444.563 426.78 444.933 426.656 445.427C426.533 445.798 426.285 446.168 426.038 446.168Z" fill="#FAFAFA"/>
<path d="M415.775 475.937C415.651 475.813 415.899 474.948 416.146 473.837C416.393 472.725 416.517 471.86 416.641 471.86C416.764 471.86 417.012 472.849 416.764 474.084C416.517 475.195 415.899 476.06 415.775 475.937Z" fill="#FAFAFA"/>
<path d="M422.453 285.093C422.329 285.216 421.958 284.722 421.587 283.981C421.216 283.24 421.092 282.622 421.34 282.622C421.463 282.499 421.834 282.993 422.205 283.734C422.453 284.352 422.576 284.969 422.453 285.093Z" fill="#FAFAFA"/>
<path d="M405.263 246.554C405.387 246.677 404.521 247.418 403.532 248.407C402.542 249.395 401.924 250.259 401.8 250.259C401.677 250.136 402.048 249.024 403.037 248.036C404.15 246.924 405.263 246.43 405.263 246.554Z" fill="#FAFAFA"/>
<path d="M420.596 246.183C420.472 246.183 420.101 245.442 419.73 244.701C419.359 243.836 418.864 243.218 418.988 243.095C419.112 242.971 419.854 243.465 420.225 244.454C420.719 245.195 420.719 246.059 420.596 246.183Z" fill="#FAFAFA"/>
<path d="M372.984 258.659C372.86 258.535 372.984 257.794 373.355 256.806C373.726 255.818 374.221 255.2 374.344 255.2C374.468 255.324 374.344 256.065 373.973 257.053C373.602 258.041 373.108 258.782 372.984 258.659Z" fill="#FAFAFA"/>
<path d="M374.47 277.311C374.346 277.434 373.604 277.064 372.862 276.446C372.12 275.828 371.626 275.211 371.749 275.087C371.873 274.964 372.615 275.334 373.357 275.952C374.099 276.569 374.594 277.187 374.47 277.311Z" fill="#FAFAFA"/>
<path d="M405.758 231.731C405.635 231.854 405.264 231.36 405.016 230.743C404.769 230.125 404.645 229.507 404.893 229.507C405.016 229.384 405.387 229.878 405.635 230.496C405.882 231.113 405.882 231.731 405.758 231.731Z" fill="#FAFAFA"/>
<path d="M435.686 240.871C435.563 240.871 435.563 240.13 435.686 239.265C435.934 238.401 436.181 237.66 436.305 237.783C436.428 237.783 436.428 238.524 436.305 239.389C436.181 240.254 435.81 240.995 435.686 240.871Z" fill="#FAFAFA"/>
<path d="M442.736 255.077C442.612 254.953 442.736 254.089 443.231 252.977C443.725 251.865 444.22 251.124 444.344 251.124C444.467 251.248 444.344 252.112 443.849 253.224C443.354 254.336 442.86 255.077 442.736 255.077Z" fill="#FAFAFA"/>
<path d="M437.665 266.441C437.541 266.564 436.922 265.699 436.304 264.588C435.686 263.476 435.439 262.488 435.562 262.364C435.686 262.241 436.304 263.105 436.922 264.217C437.541 265.329 437.912 266.317 437.665 266.441Z" fill="#FAFAFA"/>
<path d="M448.424 277.805C448.3 277.681 448.423 277.063 448.671 276.199C449.042 275.334 449.413 274.716 449.537 274.84C449.66 274.963 449.537 275.581 449.289 276.446C448.918 277.31 448.547 277.805 448.424 277.805Z" fill="#FAFAFA"/>
<path d="M438.902 288.922C438.778 289.045 438.407 288.675 438.036 288.181C437.665 287.686 437.541 287.192 437.789 287.069C437.912 286.945 438.284 287.316 438.655 287.81C438.902 288.428 439.025 288.922 438.902 288.922Z" fill="#FAFAFA"/>
<path d="M440.877 312.02C440.754 312.144 440.012 311.526 439.146 310.662C438.28 309.797 437.786 308.932 437.909 308.809C438.033 308.685 438.775 309.303 439.641 310.167C440.506 311.032 441.001 311.897 440.877 312.02Z" fill="#FAFAFA"/>
<path d="M453.493 298.804C453.369 298.927 452.627 298.309 452.009 297.445C451.267 296.58 450.896 295.715 451.02 295.592C451.143 295.468 451.885 296.086 452.504 296.951C453.122 297.815 453.617 298.68 453.493 298.804Z" fill="#FAFAFA"/>
<path d="M460.293 316.962C460.17 316.838 460.417 315.973 460.912 314.862C461.406 313.75 461.901 313.009 462.148 313.009C462.272 313.132 462.025 313.997 461.53 315.109C461.035 316.22 460.541 317.085 460.293 316.962Z" fill="#FAFAFA"/>
<path d="M445.702 332.031C445.579 332.155 444.96 331.414 444.218 330.673C443.476 329.932 442.734 329.438 442.734 329.314C442.858 329.19 443.724 329.438 444.589 330.302C445.455 331.043 445.826 331.908 445.702 332.031Z" fill="#FAFAFA"/>
<path d="M446.568 347.472C446.568 347.596 445.95 347.843 445.208 347.843C444.466 347.843 443.848 347.719 443.848 347.472C443.848 347.225 444.466 347.102 445.208 347.102C445.95 347.225 446.568 347.349 446.568 347.472Z" fill="#FAFAFA"/>
<path d="M461.654 343.149C461.53 343.026 461.778 342.284 462.025 341.296C462.272 340.308 462.396 339.443 462.52 339.443C462.643 339.443 462.891 340.308 462.643 341.42C462.396 342.531 461.778 343.273 461.654 343.149Z" fill="#FAFAFA"/>
<path d="M476.62 348.337C476.496 348.337 476.002 347.472 475.631 346.361C475.26 345.249 475.012 344.261 475.26 344.261C475.383 344.261 475.878 345.125 476.249 346.237C476.62 347.349 476.744 348.337 476.62 348.337Z" fill="#FAFAFA"/>
<path d="M474.27 369.583C474.146 369.46 474.517 368.471 475.135 367.236C475.754 366.001 476.372 365.136 476.496 365.26C476.619 365.383 476.248 366.371 475.63 367.607C475.012 368.842 474.393 369.707 474.27 369.583Z" fill="#FAFAFA"/>
<path d="M460.541 382.058C460.417 382.182 459.922 381.317 459.428 380.205C458.933 379.094 458.686 378.106 458.933 378.106C459.057 377.982 459.551 378.847 460.046 379.958C460.541 381.07 460.788 382.058 460.541 382.058Z" fill="#FAFAFA"/>
<path d="M445.457 386.876C445.457 387 444.962 387.247 444.344 387.247C443.725 387.247 443.23 387.124 443.23 386.876C443.23 386.629 443.725 386.506 444.344 386.506C444.962 386.629 445.457 386.753 445.457 386.876Z" fill="#FAFAFA"/>
<path d="M454.11 406.763C453.986 406.763 453.615 406.022 453.368 405.158C453.121 404.169 452.997 403.428 453.244 403.305C453.368 403.305 453.739 404.046 453.986 404.91C454.234 405.899 454.234 406.64 454.11 406.763Z" fill="#FAFAFA"/>
<path d="M443.23 400.094C443.106 399.97 443.23 399.476 443.601 398.735C443.972 398.117 444.467 397.623 444.59 397.747C444.714 397.87 444.59 398.364 444.219 399.105C443.725 399.723 443.354 400.217 443.23 400.094Z" fill="#FAFAFA"/>
<path d="M442.982 421.957C442.859 421.957 442.611 421.093 442.487 420.104C442.364 418.993 442.364 418.128 442.611 418.128C442.735 418.128 442.982 418.993 443.106 419.981C443.106 421.093 443.106 421.957 442.982 421.957Z" fill="#FAFAFA"/>
</g>
<defs>
<clipPath id="clip0">
<rect width="546" height="523" fill="white"/>
</clipPath>
</defs>
</svg>
