<svg width="43" height="43" viewBox="0 0 43 43" fill="none" xmlns="http://www.w3.org/2000/svg">
<rect width="43" height="43" rx="6.71875" fill="#1F2D3D"/>
<path d="M17.4701 19.2604V28.2188C17.4701 28.3375 17.4229 28.4515 17.3389 28.5355C17.2549 28.6195 17.1409 28.6667 17.0221 28.6667H14.7826C14.6638 28.6667 14.5498 28.6195 14.4658 28.5355C14.3818 28.4515 14.3346 28.3375 14.3346 28.2188V19.2604C14.3346 19.1416 14.3818 19.0277 14.4658 18.9437C14.5498 18.8597 14.6638 18.8125 14.7826 18.8125H17.0221C17.1409 18.8125 17.2549 18.8597 17.3389 18.9437C17.4229 19.0277 17.4701 19.1416 17.4701 19.2604ZM29.5638 22.7631C29.5788 21.8217 29.2716 20.9034 28.6932 20.1605C28.1148 19.4175 27.2999 18.8945 26.3836 18.6781C25.7601 18.5439 25.1135 18.5608 24.4979 18.7276C23.8823 18.8943 23.3155 19.2061 22.8451 19.6367V19.2604C22.8451 19.1416 22.7979 19.0277 22.7139 18.9437C22.6299 18.8597 22.5159 18.8125 22.3971 18.8125H20.1576C20.0388 18.8125 19.9248 18.8597 19.8408 18.9437C19.7568 19.0277 19.7096 19.1416 19.7096 19.2604V28.2188C19.7096 28.3375 19.7568 28.4515 19.8408 28.5355C19.9248 28.6195 20.0388 28.6667 20.1576 28.6667H22.3971C22.5159 28.6667 22.6299 28.6195 22.7139 28.5355C22.7979 28.4515 22.8451 28.3375 22.8451 28.2188V23.1662C22.8343 22.7304 22.9775 22.3047 23.2495 21.9639C23.5214 21.6232 23.9048 21.3891 24.3321 21.3029C24.5916 21.2581 24.8577 21.2711 25.1116 21.3408C25.3655 21.4106 25.6009 21.5354 25.801 21.7065C26.0011 21.8776 26.1611 22.0906 26.2696 22.3305C26.378 22.5705 26.4322 22.8313 26.4284 23.0946V28.2188C26.4284 28.3375 26.4756 28.4515 26.5596 28.5355C26.6436 28.6195 26.7575 28.6667 26.8763 28.6667H29.1159C29.2347 28.6667 29.3486 28.6195 29.4326 28.5355C29.5166 28.4515 29.5638 28.3375 29.5638 28.2188V22.7631ZM15.6784 13.4375C15.324 13.4375 14.9776 13.5426 14.683 13.7395C14.3884 13.9363 14.1587 14.2161 14.0231 14.5435C13.8875 14.8709 13.852 15.2312 13.9211 15.5787C13.9903 15.9263 14.1609 16.2455 14.4115 16.4961C14.6621 16.7466 14.9813 16.9173 15.3288 16.9864C15.6764 17.0555 16.0366 17.0201 16.364 16.8845C16.6914 16.7488 16.9712 16.5192 17.1681 16.2246C17.365 15.9299 17.4701 15.5835 17.4701 15.2292C17.4701 14.754 17.2813 14.2983 16.9453 13.9623C16.6093 13.6263 16.1536 13.4375 15.6784 13.4375Z" fill="white"/>
</svg>
