<svg width="137" height="20" viewBox="0 0 137 20" fill="none" xmlns="http://www.w3.org/2000/svg">
<path d="M13.0949 6.17436C12.7196 5.71747 12.2545 5.36664 11.6997 5.12188C11.1612 4.87711 10.533 4.75473 9.81504 4.75473C9.09706 4.75473 8.42804 4.89343 7.80797 5.17083C7.20422 5.44823 6.6739 5.83985 6.21701 6.3457C5.77643 6.83523 5.4256 7.42266 5.16452 8.108C4.91976 8.79334 4.79738 9.53579 4.79738 10.3354C4.79738 11.1512 4.91976 11.9018 5.16452 12.5872C5.4256 13.2562 5.77643 13.8436 6.21701 14.3495C6.65758 14.839 7.17159 15.2225 7.75902 15.4999C8.36277 15.7773 9.00732 15.916 9.69266 15.916C10.4759 15.916 11.1694 15.7528 11.7732 15.4264C12.3769 15.1001 12.8746 14.6432 13.2662 14.0558L16.4481 16.43C15.7139 17.458 14.7838 18.2168 13.6578 18.7063C12.5319 19.1958 11.3734 19.4406 10.1822 19.4406C8.82782 19.4406 7.57953 19.2284 6.4373 18.8042C5.29506 18.3799 4.30785 17.7762 3.47565 16.9929C2.64345 16.1934 1.99075 15.2306 1.51754 14.1047C1.06064 12.9788 0.832198 11.7223 0.832198 10.3354C0.832198 8.94836 1.06064 7.6919 1.51754 6.56599C1.99075 5.44007 2.64345 4.48549 3.47565 3.70225C4.30785 2.90268 5.29506 2.29077 6.4373 1.86651C7.57953 1.44226 8.82782 1.23013 10.1822 1.23013C10.6717 1.23013 11.1776 1.27908 11.6997 1.37699C12.2382 1.45857 12.7604 1.59727 13.2662 1.79309C13.7884 1.9889 14.2861 2.24998 14.7593 2.57633C15.2325 2.90268 15.6567 3.30246 16.032 3.77567L13.0949 6.17436ZM21.7245 0.495836V8.71991H21.7735C21.8551 8.49146 21.9938 8.26302 22.1896 8.03457C22.3854 7.80612 22.622 7.60215 22.8994 7.42266C23.1768 7.24317 23.5032 7.09631 23.8785 6.98208C24.2538 6.86786 24.6617 6.81075 25.1023 6.81075C26.0324 6.81075 26.783 6.95761 27.3541 7.25132C27.9252 7.52872 28.3658 7.92035 28.6758 8.42619C29.0022 8.93204 29.2225 9.52763 29.3367 10.213C29.4509 10.8983 29.508 11.6408 29.508 12.4403V19H25.8366V13.1746C25.8366 12.8319 25.8203 12.4811 25.7876 12.1221C25.7713 11.7468 25.6979 11.4042 25.5673 11.0941C25.4531 10.7841 25.2655 10.5312 25.0044 10.3354C24.7596 10.1395 24.4006 10.0416 23.9274 10.0416C23.4542 10.0416 23.0707 10.1314 22.777 10.3109C22.4833 10.4741 22.2549 10.7025 22.0917 10.9962C21.9448 11.2736 21.8469 11.5918 21.798 11.9508C21.749 12.3098 21.7245 12.6851 21.7245 13.0767V19H18.0531V0.495836H21.7245ZM43.367 16.944C42.7796 17.6946 42.0371 18.2739 41.1397 18.6818C40.2422 19.0897 39.3121 19.2937 38.3494 19.2937C37.4356 19.2937 36.5707 19.1469 35.7549 18.8531C34.9553 18.5594 34.2536 18.1433 33.6499 17.6048C33.0625 17.05 32.5974 16.3892 32.2547 15.6223C31.9121 14.8553 31.7407 13.9987 31.7407 13.0522C31.7407 12.1058 31.9121 11.2491 32.2547 10.4822C32.5974 9.71528 33.0625 9.06258 33.6499 8.5241C34.2536 7.9693 34.9553 7.54504 35.7549 7.25132C36.5707 6.95761 37.4356 6.81075 38.3494 6.81075C39.1979 6.81075 39.9648 6.95761 40.6501 7.25132C41.3518 7.54504 41.9392 7.9693 42.4125 8.5241C42.902 9.06258 43.2773 9.71528 43.5384 10.4822C43.7994 11.2491 43.93 12.1058 43.93 13.0522V14.2026H35.4122C35.5591 14.9043 35.8772 15.4672 36.3668 15.8915C36.8563 16.2994 37.4601 16.5034 38.178 16.5034C38.7818 16.5034 39.2876 16.3729 39.6956 16.1118C40.1198 15.8344 40.487 15.4836 40.797 15.0593L43.367 16.944ZM40.2585 11.706C40.2748 11.086 40.0709 10.5556 39.6466 10.1151C39.2224 9.67449 38.6757 9.4542 38.0067 9.4542C37.5988 9.4542 37.2398 9.51947 36.9297 9.65001C36.6197 9.78055 36.3505 9.95189 36.122 10.164C35.9099 10.3598 35.7385 10.5964 35.608 10.8738C35.4938 11.1349 35.4285 11.4123 35.4122 11.706H40.2585ZM46.1627 7.10447H49.6873V8.71991H49.7362C49.8505 8.49146 50.0136 8.26302 50.2258 8.03457C50.4379 7.80612 50.6908 7.60215 50.9845 7.42266C51.2783 7.24317 51.6128 7.09631 51.9881 6.98208C52.3634 6.86786 52.7713 6.81075 53.2119 6.81075C54.0441 6.81075 54.7784 6.98208 55.4148 7.32475C56.0675 7.66742 56.557 8.2059 56.8834 8.9402C57.3076 8.17327 57.8216 7.62663 58.4254 7.30028C59.0291 6.97393 59.7716 6.81075 60.6527 6.81075C61.4523 6.81075 62.1213 6.94945 62.6598 7.22685C63.2146 7.48793 63.647 7.85508 63.957 8.32829C64.2834 8.78518 64.5118 9.33182 64.6424 9.96821C64.7892 10.5883 64.8627 11.2573 64.8627 11.9753V19H61.1912V12.0732C61.1912 11.5184 61.0688 11.0452 60.8241 10.6535C60.5956 10.2456 60.1795 10.0416 59.5758 10.0416C59.1515 10.0416 58.7925 10.1151 58.4988 10.2619C58.2214 10.3925 57.993 10.5801 57.8135 10.8249C57.6503 11.0696 57.5279 11.3552 57.4463 11.6816C57.381 12.0079 57.3484 12.3506 57.3484 12.7096V19H53.677V12.7096C53.677 12.4974 53.6688 12.2364 53.6525 11.9263C53.6362 11.6163 53.579 11.3226 53.4811 11.0452C53.3832 10.7678 53.2201 10.5312 52.9916 10.3354C52.7795 10.1395 52.4613 10.0416 52.037 10.0416C51.5638 10.0416 51.1804 10.1314 50.8866 10.3109C50.5929 10.4741 50.3645 10.7025 50.2013 10.9962C50.0544 11.2736 49.9565 11.5918 49.9076 11.9508C49.8586 12.3098 49.8342 12.6851 49.8342 13.0767V19H46.1627V7.10447ZM67.0195 13.0522C67.0195 12.1058 67.1908 11.2491 67.5335 10.4822C67.8761 9.71528 68.3412 9.06258 68.9286 8.5241C69.5324 7.9693 70.234 7.54504 71.0336 7.25132C71.8495 6.95761 72.7143 6.81075 73.6281 6.81075C74.5419 6.81075 75.3986 6.95761 76.1981 7.25132C77.014 7.54504 77.7157 7.9693 78.3031 8.5241C78.9068 9.06258 79.38 9.71528 79.7227 10.4822C80.0654 11.2491 80.2367 12.1058 80.2367 13.0522C80.2367 13.9987 80.0654 14.8553 79.7227 15.6223C79.38 16.3892 78.9068 17.05 78.3031 17.6048C77.7157 18.1433 77.014 18.5594 76.1981 18.8531C75.3986 19.1469 74.5419 19.2937 73.6281 19.2937C72.7143 19.2937 71.8495 19.1469 71.0336 18.8531C70.234 18.5594 69.5324 18.1433 68.9286 17.6048C68.3412 17.05 67.8761 16.3892 67.5335 15.6223C67.1908 14.8553 67.0195 13.9987 67.0195 13.0522ZM70.6909 13.0522C70.6909 13.9497 70.9438 14.6758 71.4497 15.2306C71.9719 15.7854 72.698 16.0628 73.6281 16.0628C74.5582 16.0628 75.2762 15.7854 75.782 15.2306C76.3042 14.6758 76.5653 13.9497 76.5653 13.0522C76.5653 12.1548 76.3042 11.4286 75.782 10.8738C75.2762 10.319 74.5582 10.0416 73.6281 10.0416C72.698 10.0416 71.9719 10.319 71.4497 10.8738C70.9438 11.4286 70.6909 12.1548 70.6909 13.0522ZM94.8822 19H91.5045V17.4335H91.4555C91.3087 17.6456 91.1128 17.8659 90.8681 18.0944C90.6396 18.3065 90.3622 18.5023 90.0359 18.6818C89.7259 18.8613 89.375 19.0082 88.9834 19.1224C88.6081 19.2366 88.2165 19.2937 87.8085 19.2937C86.9274 19.2937 86.1278 19.1469 85.4098 18.8531C84.6919 18.5431 84.0718 18.1188 83.5496 17.5804C83.0438 17.0256 82.6522 16.3729 82.3748 15.6223C82.0974 14.8716 81.9587 14.0476 81.9587 13.1501C81.9587 12.3179 82.0811 11.5265 82.3258 10.7759C82.5869 10.009 82.9459 9.33182 83.4028 8.74439C83.876 8.15695 84.4471 7.6919 85.1161 7.34923C85.7851 6.99024 86.5439 6.81075 87.3924 6.81075C88.1594 6.81075 88.8692 6.93313 89.5219 7.1779C90.1909 7.40634 90.7375 7.80612 91.1618 8.37724H91.2108V0.495836H94.8822V19ZM91.5045 13.0522C91.5045 12.1548 91.2434 11.4286 90.7212 10.8738C90.2154 10.319 89.4974 10.0416 88.5673 10.0416C87.6372 10.0416 86.9111 10.319 86.3889 10.8738C85.8831 11.4286 85.6301 12.1548 85.6301 13.0522C85.6301 13.9497 85.8831 14.6758 86.3889 15.2306C86.9111 15.7854 87.6372 16.0628 88.5673 16.0628C89.4974 16.0628 90.2154 15.7854 90.7212 15.2306C91.2434 14.6758 91.5045 13.9497 91.5045 13.0522ZM105.282 17.5069H105.233C104.825 18.1433 104.278 18.6002 103.593 18.8776C102.924 19.155 102.214 19.2937 101.463 19.2937C100.909 19.2937 100.37 19.2121 99.8481 19.049C99.3422 18.9021 98.8935 18.6736 98.5019 18.3636C98.1102 18.0536 97.8002 17.6701 97.5717 17.2132C97.3433 16.7563 97.2291 16.226 97.2291 15.6223C97.2291 14.9369 97.3515 14.3576 97.5962 13.8844C97.8573 13.4112 98.2 13.0196 98.6242 12.7096C99.0648 12.3995 99.5625 12.1629 100.117 11.9997C100.672 11.8203 101.243 11.6897 101.831 11.6081C102.434 11.5265 103.03 11.4776 103.617 11.4613C104.221 11.4449 104.776 11.4368 105.282 11.4368C105.282 10.7841 105.045 10.2701 104.572 9.89478C104.115 9.50315 103.568 9.30734 102.932 9.30734C102.328 9.30734 101.774 9.43788 101.268 9.69897C100.778 9.94373 100.338 10.2864 99.946 10.727L97.9878 8.71991C98.6732 8.08352 99.4728 7.61031 100.387 7.30028C101.3 6.97393 102.247 6.81075 103.226 6.81075C104.303 6.81075 105.184 6.94945 105.869 7.22685C106.571 7.48793 107.126 7.87955 107.534 8.40172C107.958 8.92388 108.252 9.56842 108.415 10.3354C108.578 11.086 108.66 11.959 108.66 12.9543V19H105.282V17.5069ZM104.376 13.7865C104.099 13.7865 103.748 13.8028 103.324 13.8355C102.916 13.8518 102.516 13.9171 102.124 14.0313C101.749 14.1455 101.423 14.3168 101.145 14.5453C100.884 14.7737 100.754 15.0919 100.754 15.4999C100.754 15.9404 100.941 16.2668 101.317 16.4789C101.692 16.6911 102.084 16.7971 102.492 16.7971C102.85 16.7971 103.193 16.7482 103.52 16.6503C103.862 16.5524 104.164 16.4137 104.425 16.2342C104.686 16.0547 104.89 15.8262 105.037 15.5488C105.2 15.2714 105.282 14.9451 105.282 14.5698V13.7865H104.376ZM110.963 7.10447H114.488V8.71991H114.537C114.651 8.49146 114.814 8.26302 115.026 8.03457C115.238 7.80612 115.491 7.60215 115.785 7.42266C116.079 7.24317 116.413 7.09631 116.788 6.98208C117.164 6.86786 117.572 6.81075 118.012 6.81075C118.942 6.81075 119.693 6.95761 120.264 7.25132C120.835 7.52872 121.276 7.92035 121.586 8.42619C121.912 8.93204 122.132 9.52763 122.247 10.213C122.361 10.8983 122.418 11.6408 122.418 12.4403V19H118.747V13.1746C118.747 12.8319 118.73 12.4811 118.698 12.1221C118.681 11.7468 118.608 11.4042 118.477 11.0941C118.363 10.7841 118.175 10.5312 117.914 10.3354C117.67 10.1395 117.311 10.0416 116.837 10.0416C116.364 10.0416 115.981 10.1314 115.687 10.3109C115.393 10.4741 115.165 10.7025 115.002 10.9962C114.855 11.2736 114.757 11.5918 114.708 11.9508C114.659 12.3098 114.634 12.6851 114.634 13.0767V19H110.963V7.10447ZM136.277 16.944C135.69 17.6946 134.947 18.2739 134.05 18.6818C133.152 19.0897 132.222 19.2937 131.259 19.2937C130.346 19.2937 129.481 19.1469 128.665 18.8531C127.865 18.5594 127.164 18.1433 126.56 17.6048C125.972 17.05 125.507 16.3892 125.165 15.6223C124.822 14.8553 124.651 13.9987 124.651 13.0522C124.651 12.1058 124.822 11.2491 125.165 10.4822C125.507 9.71528 125.972 9.06258 126.56 8.5241C127.164 7.9693 127.865 7.54504 128.665 7.25132C129.481 6.95761 130.346 6.81075 131.259 6.81075C132.108 6.81075 132.875 6.95761 133.56 7.25132C134.262 7.54504 134.849 7.9693 135.322 8.5241C135.812 9.06258 136.187 9.71528 136.448 10.4822C136.709 11.2491 136.84 12.1058 136.84 13.0522V14.2026H128.322C128.469 14.9043 128.787 15.4672 129.277 15.8915C129.766 16.2994 130.37 16.5034 131.088 16.5034C131.692 16.5034 132.198 16.3729 132.606 16.1118C133.03 15.8344 133.397 15.4836 133.707 15.0593L136.277 16.944ZM133.168 11.706C133.185 11.086 132.981 10.5556 132.557 10.1151C132.132 9.67449 131.586 9.4542 130.917 9.4542C130.509 9.4542 130.15 9.51947 129.84 9.65001C129.53 9.78055 129.26 9.95189 129.032 10.164C128.82 10.3598 128.649 10.5964 128.518 10.8738C128.404 11.1349 128.338 11.4123 128.322 11.706H133.168Z" fill="#01A9E4"/>
</svg>
