<svg width="209" height="41" viewBox="0 0 209 41" fill="none" xmlns="http://www.w3.org/2000/svg">
<path d="M68.0949 20.1744C67.7196 19.7175 67.2545 19.3666 66.6997 19.1219C66.1612 18.8771 65.533 18.7547 64.815 18.7547C64.0971 18.7547 63.428 18.8934 62.808 19.1708C62.2042 19.4482 61.6739 19.8399 61.217 20.3457C60.7764 20.8352 60.4256 21.4227 60.1645 22.108C59.9198 22.7933 59.7974 23.5358 59.7974 24.3354C59.7974 25.1512 59.9198 25.9018 60.1645 26.5872C60.4256 27.2562 60.7764 27.8436 61.217 28.3495C61.6576 28.839 62.1716 29.2225 62.759 29.4999C63.3628 29.7773 64.0073 29.916 64.6927 29.916C65.4759 29.916 66.1694 29.7528 66.7732 29.4264C67.3769 29.1001 67.8746 28.6432 68.2662 28.0558L71.4481 30.43C70.7139 31.458 69.7838 32.2168 68.6578 32.7063C67.5319 33.1958 66.3734 33.4406 65.1822 33.4406C63.8278 33.4406 62.5795 33.2284 61.4373 32.8042C60.2951 32.3799 59.3078 31.7762 58.4756 30.9929C57.6435 30.1934 56.9907 29.2306 56.5175 28.1047C56.0606 26.9788 55.8322 25.7223 55.8322 24.3354C55.8322 22.9484 56.0606 21.6919 56.5175 20.566C56.9907 19.4401 57.6435 18.4855 58.4756 17.7022C59.3078 16.9027 60.2951 16.2908 61.4373 15.8665C62.5795 15.4423 63.8278 15.2301 65.1822 15.2301C65.6717 15.2301 66.1776 15.2791 66.6997 15.377C67.2382 15.4586 67.7604 15.5973 68.2662 15.7931C68.7884 15.9889 69.2861 16.25 69.7593 16.5763C70.2325 16.9027 70.6567 17.3025 71.032 17.7757L68.0949 20.1744ZM76.7245 14.4958V22.7199H76.7735C76.8551 22.4915 76.9938 22.263 77.1896 22.0346C77.3854 21.8061 77.622 21.6022 77.8994 21.4227C78.1768 21.2432 78.5032 21.0963 78.8785 20.9821C79.2538 20.8679 79.6617 20.8107 80.1023 20.8107C81.0324 20.8107 81.783 20.9576 82.3541 21.2513C82.9252 21.5287 83.3658 21.9203 83.6758 22.4262C84.0022 22.932 84.2225 23.5276 84.3367 24.213C84.4509 24.8983 84.508 25.6408 84.508 26.4403V33H80.8366V27.1746C80.8366 26.8319 80.8203 26.4811 80.7876 26.1221C80.7713 25.7468 80.6979 25.4042 80.5673 25.0941C80.4531 24.7841 80.2655 24.5312 80.0044 24.3354C79.7596 24.1395 79.4006 24.0416 78.9274 24.0416C78.4542 24.0416 78.0707 24.1314 77.777 24.3109C77.4833 24.4741 77.2549 24.7025 77.0917 24.9962C76.9448 25.2736 76.8469 25.5918 76.798 25.9508C76.749 26.3098 76.7245 26.6851 76.7245 27.0767V33H73.0531V14.4958H76.7245ZM98.367 30.944C97.7796 31.6946 97.0371 32.2739 96.1397 32.6818C95.2422 33.0897 94.3121 33.2937 93.3494 33.2937C92.4356 33.2937 91.5707 33.1469 90.7549 32.8531C89.9553 32.5594 89.2536 32.1433 88.6499 31.6048C88.0625 31.05 87.5974 30.3892 87.2547 29.6223C86.9121 28.8553 86.7407 27.9987 86.7407 27.0522C86.7407 26.1058 86.9121 25.2491 87.2547 24.4822C87.5974 23.7153 88.0625 23.0626 88.6499 22.5241C89.2536 21.9693 89.9553 21.545 90.7549 21.2513C91.5707 20.9576 92.4356 20.8107 93.3494 20.8107C94.1979 20.8107 94.9648 20.9576 95.6501 21.2513C96.3518 21.545 96.9392 21.9693 97.4125 22.5241C97.902 23.0626 98.2773 23.7153 98.5384 24.4822C98.7994 25.2491 98.93 26.1058 98.93 27.0522V28.2026H90.4122C90.5591 28.9043 90.8772 29.4672 91.3668 29.8915C91.8563 30.2994 92.4601 30.5034 93.178 30.5034C93.7818 30.5034 94.2876 30.3729 94.6956 30.1118C95.1198 29.8344 95.487 29.4836 95.797 29.0593L98.367 30.944ZM95.2585 25.706C95.2748 25.086 95.0709 24.5556 94.6466 24.1151C94.2224 23.6745 93.6757 23.4542 93.0067 23.4542C92.5988 23.4542 92.2398 23.5195 91.9297 23.65C91.6197 23.7806 91.3505 23.9519 91.122 24.164C90.9099 24.3598 90.7385 24.5964 90.608 24.8738C90.4938 25.1349 90.4285 25.4123 90.4122 25.706H95.2585ZM101.163 21.1045H104.687V22.7199H104.736C104.85 22.4915 105.014 22.263 105.226 22.0346C105.438 21.8061 105.691 21.6022 105.985 21.4227C106.278 21.2432 106.613 21.0963 106.988 20.9821C107.363 20.8679 107.771 20.8107 108.212 20.8107C109.044 20.8107 109.778 20.9821 110.415 21.3248C111.067 21.6674 111.557 22.2059 111.883 22.9402C112.308 22.1733 112.822 21.6266 113.425 21.3003C114.029 20.9739 114.772 20.8107 115.653 20.8107C116.452 20.8107 117.121 20.9494 117.66 21.2268C118.215 21.4879 118.647 21.8551 118.957 22.3283C119.283 22.7852 119.512 23.3318 119.642 23.9682C119.789 24.5883 119.863 25.2573 119.863 25.9753V33H116.191V26.0732C116.191 25.5184 116.069 25.0452 115.824 24.6535C115.596 24.2456 115.18 24.0416 114.576 24.0416C114.152 24.0416 113.793 24.1151 113.499 24.2619C113.221 24.3925 112.993 24.5801 112.813 24.8249C112.65 25.0696 112.528 25.3552 112.446 25.6816C112.381 26.0079 112.348 26.3506 112.348 26.7096V33H108.677V26.7096C108.677 26.4974 108.669 26.2364 108.652 25.9263C108.636 25.6163 108.579 25.3226 108.481 25.0452C108.383 24.7678 108.22 24.5312 107.992 24.3354C107.779 24.1395 107.461 24.0416 107.037 24.0416C106.564 24.0416 106.18 24.1314 105.887 24.3109C105.593 24.4741 105.364 24.7025 105.201 24.9962C105.054 25.2736 104.957 25.5918 104.908 25.9508C104.859 26.3098 104.834 26.6851 104.834 27.0767V33H101.163V21.1045ZM122.019 27.0522C122.019 26.1058 122.191 25.2491 122.533 24.4822C122.876 23.7153 123.341 23.0626 123.929 22.5241C124.532 21.9693 125.234 21.545 126.034 21.2513C126.849 20.9576 127.714 20.8107 128.628 20.8107C129.542 20.8107 130.399 20.9576 131.198 21.2513C132.014 21.545 132.716 21.9693 133.303 22.5241C133.907 23.0626 134.38 23.7153 134.723 24.4822C135.065 25.2491 135.237 26.1058 135.237 27.0522C135.237 27.9987 135.065 28.8553 134.723 29.6223C134.38 30.3892 133.907 31.05 133.303 31.6048C132.716 32.1433 132.014 32.5594 131.198 32.8531C130.399 33.1469 129.542 33.2937 128.628 33.2937C127.714 33.2937 126.849 33.1469 126.034 32.8531C125.234 32.5594 124.532 32.1433 123.929 31.6048C123.341 31.05 122.876 30.3892 122.533 29.6223C122.191 28.8553 122.019 27.9987 122.019 27.0522ZM125.691 27.0522C125.691 27.9497 125.944 28.6758 126.45 29.2306C126.972 29.7854 127.698 30.0628 128.628 30.0628C129.558 30.0628 130.276 29.7854 130.782 29.2306C131.304 28.6758 131.565 27.9497 131.565 27.0522C131.565 26.1548 131.304 25.4286 130.782 24.8738C130.276 24.319 129.558 24.0416 128.628 24.0416C127.698 24.0416 126.972 24.319 126.45 24.8738C125.944 25.4286 125.691 26.1548 125.691 27.0522ZM149.882 33H146.504V31.4335H146.456C146.309 31.6456 146.113 31.8659 145.868 32.0944C145.64 32.3065 145.362 32.5023 145.036 32.6818C144.726 32.8613 144.375 33.0082 143.983 33.1224C143.608 33.2366 143.216 33.2937 142.809 33.2937C141.927 33.2937 141.128 33.1469 140.41 32.8531C139.692 32.5431 139.072 32.1188 138.55 31.5804C138.044 31.0256 137.652 30.3729 137.375 29.6223C137.097 28.8716 136.959 28.0476 136.959 27.1501C136.959 26.3179 137.081 25.5265 137.326 24.7759C137.587 24.009 137.946 23.3318 138.403 22.7444C138.876 22.157 139.447 21.6919 140.116 21.3492C140.785 20.9902 141.544 20.8107 142.392 20.8107C143.159 20.8107 143.869 20.9331 144.522 21.1779C145.191 21.4063 145.738 21.8061 146.162 22.3772H146.211V14.4958H149.882V33ZM146.504 27.0522C146.504 26.1548 146.243 25.4286 145.721 24.8738C145.215 24.319 144.497 24.0416 143.567 24.0416C142.637 24.0416 141.911 24.319 141.389 24.8738C140.883 25.4286 140.63 26.1548 140.63 27.0522C140.63 27.9497 140.883 28.6758 141.389 29.2306C141.911 29.7854 142.637 30.0628 143.567 30.0628C144.497 30.0628 145.215 29.7854 145.721 29.2306C146.243 28.6758 146.504 27.9497 146.504 27.0522ZM160.282 31.5069H160.233C159.825 32.1433 159.278 32.6002 158.593 32.8776C157.924 33.155 157.214 33.2937 156.463 33.2937C155.909 33.2937 155.37 33.2121 154.848 33.049C154.342 32.9021 153.893 32.6736 153.502 32.3636C153.11 32.0536 152.8 31.6701 152.572 31.2132C152.343 30.7563 152.229 30.226 152.229 29.6223C152.229 28.9369 152.351 28.3576 152.596 27.8844C152.857 27.4112 153.2 27.0196 153.624 26.7096C154.065 26.3995 154.562 26.1629 155.117 25.9997C155.672 25.8203 156.243 25.6897 156.831 25.6081C157.434 25.5265 158.03 25.4776 158.617 25.4613C159.221 25.4449 159.776 25.4368 160.282 25.4368C160.282 24.7841 160.045 24.2701 159.572 23.8948C159.115 23.5032 158.568 23.3073 157.932 23.3073C157.328 23.3073 156.774 23.4379 156.268 23.699C155.778 23.9437 155.338 24.2864 154.946 24.727L152.988 22.7199C153.673 22.0835 154.473 21.6103 155.387 21.3003C156.3 20.9739 157.247 20.8107 158.226 20.8107C159.303 20.8107 160.184 20.9494 160.869 21.2268C161.571 21.4879 162.126 21.8796 162.534 22.4017C162.958 22.9239 163.252 23.5684 163.415 24.3354C163.578 25.086 163.66 25.959 163.66 26.9543V33H160.282V31.5069ZM159.376 27.7865C159.099 27.7865 158.748 27.8028 158.324 27.8355C157.916 27.8518 157.516 27.9171 157.124 28.0313C156.749 28.1455 156.423 28.3168 156.145 28.5453C155.884 28.7737 155.754 29.0919 155.754 29.4999C155.754 29.9404 155.941 30.2668 156.317 30.4789C156.692 30.6911 157.084 30.7971 157.492 30.7971C157.85 30.7971 158.193 30.7482 158.52 30.6503C158.862 30.5524 159.164 30.4137 159.425 30.2342C159.686 30.0547 159.89 29.8262 160.037 29.5488C160.2 29.2714 160.282 28.9451 160.282 28.5698V27.7865H159.376ZM165.963 21.1045H169.488V22.7199H169.537C169.651 22.4915 169.814 22.263 170.026 22.0346C170.238 21.8061 170.491 21.6022 170.785 21.4227C171.079 21.2432 171.413 21.0963 171.788 20.9821C172.164 20.8679 172.572 20.8107 173.012 20.8107C173.942 20.8107 174.693 20.9576 175.264 21.2513C175.835 21.5287 176.276 21.9203 176.586 22.4262C176.912 22.932 177.132 23.5276 177.247 24.213C177.361 24.8983 177.418 25.6408 177.418 26.4403V33H173.747V27.1746C173.747 26.8319 173.73 26.4811 173.698 26.1221C173.681 25.7468 173.608 25.4042 173.477 25.0941C173.363 24.7841 173.175 24.5312 172.914 24.3354C172.67 24.1395 172.311 24.0416 171.837 24.0416C171.364 24.0416 170.981 24.1314 170.687 24.3109C170.393 24.4741 170.165 24.7025 170.002 24.9962C169.855 25.2736 169.757 25.5918 169.708 25.9508C169.659 26.3098 169.634 26.6851 169.634 27.0767V33H165.963V21.1045ZM191.277 30.944C190.69 31.6946 189.947 32.2739 189.05 32.6818C188.152 33.0897 187.222 33.2937 186.259 33.2937C185.346 33.2937 184.481 33.1469 183.665 32.8531C182.865 32.5594 182.164 32.1433 181.56 31.6048C180.972 31.05 180.507 30.3892 180.165 29.6223C179.822 28.8553 179.651 27.9987 179.651 27.0522C179.651 26.1058 179.822 25.2491 180.165 24.4822C180.507 23.7153 180.972 23.0626 181.56 22.5241C182.164 21.9693 182.865 21.545 183.665 21.2513C184.481 20.9576 185.346 20.8107 186.259 20.8107C187.108 20.8107 187.875 20.9576 188.56 21.2513C189.262 21.545 189.849 21.9693 190.322 22.5241C190.812 23.0626 191.187 23.7153 191.448 24.4822C191.709 25.2491 191.84 26.1058 191.84 27.0522V28.2026H183.322C183.469 28.9043 183.787 29.4672 184.277 29.8915C184.766 30.2994 185.37 30.5034 186.088 30.5034C186.692 30.5034 187.198 30.3729 187.606 30.1118C188.03 29.8344 188.397 29.4836 188.707 29.0593L191.277 30.944ZM188.168 25.706C188.185 25.086 187.981 24.5556 187.557 24.1151C187.132 23.6745 186.586 23.4542 185.917 23.4542C185.509 23.4542 185.15 23.5195 184.84 23.65C184.53 23.7806 184.26 23.9519 184.032 24.164C183.82 24.3598 183.649 24.5964 183.518 24.8738C183.404 25.1349 183.338 25.4123 183.322 25.706H188.168Z" fill="#01A9E4"/>
<g clip-path="url(#clip0)">
<path fill-rule="evenodd" clip-rule="evenodd" d="M29.4 8.75156V4.55156C29.4 2.24156 27.51 0.351562 25.2 0.351562H16.8C14.49 0.351562 12.6 2.24156 12.6 4.55156V8.75156H4.2C1.89 8.75156 0 10.6416 0 12.9516V36.0516C0 38.3616 1.89 40.2516 4.2 40.2516H37.8C40.11 40.2516 42 38.3616 42 36.0516V12.9516C42 10.6416 40.11 8.75156 37.8 8.75156H29.4ZM16.8 4.55156H25.2V8.75156H16.8V4.55156Z" fill="#01A9E4"/>
</g>
<path d="M12.049 15.6707H16.4058L20.6891 27.0278H20.7381L25.0949 15.6707H29.1824L22.0353 33H18.9758L12.049 15.6707Z" fill="#FEFEFE"/>
<defs>
<clipPath id="clip0">
<rect width="42" height="39.9" fill="white" transform="translate(0 0.351562)"/>
</clipPath>
</defs>
</svg>
