<svg width="43" height="43" viewBox="0 0 43 43" fill="none" xmlns="http://www.w3.org/2000/svg">
<rect width="43" height="43" rx="6.71875" fill="#1F2D3D"/>
<g clip-path="url(#clip0)">
<path d="M21.5 10.75C15.5875 10.75 10.75 15.5875 10.75 21.5C10.75 26.0688 13.5719 29.9656 17.6031 31.4438C17.4688 30.6375 17.4688 29.2938 17.6031 28.3531C17.7375 27.5469 18.8125 22.9781 18.8125 22.9781C18.8125 22.9781 18.5438 22.4406 18.5438 21.5C18.5438 20.0219 19.4844 18.8125 20.5594 18.8125C21.5 18.8125 21.9031 19.4844 21.9031 20.2906C21.9031 21.2312 21.3656 22.575 20.9625 23.9187C20.6937 24.9938 21.5 25.8 22.575 25.8C24.4563 25.8 25.9344 23.7844 25.9344 20.8281C25.9344 18.275 24.0531 16.3937 21.5 16.3937C18.4094 16.3937 16.6625 18.6781 16.6625 21.0969C16.6625 22.0375 17.0656 22.9781 17.4688 23.5156V24.0531C17.3344 24.4562 17.2 25.1281 17.2 25.2625C17.2 25.3969 17.0656 25.5312 16.7969 25.3969C15.4531 24.725 14.6469 22.8438 14.6469 21.2312C14.6469 17.8719 17.0656 14.7812 21.7688 14.7812C25.5312 14.7812 28.3531 17.4688 28.3531 20.9625C28.3531 24.725 26.0687 27.6812 22.7094 27.6812C21.6344 27.6812 20.5594 27.1437 20.2906 26.4719C20.2906 26.4719 19.7531 28.4875 19.6187 29.025C19.35 29.9656 18.6781 31.175 18.275 31.8469C19.35 32.1156 20.425 32.25 21.5 32.25C27.4125 32.25 32.25 27.4125 32.25 21.5C32.25 15.5875 27.4125 10.75 21.5 10.75Z" fill="white"/>
</g>
<defs>
<clipPath id="clip0">
<rect width="21.5" height="21.5" fill="white" transform="translate(10.75 10.75)"/>
</clipPath>
</defs>
</svg>
