<svg width="89" height="89" viewBox="0 0 89 89" fill="none" xmlns="http://www.w3.org/2000/svg">
<g clip-path="url(#clip0)">
<path d="M8.41654 78.5483L59.5651 81.9693C60.519 82.0334 61.3448 81.3114 61.4072 80.3575L66.3222 6.86173C66.3863 5.9078 65.6644 5.08199 64.7104 5.01966L13.5636 1.59868C12.6097 1.53462 11.7839 2.25656 11.7198 3.21049L6.80473 76.7063C6.74068 77.6602 7.46262 78.486 8.41654 78.5483Z" fill="#01A9E4"/>
<path d="M3.22345 87.5263H42.3743L56.2175 73.7437V12.1365C56.2175 11.1809 55.4419 10.4053 54.4863 10.4053H3.22345C2.2678 10.4053 1.49219 11.1809 1.49219 12.1365V85.7968C1.49219 86.7524 2.2678 87.5263 3.22345 87.5263Z" fill="white"/>
<path d="M54.4876 10.4053H47.5625C48.5182 10.4053 49.2938 11.1809 49.2938 12.1365V73.7454L49.2488 80.6843L56.2188 73.7454V12.1365C56.2188 11.1809 55.4432 10.4053 54.4876 10.4053Z" fill="white"/>
<path d="M42.375 87.5262V75.3641C42.375 74.4084 43.1506 73.6328 44.1063 73.6328H56.2182L42.375 87.5262Z" fill="white"/>
<path d="M78.4413 81.495H78.4396C75.9414 81.5071 73.9141 79.4971 73.9141 77.0058V40.038C73.9141 38.8642 74.8628 37.912 76.0366 37.9051L80.8201 37.8809C82.0025 37.8757 82.9634 38.8313 82.9634 40.0138V76.966C82.9617 79.4555 80.9378 81.4828 78.4413 81.495Z" fill="white"/>
<path d="M85.2467 43.1631L72.8491 43.2237C71.5852 43.2306 70.5586 44.2573 70.5586 45.5176C70.5586 46.778 71.5835 47.7942 72.8491 47.7891L82.9579 47.7388V61.1544C82.9579 62.4148 83.9828 63.4311 85.2484 63.4259C86.5122 63.4189 87.5389 62.3923 87.5389 61.1319V45.4345C87.5371 44.1742 86.5122 43.1579 85.2467 43.1631Z" fill="#5CB043"/>
<path d="M64.7975 3.7256L13.649 0.304615C11.9818 0.193814 10.5344 1.45764 10.4236 3.12485L10.0237 9.10811H3.22503C1.55436 9.10811 0.195312 10.4672 0.195312 12.1378V85.798C0.195312 87.4687 1.55436 88.8278 3.22503 88.8278H42.3759C42.7152 88.8278 43.0511 88.6893 43.2917 88.4503L49.2023 82.5658C49.2629 82.5779 49.3235 82.5883 49.3875 82.5935L59.4774 83.2687C61.0874 83.3743 62.5954 82.0654 62.7027 80.4484L67.6178 6.95268C67.7286 5.30105 66.4457 3.8364 64.7975 3.7256ZM43.6743 84.3853V75.3654C43.6743 75.1265 43.8682 74.9326 44.1072 74.9326H53.0924L43.6743 84.3853ZM60.111 80.2718C60.0694 80.5333 59.9154 80.6683 59.6505 80.6752L51.6382 80.1385L57.1349 74.666C57.3791 74.4219 57.5176 74.0912 57.5176 73.745V12.1378C57.5176 10.4672 56.1585 9.10811 54.4878 9.10811H40.9857C39.3064 9.10811 39.3064 11.705 40.9857 11.705H54.4878C54.7268 11.705 54.9207 11.8989 54.9207 12.1378V72.3357H44.1072C42.4365 72.3357 41.0774 73.6948 41.0774 75.3654V86.2291H3.22503C2.98611 86.2291 2.79221 86.0352 2.79221 85.7963V12.1378C2.79221 11.8989 2.98611 11.705 3.22503 11.705H34.071C35.7503 11.705 35.7503 9.10811 34.071 9.10811H12.6258L13.0136 3.29798C13.0552 3.03655 13.2092 2.90152 13.4741 2.89459L64.6227 6.31557C64.8841 6.35712 65.0191 6.51121 65.0261 6.77609L60.111 80.2718Z" fill="#060606"/>
<path d="M46.5648 41.2793H11.15C10.4333 41.2793 9.85156 41.861 9.85156 42.5777C9.85156 43.2945 10.4333 43.8762 11.15 43.8762H46.5631C47.2798 43.8762 47.8615 43.2945 47.8615 42.5777C47.8615 41.861 47.2816 41.2793 46.5648 41.2793Z" fill="#060606"/>
<path d="M46.5648 50.332H11.15C10.4333 50.332 9.85156 50.9137 9.85156 51.6305C9.85156 52.3472 10.4333 52.9289 11.15 52.9289H46.5631C47.2798 52.9289 47.8615 52.3472 47.8615 51.6305C47.8615 50.9137 47.2816 50.332 46.5648 50.332Z" fill="#060606"/>
<path d="M9.85156 33.527C9.85156 34.2437 10.4333 34.8254 11.15 34.8254H46.5631C47.2798 34.8254 47.8615 34.2437 47.8615 33.527C47.8615 32.8102 47.2798 32.2285 46.5631 32.2285H11.15C10.4333 32.2285 9.85156 32.8102 9.85156 33.527Z" fill="#060606"/>
<path d="M16.0898 24.4742C16.0898 25.191 16.6715 25.7727 17.3883 25.7727H40.3259C41.0426 25.7727 41.6243 25.191 41.6243 24.4742C41.6243 23.7575 41.0426 23.1758 40.3259 23.1758H17.3883C16.6715 23.1758 16.0898 23.7575 16.0898 24.4742Z" fill="#060606"/>
<path d="M33.9148 76.2059C31.5793 76.2128 29.2438 76.218 26.9083 76.2215C26.1241 76.2232 25.3381 76.2232 24.5538 76.225C23.1325 76.2267 22.1733 75.941 21.8548 74.376C21.5847 73.0533 19.7149 73.2316 19.3514 74.376C18.4528 77.2049 16.9674 76.0969 16.1347 74.1942C15.3037 72.2967 15.0907 70.1725 14.7289 68.1521C14.4623 66.6684 12.2168 67.0839 12.1787 68.4966C12.1268 70.3577 11.9537 72.1894 11.481 73.9951C10.9928 75.8579 10.2639 77.6481 9.53855 79.4278C8.90664 80.979 11.4204 81.6473 12.042 80.1186C12.6843 78.5414 13.3283 76.9556 13.8061 75.3212C14.696 77.4611 16.5363 79.8814 19.1609 78.4548C19.6491 78.19 20.1045 77.8125 20.5044 77.3728C21.8686 78.95 23.8994 78.8253 25.7986 78.8236C28.5046 78.8201 31.2088 78.8149 33.9148 78.8063C35.5855 78.7994 35.5872 76.2025 33.9148 76.2059Z" fill="#060606"/>
<path d="M87.7866 42.9073C87.1114 42.2355 86.1834 41.891 85.2416 41.8668L84.26 41.872V40.016C84.26 38.8855 83.5883 37.6909 82.6274 37.0971V34.4829C82.6274 29.1039 74.2533 29.1281 74.2533 34.5089V37.1231C73.2734 37.729 72.6172 38.8093 72.6172 40.0403V41.9412C68.2942 42.2355 68.2821 48.823 72.6224 49.0792C72.6501 54.8928 72.6484 60.6095 72.6172 66.52C72.6086 68.1491 75.2055 68.2461 75.2141 66.5339C75.2453 60.6181 75.247 54.8963 75.2193 49.0792L81.6614 49.0481C81.6614 49.0481 81.6527 68.2392 81.6527 76.8834C81.6527 81.0973 75.2089 81.125 75.2089 76.8401L75.2107 74.4717C75.3111 72.7958 72.7194 72.64 72.619 74.3159V76.5371C72.619 78.4415 73.2076 80.055 74.3485 81.189C74.4506 83.9054 75.595 86.5352 77.5288 88.4534C78.0828 89.004 78.8515 88.836 79.3882 88.4223C81.3549 86.4503 82.4647 83.8534 82.5339 81.08C83.3909 80.2264 84.2496 79.366 84.2496 76.4228L84.2513 64.5896C86.4968 65.2285 88.8375 63.4903 88.8375 61.1358V45.4384C88.8375 44.4792 88.4635 43.5807 87.7866 42.9073ZM81.419 39.4239C81.5783 39.5815 81.6648 39.791 81.6648 40.0143V41.8823L75.2141 41.9135V40.0368C75.2141 39.6525 75.4773 39.3305 75.8322 39.2352L81.419 39.4239ZM78.4464 32.9126C79.2428 32.9126 80.0305 33.6935 80.0305 34.4812V36.5881L76.8502 36.6037V34.5071C76.8502 33.6311 77.5669 32.9161 78.4464 32.9126ZM78.4447 85.5259C77.8405 84.6706 77.4042 83.7028 77.1601 82.6848C77.5617 82.7714 77.9686 82.8182 78.3771 82.8182C78.8325 82.8182 79.2861 82.761 79.7345 82.6519C79.4955 83.6855 79.061 84.6585 78.4447 85.5259ZM86.2406 61.1323C86.2406 62.3615 84.2583 62.4585 84.2583 61.1548C84.2583 61.1548 84.26 48.868 84.2617 47.741C84.2635 47.0138 83.6592 46.4408 82.9529 46.4408L72.844 46.491C71.5906 46.491 71.62 44.5294 72.8561 44.5225L85.2537 44.4619C85.8528 44.5121 86.1817 44.8376 86.2388 45.4349L86.2406 61.1323Z" fill="#060606"/>
</g>
<defs>
<clipPath id="clip0">
<rect width="88.6409" height="88.5283" fill="white" transform="translate(0.195312 0.296875)"/>
</clipPath>
</defs>
</svg>
