<svg width="113" height="121" viewBox="0 0 113 121" fill="none" xmlns="http://www.w3.org/2000/svg">
<g clip-path="url(#clip0)">
<path d="M111.686 26.5206L57.1061 0.173349C56.6224 -0.0590852 56.059 -0.0590852 55.5753 0.173349L0.995477 26.5206C0.387391 26.8141 0 27.4316 0 28.1054V92.0953C0 92.7715 0.387391 93.3866 0.995477 93.6801L55.5753 120.03C55.8172 120.147 56.0801 120.206 56.3407 120.206C56.6013 120.206 56.8643 120.147 57.1061 120.03L111.686 93.6824C112.294 93.389 112.681 92.7715 112.681 92.0977V28.1054C112.681 27.4316 112.294 26.8141 111.686 26.5206ZM56.3407 3.71387L106.871 28.1077L92.2225 35.1794C92.1309 35.109 92.0323 35.0432 91.9243 34.9916L41.7373 10.762L56.3407 3.71387ZM37.7624 12.753L88.2171 37.1116L77.882 42.1008L27.4484 17.7515L37.7624 12.753ZM79.7438 45.113L89.3957 40.4526V58.8948L79.7438 63.5552V45.113ZM58.1016 115.639V55.5608L70.2797 49.6819C71.1555 49.2593 71.5217 48.2075 71.0991 47.3317C70.6765 46.456 69.6247 46.0897 68.7466 46.5123L56.3384 52.5016L51.4549 50.1444C50.5792 49.7218 49.5273 50.0881 49.1047 50.9638C48.6821 51.8395 49.0484 52.8914 49.9241 53.314L54.5775 55.5608V115.639L3.52173 90.9918V30.911L42.4017 49.6819C42.6482 49.8016 42.9088 49.858 43.1671 49.858C43.8221 49.858 44.4513 49.4917 44.7542 48.8625C45.1768 47.9868 44.8106 46.9349 43.9348 46.5123L5.81086 28.1054L23.3021 19.6603L76.1963 45.1952C76.2033 45.2069 76.2127 45.2163 76.2197 45.2257V66.3561C76.2197 66.9619 76.532 67.5253 77.0438 67.847C77.3279 68.0254 77.6543 68.117 77.9806 68.117C78.2412 68.117 78.5042 68.0583 78.746 67.9409L91.9196 61.5807C92.5277 61.2872 92.9151 60.6697 92.9151 59.9959V38.7504L109.155 30.911V90.9895L58.1016 115.639Z" fill="url(#paint0_linear)"/>
<path d="M18.0522 84.1606L10.0414 80.2938C9.16565 79.8711 8.11382 80.2374 7.69122 81.1131C7.26861 81.9889 7.63487 83.0407 8.51061 83.4657L16.5214 87.3325C16.7679 87.4523 17.0285 87.5086 17.2844 87.5086C17.9395 87.5086 18.5687 87.1424 18.8715 86.5131C19.2965 85.635 18.9279 84.5832 18.0522 84.1606Z" fill="#239EE1"/>
<path d="M25.4259 79.3662L10.057 71.9471C9.18127 71.5245 8.12945 71.8907 7.70684 72.7665C7.28423 73.6422 7.65049 74.694 8.52623 75.119L23.8974 82.5381C24.1439 82.6578 24.4046 82.7142 24.6605 82.7142C25.3155 82.7142 25.9447 82.3479 26.2476 81.7187C26.6702 80.843 26.3016 79.7888 25.4259 79.3662Z" fill="#239EE1"/>
</g>
<defs>
<linearGradient id="paint0_linear" x1="29.2246" y1="90.361" x2="116.712" y2="97.8803" gradientUnits="userSpaceOnUse">
<stop offset="0.00906761" stop-color="#00A8E4"/>
<stop offset="0.00916761" stop-color="#00A7E5"/>
<stop offset="0.99861" stop-color="#55D074"/>
</linearGradient>
<clipPath id="clip0">
<rect width="112.681" height="120.209" fill="white"/>
</clipPath>
</defs>
</svg>
