<svg width="97" height="77" viewBox="0 0 97 77" fill="none" xmlns="http://www.w3.org/2000/svg">
<g clip-path="url(#clip0)">
<path d="M63.5955 74.7134C81.755 74.7134 96.4761 59.9923 96.4761 41.8328C96.4761 23.6733 81.755 8.95215 63.5955 8.95215C45.436 8.95215 30.7148 23.6733 30.7148 41.8328C30.7148 59.9923 45.436 74.7134 63.5955 74.7134Z" fill="#01A9E4"/>
<path d="M59.7414 66.2962C73.2525 66.2962 84.2054 55.3433 84.2054 41.8322C84.2054 28.3211 73.2525 17.3682 59.7414 17.3682C46.2303 17.3682 35.2773 28.3211 35.2773 41.8322C35.2773 55.3433 46.2303 66.2962 59.7414 66.2962Z" fill="#F7F7F7"/>
<path d="M59.7409 67.6821C73.9944 67.6821 85.5893 56.0854 85.5893 41.8337C85.5893 27.582 73.9944 15.9834 59.7409 15.9834C45.4873 15.9834 33.8906 27.5801 33.8906 41.8337C33.8906 56.0872 45.4892 67.6821 59.7409 67.6821ZM40.495 40.4474H36.7035C37.0193 35.1246 39.1492 30.2828 42.4798 26.5299L45.1532 29.2032C45.4231 29.4731 45.7775 29.609 46.1318 29.609C46.4862 29.609 46.8405 29.4731 47.1104 29.2032C47.6521 28.6616 47.6521 27.7858 47.1104 27.2441L44.4371 24.5708C48.1901 21.2401 53.0318 19.1121 58.3546 18.7944V22.586C58.3546 23.3516 58.9752 23.9704 59.7391 23.9704C60.5029 23.9704 61.1235 23.3498 61.1235 22.586V18.7963C66.4463 19.1121 71.288 21.242 75.041 24.5726L72.3677 27.246C71.826 27.7876 71.826 28.6634 72.3677 29.2051C72.6376 29.475 72.9919 29.6108 73.3463 29.6108C73.7007 29.6108 74.055 29.475 74.3249 29.2051L76.9983 26.5317C80.3289 30.2847 82.457 35.1264 82.7746 40.4493H78.9831C78.2174 40.4493 77.5987 41.0699 77.5987 41.8337C77.5987 42.5993 78.2193 43.2181 78.9831 43.2181H82.7746C82.4588 48.5409 80.3289 53.3827 76.9983 57.1356L74.3249 54.4623C73.7833 53.9206 72.9075 53.9206 72.3658 54.4623C71.8242 55.0039 71.8242 55.8797 72.3658 56.4214L75.0392 59.0947C71.2862 62.4254 66.4445 64.5534 61.1216 64.8711V61.0795C61.1216 60.3139 60.501 59.6951 59.7372 59.6951C58.9734 59.6951 58.3528 60.3157 58.3528 61.0795V64.8711C53.03 64.5552 48.1882 62.4254 44.4353 59.0947L47.1086 56.4214C47.6503 55.8797 47.6503 55.0039 47.1086 54.4623C46.567 53.9206 45.6912 53.9206 45.1495 54.4623L42.4762 57.1356C39.1455 53.3827 37.0175 48.5409 36.6998 43.2181H40.4914C41.257 43.2181 41.8758 42.5975 41.8758 41.8337C41.8794 41.068 41.2607 40.4474 40.495 40.4474Z" fill="black"/>
<path d="M76.5306 68.4848C71.5107 71.6539 65.705 73.3284 59.7395 73.3284C42.372 73.3284 28.2433 59.1997 28.2433 41.8322C28.2433 34.8018 30.509 28.1515 34.7945 22.601C35.2627 21.9951 35.1507 21.1266 34.5448 20.6584C33.9389 20.1902 33.0704 20.3022 32.6022 20.9082C27.9385 26.947 25.4727 34.1831 25.4727 41.8322C25.4727 60.7274 40.8444 76.0991 59.7395 76.0991C66.2283 76.0991 72.5463 74.2759 78.0086 70.8277C78.6549 70.4201 78.8477 69.5645 78.4401 68.9182C78.0325 68.27 77.1769 68.0772 76.5306 68.4848Z" fill="black"/>
<path d="M68.0919 8.59744V3.34806C68.0919 1.91592 66.926 0.75 65.492 0.75H53.9871C52.5531 0.75 51.389 1.91592 51.389 3.34806V8.5956C45.8826 9.9745 40.7728 12.7121 36.5204 16.6322C35.9586 17.1499 35.9218 18.0257 36.4414 18.5894C36.9592 19.1513 37.8369 19.188 38.3987 18.6684C44.2283 13.2941 51.8077 10.3344 59.7414 10.3344C77.1089 10.3344 91.2376 24.4631 91.2376 41.8306C91.2376 50.7448 87.4351 59.2808 80.8031 65.2481C80.234 65.7603 80.1881 66.6361 80.7003 67.2035C80.9739 67.5083 81.3503 67.6625 81.7304 67.6625C82.0609 67.6625 82.3914 67.545 82.6558 67.3063C89.8697 60.8176 94.0064 51.5307 94.0064 41.8325C94.0064 25.8181 82.9624 12.3375 68.0919 8.59744ZM54.1579 8.0209V3.51882H65.3213V8.02274C63.5035 7.72346 61.6399 7.56556 59.7396 7.56556C57.8557 7.56739 55.9903 7.71979 54.1579 8.0209Z" fill="black"/>
<path d="M59.7399 42.8036C60.2595 42.8036 60.7112 42.5172 60.948 42.0949L65.7255 37.3174C66.2672 36.7758 66.2672 35.8999 65.7255 35.3583C65.1839 34.8167 64.3081 34.8167 63.7664 35.3583L61.1243 38.0004V31.2565C61.1243 30.4908 60.5037 29.8721 59.7399 29.8721C58.9761 29.8721 58.3555 30.4927 58.3555 31.2565V41.4174C58.3555 42.183 58.9761 42.8036 59.7399 42.8036Z" fill="black"/>
<path d="M20.4338 42.1461C20.4338 41.3805 19.8132 40.7617 19.0494 40.7617H1.38441C0.618761 40.7617 0 41.3823 0 42.1461C0 42.9118 0.620597 43.5305 1.38441 43.5305H19.0494C19.8151 43.5305 20.4338 42.9099 20.4338 42.1461Z" fill="black"/>
<path d="M6.90785 35.4671H20.897C21.6626 35.4671 22.2814 34.8465 22.2814 34.0827C22.2814 33.317 21.6608 32.6982 20.897 32.6982H6.90785C6.1422 32.6982 5.52344 33.3188 5.52344 34.0827C5.52344 34.8465 6.14403 35.4671 6.90785 35.4671Z" fill="black"/>
<path d="M22.743 24.6318H11.2711C10.5055 24.6318 9.88672 25.2524 9.88672 26.0162C9.88672 26.7819 10.5073 27.4007 11.2711 27.4007H22.743C23.5086 27.4007 24.1274 26.7801 24.1274 26.0162C24.1292 25.2506 23.5086 24.6318 22.743 24.6318Z" fill="black"/>
<path d="M22.2814 49.5846C22.2814 48.819 21.6608 48.2002 20.897 48.2002H6.90785C6.1422 48.2002 5.52344 48.8208 5.52344 49.5846C5.52344 50.3503 6.14403 50.969 6.90785 50.969H20.897C21.6608 50.9709 22.2814 50.3503 22.2814 49.5846Z" fill="black"/>
<path d="M22.743 56.2656H11.2711C10.5055 56.2656 9.88672 56.8862 9.88672 57.65C9.88672 58.4138 10.5073 59.0344 11.2711 59.0344H22.743C23.5086 59.0344 24.1274 58.4138 24.1274 57.65C24.1274 56.8862 23.5086 56.2656 22.743 56.2656Z" fill="black"/>
</g>
<defs>
<clipPath id="clip0">
<rect width="96.479" height="75.3493" fill="white" transform="translate(0 0.75)"/>
</clipPath>
</defs>
</svg>
