<svg width="105" height="85" viewBox="0 0 105 85" fill="none" xmlns="http://www.w3.org/2000/svg">
<path d="M80.6191 34.1523V83.2891C80.6191 86.6934 77.8711 89.4414 74.4668 89.4414H-2.84766C-6.25195 89.4414 -9 86.6934 -9 83.2891V34.1523C-9 30.748 -6.25195 28 -2.84766 28H74.4668C77.8711 28 80.6191 30.748 80.6191 34.1523Z" fill="#0BB65E"/>
<path d="M81.9287 72.1047H10.7666C9.92578 72.1047 9.22852 72.802 9.22852 73.6428C9.22852 74.4836 9.92578 75.1809 10.7666 75.1809H81.9287C82.7695 75.1809 83.4668 74.4836 83.4668 73.6428C83.4668 72.802 82.7695 72.1047 81.9287 72.1047ZM81.9287 65.9524H10.7666C9.92578 65.9524 9.22852 66.6497 9.22852 67.4905C9.22852 68.3313 9.92578 69.0286 10.7666 69.0286H81.9287C82.7695 69.0286 83.4668 68.3313 83.4668 67.4905C83.4668 66.6497 82.7695 65.9524 81.9287 65.9524ZM91.1572 45.9163C90.3164 45.9163 89.6191 46.6135 89.6191 47.4543V76.719C89.6191 79.262 87.5479 81.3333 85.0049 81.3333H7.69043C5.14746 81.3333 3.07617 79.262 3.07617 76.719V27.5823C3.07617 25.0393 5.14746 22.968 7.69043 22.968H55.7402C56.5811 22.968 57.2783 22.2708 57.2783 21.4299C57.2783 20.5891 56.6016 19.8918 55.7402 19.8918H7.69043C3.44531 19.8918 0 23.3372 0 27.5823V76.719C0 80.9641 3.44531 84.4094 7.69043 84.4094H85.0049C89.25 84.4094 92.6953 80.9641 92.6953 76.719V47.4543C92.6953 46.593 91.998 45.9163 91.1572 45.9163ZM82.6875 -0.000732422C70.3828 -0.000732422 60.375 10.0071 60.375 22.3118C60.375 24.6907 60.7441 26.967 61.4414 29.1204H50.7773C49.9365 29.1204 49.2393 29.8176 49.2393 30.6584C49.2393 31.4993 49.9365 32.1965 50.7773 32.1965H62.6924C63.2256 33.2834 63.8408 34.3088 64.5381 35.2727H50.7773C49.9365 35.2727 49.2393 35.97 49.2393 36.8108C49.2393 37.6516 49.9365 38.3489 50.7773 38.3489H67.1836C71.2031 42.2454 76.6787 44.6448 82.6875 44.6448C94.9922 44.6448 105 34.637 105 22.3323C105 10.0071 94.9922 -0.000732422 82.6875 -0.000732422ZM82.6875 41.5686C72.085 41.5686 63.4512 32.9348 63.4512 22.3323C63.4512 11.7297 72.085 3.09595 82.6875 3.09595C93.29 3.09595 101.924 11.7297 101.924 22.3323C101.924 32.9348 93.29 41.5686 82.6875 41.5686ZM14.8271 62.5891C15.2988 62.7122 16.0166 62.8557 16.9189 62.8762H35.2939C39.2109 62.9583 43.0664 59.4514 42.9844 55.1858V36.8108C42.9844 32.5657 39.5391 29.1204 35.2939 29.1204H16.9189C12.6738 29.1204 9.22852 32.5657 9.22852 36.8108V55.1858C9.22852 58.7131 11.6074 61.6868 14.8271 62.5891ZM17.1035 59.8C18.334 55.9446 21.9639 53.1965 26.1064 53.1965C30.249 53.1965 33.8994 55.9446 35.1094 59.8H17.1035ZM20.2207 44.2346C20.2207 40.9944 22.8662 38.3489 26.1064 38.3489C29.3467 38.3489 31.9922 40.9944 31.9922 44.2346C31.9922 47.4749 29.3467 50.1204 26.1064 50.1204C22.8662 50.1204 20.2207 47.4954 20.2207 44.2346ZM12.3047 36.8108C12.3047 34.2678 14.376 32.1965 16.9189 32.1965H35.2939C37.8369 32.1965 39.9082 34.2678 39.9082 36.8108V55.1858C39.9082 56.7034 39.1699 58.0364 38.042 58.8772C36.9961 55.5549 34.5967 52.8479 31.5205 51.3713C33.6738 49.7307 35.0684 47.1467 35.0684 44.2346C35.0684 39.2922 31.0488 35.2727 26.1064 35.2727C21.1641 35.2727 17.1445 39.2922 17.1445 44.2346C17.1445 47.1467 18.5391 49.7307 20.6924 51.3713C17.6162 52.8479 15.2168 55.5549 14.1709 58.8772C13.043 58.0364 12.3047 56.6829 12.3047 55.1858V36.8108ZM90.3574 16.9182L79.6934 27.5823C79.5498 27.7258 79.3037 27.7258 79.1602 27.5823L75.0176 23.4397C74.4229 22.845 73.4385 22.845 72.8438 23.4397C72.249 24.0344 72.249 25.0188 72.8438 25.6135L76.9863 29.7561C77.6631 30.4329 78.5449 30.761 79.4268 30.761C80.3086 30.761 81.1904 30.4329 81.8672 29.7561L92.5312 19.092C93.126 18.4973 93.126 17.5129 92.5312 16.9182C91.9365 16.3235 90.9521 16.3235 90.3574 16.9182ZM81.9287 53.6477H50.7568C49.916 53.6477 49.2188 54.345 49.2188 55.1858C49.2188 56.0266 49.916 56.7239 50.7568 56.7239H81.9287C82.7695 56.7239 83.4668 56.0266 83.4668 55.1858C83.4668 54.345 82.7695 53.6477 81.9287 53.6477ZM81.9287 59.8H50.7568C49.916 59.8 49.2188 60.4973 49.2188 61.3381C49.2188 62.179 49.916 62.8762 50.7568 62.8762H81.9287C82.7695 62.8762 83.4668 62.179 83.4668 61.3381C83.4668 60.4973 82.7695 59.8 81.9287 59.8Z" fill="black"/>
</svg>
