<svg width="114" height="90" viewBox="0 0 114 90" fill="none" xmlns="http://www.w3.org/2000/svg">
<path d="M89.6191 34.1523V83.2891C89.6191 86.6934 86.8711 89.4414 83.4668 89.4414H6.15234C2.74805 89.4414 0 86.6934 0 83.2891V34.1523C0 30.748 2.74805 28 6.15234 28H83.4668C86.8711 28 89.6191 30.748 89.6191 34.1523Z" fill="#0BB65E"/>
<g clip-path="url(#clip0)">
<path d="M90.5306 71.7551H19.7143C18.8776 71.7551 18.1837 72.449 18.1837 73.2857C18.1837 74.1224 18.8776 74.8163 19.7143 74.8163H90.5306C91.3673 74.8163 92.0612 74.1224 92.0612 73.2857C92.0612 72.449 91.3673 71.7551 90.5306 71.7551ZM90.5306 65.6327H19.7143C18.8776 65.6327 18.1837 66.3265 18.1837 67.1633C18.1837 68 18.8776 68.6939 19.7143 68.6939H90.5306C91.3673 68.6939 92.0612 68 92.0612 67.1633C92.0612 66.3265 91.3673 65.6327 90.5306 65.6327ZM99.7143 45.6939C98.8775 45.6939 98.1837 46.3878 98.1837 47.2245V76.3469C98.1837 78.8775 96.1224 80.9388 93.5918 80.9388H16.6531C14.1224 80.9388 12.0612 78.8775 12.0612 76.3469V27.449C12.0612 24.9184 14.1224 22.8571 16.6531 22.8571H64.4694C65.3061 22.8571 66 22.1633 66 21.3265C66 20.4898 65.3265 19.7959 64.4694 19.7959H16.6531C12.4286 19.7959 9 23.2245 9 27.449V76.3469C9 80.5714 12.4286 84 16.6531 84H93.5918C97.8163 84 101.245 80.5714 101.245 76.3469V47.2245C101.245 46.3673 100.551 45.6939 99.7143 45.6939ZM91.2857 0C79.0408 0 69.0816 9.95918 69.0816 22.2041C69.0816 24.5714 69.449 26.8367 70.1429 28.9796H59.5306C58.6939 28.9796 58 29.6735 58 30.5102C58 31.3469 58.6939 32.0408 59.5306 32.0408H71.3878C71.9184 33.1224 72.5306 34.1429 73.2245 35.102H59.5306C58.6939 35.102 58 35.7959 58 36.6327C58 37.4694 58.6939 38.1633 59.5306 38.1633H75.8571C79.8571 42.0408 85.3061 44.4286 91.2857 44.4286C103.531 44.4286 113.49 34.4694 113.49 22.2245C113.49 9.95918 103.531 0 91.2857 0ZM91.2857 41.3673C80.7347 41.3673 72.1429 32.7755 72.1429 22.2245C72.1429 11.6735 80.7347 3.08163 91.2857 3.08163C101.837 3.08163 110.429 11.6735 110.429 22.2245C110.429 32.7755 101.837 41.3673 91.2857 41.3673ZM23.7551 62.2857C24.2245 62.4082 24.9388 62.551 25.8367 62.5714H44.1224C48.0204 62.6531 51.8571 59.1633 51.7755 54.9184V36.6327C51.7755 32.4082 48.3469 28.9796 44.1224 28.9796H25.8367C21.6122 28.9796 18.1837 32.4082 18.1837 36.6327V54.9184C18.1837 58.4286 20.551 61.3878 23.7551 62.2857ZM26.0204 59.5102C27.2449 55.6735 30.8571 52.9388 34.9796 52.9388C39.102 52.9388 42.7347 55.6735 43.9388 59.5102H26.0204ZM29.1224 44.0204C29.1224 40.7959 31.7551 38.1633 34.9796 38.1633C38.2041 38.1633 40.8367 40.7959 40.8367 44.0204C40.8367 47.2449 38.2041 49.8775 34.9796 49.8775C31.7551 49.8775 29.1224 47.2653 29.1224 44.0204ZM21.2449 36.6327C21.2449 34.102 23.3061 32.0408 25.8367 32.0408H44.1224C46.6531 32.0408 48.7143 34.102 48.7143 36.6327V54.9184C48.7143 56.4286 47.9796 57.7551 46.8571 58.5918C45.8163 55.2857 43.4286 52.5918 40.3673 51.1224C42.5102 49.4898 43.898 46.9184 43.898 44.0204C43.898 39.102 39.898 35.102 34.9796 35.102C30.0612 35.102 26.0612 39.102 26.0612 44.0204C26.0612 46.9184 27.449 49.4898 29.5918 51.1224C26.5306 52.5918 24.1429 55.2857 23.102 58.5918C21.9796 57.7551 21.2449 56.4082 21.2449 54.9184V36.6327ZM90.5306 53.3878H59.5102C58.6735 53.3878 57.9796 54.0816 57.9796 54.9184C57.9796 55.7551 58.6735 56.449 59.5102 56.449H90.5306C91.3673 56.449 92.0612 55.7551 92.0612 54.9184C92.0612 54.0816 91.3673 53.3878 90.5306 53.3878ZM90.5306 59.5102H59.5102C58.6735 59.5102 57.9796 60.2041 57.9796 61.0408C57.9796 61.8775 58.6735 62.5714 59.5102 62.5714H90.5306C91.3673 62.5714 92.0612 61.8775 92.0612 61.0408C92.0612 60.2041 91.3673 59.5102 90.5306 59.5102Z" fill="black"/>
<path d="M85.3295 18.3898C85.3295 16.8388 85.8805 15.5531 86.9622 14.5327C88.0438 13.5122 89.4724 13.002 91.2479 13.002C93.105 13.002 94.554 13.4918 95.5948 14.4918C96.6356 15.4918 97.1459 16.7776 97.1459 18.3286C97.1459 19.1041 97.003 19.8184 96.6969 20.4714C96.3908 21.1245 96.0234 21.6551 95.5744 22.0633C95.1254 22.4714 94.6765 22.8592 94.2479 23.2469C93.8193 23.6347 93.452 24.002 93.1459 24.3898C92.8397 24.7571 92.6765 25.1449 92.6765 25.5327L92.7173 26.0429H89.1663C89.1254 25.8184 89.1254 25.6347 89.1254 25.4918C89.1254 24.7571 89.2683 24.0633 89.5744 23.451C89.8805 22.8388 90.2479 22.349 90.6969 21.9612C91.1459 21.5735 91.5744 21.2061 92.003 20.8388C92.4112 20.4714 92.7785 20.1041 93.0642 19.6959C93.3499 19.2878 93.5132 18.8796 93.5132 18.4714C93.5132 17.8184 93.3091 17.2878 92.901 16.9C92.4928 16.5122 91.9622 16.3286 91.2683 16.3286C90.5948 16.3286 90.0438 16.5327 89.6152 16.9408C89.1867 17.349 88.9622 17.9 88.9622 18.5531L89.105 19.9H85.4928C85.3908 19.451 85.3295 18.9612 85.3295 18.3898ZM91.105 31.6143C90.4316 31.6143 89.8806 31.4102 89.452 31.002C89.0234 30.5939 88.8193 30.0429 88.8193 29.3694C88.8193 28.7163 89.0234 28.1653 89.452 27.7367C89.8806 27.3082 90.4316 27.0837 91.105 27.0837C91.7581 27.0837 92.3091 27.3082 92.7377 27.7367C93.1663 28.1653 93.3908 28.7163 93.3908 29.3694C93.3908 30.0225 93.1663 30.5735 92.7377 31.002C92.3091 31.4102 91.7581 31.6143 91.105 31.6143Z" fill="black"/>
</g>
<defs>
<clipPath id="clip0">
<rect width="104.49" height="84" fill="white" transform="translate(9)"/>
</clipPath>
</defs>
</svg>
