<svg width="134" height="39" viewBox="0 0 134 39" fill="none" xmlns="http://www.w3.org/2000/svg">
<path d="M132.414 34.0305C132.414 36.0804 130.719 37.7409 128.622 37.7409H4.53623C2.44059 37.7409 0.739548 36.0804 0.739548 34.0305V4.4411C0.739548 2.39213 2.44059 0.72583 4.53623 0.72583H128.621C130.719 0.72583 132.413 2.39213 132.413 4.4411L132.414 34.0305Z" fill="#131313"/>
<path d="M128.222 0.770538C130.506 0.770538 132.364 2.58208 132.364 4.80834V33.6583C132.364 35.8846 130.506 37.6961 128.222 37.6961H4.93162C2.64828 37.6961 0.790293 35.8846 0.790293 33.6583V4.80834C0.790293 2.58208 2.64828 0.770538 4.93162 0.770538H128.222ZM128.222 4.65943e-06H4.93162C2.22046 4.65943e-06 0 2.16496 0 4.80834V33.6583C0 36.3017 2.22046 38.4667 4.93162 38.4667H128.222C130.933 38.4667 133.154 36.3017 133.154 33.6583V4.80834C133.154 2.16496 130.933 4.65943e-06 128.222 4.65943e-06Z" fill="#131313"/>
<path d="M29.716 19.0256C29.6874 15.9261 32.3189 14.4182 32.4392 14.348C30.9489 12.2295 28.6389 11.94 27.8272 11.9169C25.8871 11.7179 24.0052 13.0488 23.0169 13.0488C22.0088 13.0488 20.4869 11.9362 18.8467 11.9689C16.7359 12.0006 14.7613 13.1921 13.6783 15.0423C11.4433 18.815 13.1102 24.359 15.2515 27.4084C16.3227 28.9019 17.5743 30.5694 19.2126 30.5108C20.8154 30.4463 21.4141 29.5145 23.3483 29.5145C25.2647 29.5145 25.8269 30.5108 27.4977 30.4732C29.2179 30.4463 30.3009 28.973 31.3345 27.4661C32.5724 25.7544 33.0695 24.0686 33.0892 23.982C33.0488 23.9685 29.7485 22.7405 29.716 19.0256Z" fill="white"/>
<path d="M26.5597 9.91089C27.4218 8.85979 28.0116 7.42979 27.8479 5.97864C26.6002 6.03249 25.0398 6.8201 24.1413 7.84812C23.3463 8.75401 22.6361 10.2388 22.8196 11.6352C24.2212 11.7371 25.6602 10.9456 26.5597 9.91089Z" fill="white"/>
<path d="M52.9115 30.2963H50.6716L49.4446 26.5371H45.1797L44.0109 30.2963H41.8302L46.0556 17.4984H48.6654L52.9115 30.2963ZM49.0747 24.96L47.9651 21.6182C47.8477 21.2768 47.6278 20.4728 47.3033 19.2073H47.2638C47.1346 19.7516 46.9265 20.5556 46.6405 21.6182L45.5506 24.96H49.0747Z" fill="white"/>
<path d="M63.7774 25.5687C63.7774 27.1382 63.3424 28.3787 62.4725 29.2894C61.6933 30.1001 60.7257 30.5049 59.5707 30.5049C58.324 30.5049 57.4284 30.0683 56.883 29.1952H56.8435V34.0564H54.7407V24.106C54.7407 23.1193 54.7141 22.1067 54.6628 21.0681H56.5121L56.6295 22.5308H56.669C57.3702 21.4287 58.4345 20.8787 59.8627 20.8787C60.9792 20.8787 61.9113 21.3085 62.6569 22.1692C63.4046 23.0309 63.7774 24.1637 63.7774 25.5687ZM61.6351 25.6437C61.6351 24.7455 61.428 24.005 61.0118 23.4223C60.5571 22.8145 59.9465 22.5106 59.1811 22.5106C58.6623 22.5106 58.1909 22.6799 57.7697 23.0136C57.3476 23.3501 57.0714 23.7896 56.9422 24.3339C56.8771 24.5878 56.8445 24.7955 56.8445 24.959V26.4977C56.8445 27.1689 57.0556 27.7353 57.4778 28.1979C57.8999 28.6605 58.4483 28.8913 59.1229 28.8913C59.915 28.8913 60.5314 28.5932 60.9723 27.9988C61.4142 27.4036 61.6351 26.6189 61.6351 25.6437Z" fill="white"/>
<path d="M74.6639 25.5687C74.6639 27.1382 74.2289 28.3787 73.358 29.2894C72.5798 30.1001 71.6122 30.5049 70.4572 30.5049C69.2105 30.5049 68.3149 30.0683 67.7705 29.1952H67.731V34.0564H65.6282V24.106C65.6282 23.1193 65.6016 22.1067 65.5503 21.0681H67.3996L67.517 22.5308H67.5564C68.2567 21.4287 69.321 20.8787 70.7502 20.8787C71.8657 20.8787 72.7978 21.3085 73.5454 22.1692C74.2901 23.0309 74.6639 24.1637 74.6639 25.5687ZM72.5216 25.6437C72.5216 24.7455 72.3135 24.005 71.8973 23.4223C71.4426 22.8145 70.834 22.5106 70.0676 22.5106C69.5478 22.5106 69.0774 22.6799 68.6552 23.0136C68.2331 23.3501 67.9579 23.7896 67.8287 24.3339C67.7646 24.5878 67.731 24.7955 67.731 24.959V26.4977C67.731 27.1689 67.9421 27.7353 68.3623 28.1979C68.7844 28.6595 69.3328 28.8913 70.0094 28.8913C70.8015 28.8913 71.4179 28.5932 71.8588 27.9988C72.3007 27.4036 72.5216 26.6189 72.5216 25.6437Z" fill="white"/>
<path d="M86.8358 26.7074C86.8358 27.796 86.4482 28.6817 85.67 29.3654C84.8149 30.1126 83.6244 30.4858 82.0946 30.4858C80.6822 30.4858 79.5499 30.2203 78.6927 29.6885L79.18 27.9796C80.1032 28.5239 81.1162 28.7971 82.2199 28.7971C83.0119 28.7971 83.6283 28.622 84.0712 28.2739C84.5121 27.9258 84.732 27.4584 84.732 26.8757C84.732 26.3564 84.5505 25.9188 84.1866 25.5639C83.8246 25.2091 83.22 24.8792 82.3757 24.5744C80.0776 23.7387 78.9295 22.5145 78.9295 20.9047C78.9295 19.8526 79.3319 18.99 80.1377 18.3187C80.9406 17.6465 82.0117 17.3109 83.3512 17.3109C84.5456 17.3109 85.5378 17.5138 86.3299 17.9187L85.8041 19.5901C85.0644 19.1977 84.228 19.0015 83.292 19.0015C82.5522 19.0015 81.9743 19.1794 81.56 19.5333C81.2099 19.8497 81.0343 20.2353 81.0343 20.6921C81.0343 21.198 81.2345 21.6163 81.6369 21.9452C81.9871 22.2491 82.6233 22.578 83.5465 22.9328C84.6758 23.3761 85.5053 23.8945 86.0389 24.4888C86.5705 25.0812 86.8358 25.8226 86.8358 26.7074Z" fill="white"/>
<path d="M93.7875 22.6067H91.4697V27.0871C91.4697 28.2267 91.878 28.796 92.6967 28.796C93.0725 28.796 93.3841 28.7642 93.6307 28.7008L93.6889 30.2577C93.2747 30.4087 92.7292 30.4847 92.0536 30.4847C91.2231 30.4847 90.5741 30.2375 90.1056 29.7442C89.6391 29.2499 89.4043 28.4209 89.4043 27.2563V22.6048H88.0235V21.0661H89.4043V19.3765L91.4697 18.7687V21.0661H93.7875V22.6067Z" fill="white"/>
<path d="M104.246 25.6062C104.246 27.0247 103.829 28.1893 102.999 29.1C102.128 30.0376 100.972 30.505 99.5311 30.505C98.1423 30.505 97.0366 30.0559 96.2121 29.1577C95.3875 28.2595 94.9752 27.1257 94.9752 25.7591C94.9752 24.3291 95.3993 23.1578 96.2505 22.2471C97.0998 21.3355 98.2459 20.8796 99.6869 20.8796C101.076 20.8796 102.193 21.3287 103.036 22.2279C103.843 23.1001 104.246 24.2262 104.246 25.6062ZM102.064 25.6726C102.064 24.8215 101.878 24.0916 101.5 23.4829C101.059 22.7462 100.429 22.3789 99.6119 22.3789C98.7666 22.3789 98.1246 22.7472 97.6837 23.4829C97.3059 24.0926 97.1195 24.834 97.1195 25.7111C97.1195 26.5621 97.3059 27.292 97.6837 27.8998C98.1384 28.6364 98.7736 29.0038 99.5932 29.0038C100.396 29.0038 101.026 28.6287 101.481 27.8806C101.869 27.2603 102.064 26.5227 102.064 25.6726Z" fill="white"/>
<path d="M111.081 22.8712C110.873 22.8337 110.651 22.8145 110.418 22.8145C109.678 22.8145 109.106 23.0866 108.704 23.6319C108.354 24.1127 108.178 24.7205 108.178 25.4543V30.2963H106.076L106.096 23.9743C106.096 22.9107 106.07 21.9423 106.017 21.0691H107.849L107.926 22.8347H107.984C108.206 22.2279 108.556 21.7394 109.035 21.373C109.504 21.0431 110.01 20.8787 110.555 20.8787C110.75 20.8787 110.925 20.8921 111.081 20.9162V22.8712Z" fill="white"/>
<path d="M120.485 25.2456C120.485 25.6129 120.461 25.9226 120.409 26.1755H114.1C114.125 27.0872 114.429 27.7844 115.015 28.2652C115.547 28.6951 116.234 28.9105 117.079 28.9105C118.013 28.9105 118.865 28.7653 119.631 28.4739L119.961 29.8971C119.065 30.278 118.008 30.4674 116.788 30.4674C115.32 30.4674 114.168 30.0462 113.33 29.2047C112.493 28.3633 112.074 27.2333 112.074 25.8158C112.074 24.4243 112.464 23.2655 113.244 22.3413C114.061 21.3547 115.164 20.8613 116.553 20.8613C117.917 20.8613 118.95 21.3547 119.651 22.3413C120.206 23.1251 120.485 24.0945 120.485 25.2456ZM118.48 24.7138C118.494 24.106 118.357 23.5809 118.072 23.1376C117.708 22.5673 117.149 22.2827 116.396 22.2827C115.709 22.2827 115.149 22.5606 114.722 23.1184C114.372 23.5617 114.164 24.0935 114.1 24.7128H118.48V24.7138Z" fill="white"/>
<path d="M48.3797 9.62549C48.3797 10.7574 48.0316 11.6094 47.3362 12.1816C46.6921 12.7096 45.7768 12.974 44.5913 12.974C44.0034 12.974 43.5004 12.949 43.0792 12.899V6.71453C43.6286 6.62798 44.2204 6.58374 44.8595 6.58374C45.9889 6.58374 46.8401 6.8232 47.4141 7.30211C48.0572 7.84352 48.3797 8.61767 48.3797 9.62549ZM47.2898 9.65338C47.2898 8.91963 47.0906 8.35705 46.6921 7.96469C46.2937 7.57329 45.7117 7.37712 44.9454 7.37712C44.6199 7.37712 44.3427 7.39827 44.1129 7.44251V12.1441C44.2401 12.1633 44.4729 12.172 44.8112 12.172C45.6022 12.172 46.2128 11.9575 46.6428 11.5286C47.0729 11.0997 47.2898 10.4746 47.2898 9.65338Z" fill="white"/>
<path d="M54.1585 10.6141C54.1585 11.3113 53.9543 11.8825 53.546 12.3306C53.1179 12.7913 52.5508 13.0211 51.8426 13.0211C51.1601 13.0211 50.6166 12.8009 50.2112 12.3585C49.8068 11.9171 49.6046 11.3603 49.6046 10.6891C49.6046 9.98706 49.8127 9.41102 50.2309 8.96385C50.6491 8.51667 51.2113 8.2926 51.9195 8.2926C52.6021 8.2926 53.1505 8.51282 53.5657 8.95423C53.9602 9.38313 54.1585 9.93705 54.1585 10.6141ZM53.0863 10.6468C53.0863 10.2284 52.9936 9.86974 52.8092 9.57066C52.5922 9.20907 52.2835 9.02828 51.882 9.02828C51.4668 9.02828 51.1512 9.20907 50.9342 9.57066C50.7488 9.86974 50.657 10.2342 50.657 10.665C50.657 11.0834 50.7497 11.4421 50.9342 11.7411C51.1581 12.1027 51.4698 12.2835 51.8722 12.2835C52.2667 12.2835 52.5764 12.0998 52.7993 11.7315C52.9907 11.4267 53.0863 11.0651 53.0863 10.6468Z" fill="white"/>
<path d="M61.9072 8.38489L60.4524 12.9182H59.5055L58.9029 10.9497C58.75 10.4582 58.6257 9.96971 58.5291 9.48503H58.5103C58.4206 9.98318 58.2963 10.4707 58.1365 10.9497L57.4964 12.9182H56.5387L55.1706 8.38489H56.2329L56.7586 10.54C56.8859 11.0497 56.9904 11.5353 57.0742 11.995H57.093C57.1699 11.6161 57.2972 11.1333 57.4767 10.5496L58.1365 8.38585H58.9788L59.6111 10.5034C59.764 11.0199 59.8882 11.517 59.9839 11.9959H60.0125C60.0825 11.5295 60.1881 11.0324 60.3281 10.5034L60.8923 8.38585H61.9072V8.38489Z" fill="white"/>
<path d="M67.2655 12.9182H66.2318V10.3217C66.2318 9.52157 65.9201 9.12151 65.2948 9.12151C64.9881 9.12151 64.7405 9.23115 64.5482 9.45137C64.3578 9.67159 64.2611 9.93124 64.2611 10.2284V12.9172H63.2275V9.68024C63.2275 9.28211 63.2147 8.85032 63.19 8.38295H64.0984L64.1467 9.0917H64.1753C64.2957 8.87148 64.4752 8.68973 64.7109 8.54451C64.991 8.37526 65.3047 8.28967 65.6479 8.28967C66.0819 8.28967 66.4429 8.42623 66.7299 8.7003C67.087 9.03593 67.2655 9.53696 67.2655 10.2024V12.9182Z" fill="white"/>
<path d="M70.1167 12.9182H69.0841V6.30481H70.1167V12.9182Z" fill="white"/>
<path d="M76.202 10.6141C76.202 11.3113 75.9978 11.8825 75.5895 12.3306C75.1614 12.7913 74.5933 13.0211 73.8861 13.0211C73.2026 13.0211 72.6591 12.8009 72.2547 12.3585C71.8503 11.9171 71.6481 11.3603 71.6481 10.6891C71.6481 9.98706 71.8562 9.41102 72.2745 8.96385C72.6927 8.51667 73.2549 8.2926 73.9621 8.2926C74.6456 8.2926 75.193 8.51282 75.6092 8.95423C76.0037 9.38313 76.202 9.93705 76.202 10.6141ZM75.1289 10.6468C75.1289 10.2284 75.0362 9.86974 74.8517 9.57066C74.6357 9.20907 74.326 9.02828 73.9256 9.02828C73.5093 9.02828 73.1937 9.20907 72.9777 9.57066C72.7923 9.86974 72.7005 10.2342 72.7005 10.665C72.7005 11.0834 72.7933 11.4421 72.9777 11.7411C73.2016 12.1027 73.5133 12.2835 73.9157 12.2835C74.3102 12.2835 74.6189 12.0998 74.8419 11.7315C75.0342 11.4267 75.1289 11.0651 75.1289 10.6468Z" fill="white"/>
<path d="M81.2048 12.9182H80.2766L80.1997 12.396H80.1711C79.8535 12.8124 79.4008 13.0211 78.8129 13.0211C78.374 13.0211 78.0189 12.8836 77.7517 12.6105C77.509 12.3624 77.3877 12.0537 77.3877 11.6873C77.3877 11.1334 77.6244 10.7112 78.1008 10.4188C78.5762 10.1265 79.2449 9.98321 80.106 9.98994V9.90532C80.106 9.30812 79.7845 9.01001 79.1404 9.01001C78.6818 9.01001 78.2774 9.12252 77.9282 9.34563L77.7181 8.684C78.1501 8.42339 78.6837 8.2926 79.313 8.2926C80.5282 8.2926 81.1377 8.91769 81.1377 10.1679V11.8373C81.1377 12.2903 81.1604 12.6509 81.2048 12.9182ZM80.1316 11.3603V10.6612C78.9915 10.642 78.4214 10.9468 78.4214 11.5748C78.4214 11.8113 78.4865 11.9883 78.6196 12.1066C78.7528 12.2249 78.9224 12.2835 79.1246 12.2835C79.3515 12.2835 79.5635 12.2133 79.7568 12.0739C79.9512 11.9335 80.0705 11.7556 80.1149 11.5373C80.1257 11.4882 80.1316 11.4286 80.1316 11.3603Z" fill="white"/>
<path d="M87.0782 12.9182H86.1609L86.1126 12.1902H86.0839C85.791 12.7441 85.2919 13.0211 84.5907 13.0211C84.0304 13.0211 83.5639 12.8066 83.194 12.3777C82.8241 11.9488 82.6397 11.392 82.6397 10.7083C82.6397 9.97453 82.8399 9.38022 83.2424 8.92631C83.632 8.50318 84.1093 8.29161 84.6774 8.29161C85.3018 8.29161 85.7387 8.49645 85.9873 8.90708H86.007V6.30481H87.0417V11.6969C87.0417 12.1383 87.0535 12.5451 87.0782 12.9182ZM86.007 11.0064V10.2505C86.007 10.1197 85.9971 10.014 85.9784 9.93318C85.9202 9.69084 85.795 9.48696 85.6046 9.32252C85.4123 9.15807 85.1805 9.07537 84.9132 9.07537C84.5275 9.07537 84.2257 9.22443 84.0038 9.52351C83.7838 9.82259 83.6724 10.2044 83.6724 10.6708C83.6724 11.1189 83.7779 11.4824 83.99 11.7623C84.2139 12.0604 84.5157 12.2094 84.8935 12.2094C85.2328 12.2094 85.504 12.0854 85.7101 11.8363C85.9094 11.6065 86.007 11.3295 86.007 11.0064Z" fill="white"/>
<path d="M95.9186 10.6141C95.9186 11.3113 95.7144 11.8825 95.3061 12.3306C94.878 12.7913 94.3119 13.0211 93.6027 13.0211C92.9212 13.0211 92.3777 12.8009 91.9713 12.3585C91.5669 11.9171 91.3647 11.3603 91.3647 10.6891C91.3647 9.98706 91.5729 9.41102 91.9911 8.96385C92.4093 8.51667 92.9715 8.2926 93.6806 8.2926C94.3622 8.2926 94.9116 8.51282 95.3258 8.95423C95.7204 9.38313 95.9186 9.93705 95.9186 10.6141ZM94.8475 10.6468C94.8475 10.2284 94.7547 9.86974 94.5703 9.57066C94.3523 9.20907 94.0446 9.02828 93.6422 9.02828C93.2279 9.02828 92.9123 9.20907 92.6943 9.57066C92.5089 9.86974 92.4172 10.2342 92.4172 10.665C92.4172 11.0834 92.5099 11.4421 92.6943 11.7411C92.9182 12.1027 93.2299 12.2835 93.6323 12.2835C94.0268 12.2835 94.3375 12.0998 94.5604 11.7315C94.7508 11.4267 94.8475 11.0651 94.8475 10.6468Z" fill="white"/>
<path d="M101.476 12.9182H100.444V10.3217C100.444 9.52157 100.132 9.12151 99.5056 9.12151C99.1989 9.12151 98.9513 9.23115 98.76 9.45137C98.5686 9.67159 98.4729 9.93124 98.4729 10.2284V12.9172H97.4383V9.68024C97.4383 9.28211 97.4265 8.85032 97.4018 8.38295H98.3092L98.3575 9.0917H98.3861C98.5075 8.87148 98.687 8.68973 98.9217 8.54451C99.2028 8.37526 99.5155 8.28967 99.8597 8.28967C100.293 8.28967 100.654 8.42623 100.941 8.7003C101.299 9.03593 101.476 9.53696 101.476 10.2024V12.9182Z" fill="white"/>
<path d="M108.433 9.13976H107.295V11.342C107.295 11.9017 107.497 12.1815 107.897 12.1815C108.083 12.1815 108.237 12.1661 108.358 12.1344L108.385 12.8989C108.181 12.9739 107.912 13.0114 107.582 13.0114C107.173 13.0114 106.856 12.8903 106.626 12.6479C106.395 12.4056 106.281 11.9978 106.281 11.4256V9.13976H105.601V8.38486H106.281V7.55398L107.294 7.25586V8.38389H108.432V9.13976H108.433Z" fill="white"/>
<path d="M113.905 12.9182H112.87V10.3409C112.87 9.52832 112.558 9.12153 111.934 9.12153C111.455 9.12153 111.127 9.35714 110.948 9.82836C110.917 9.92741 110.899 10.0486 110.899 10.1909V12.9172H109.867V6.30481H110.899V9.03691H110.919C111.245 8.53972 111.711 8.29161 112.316 8.29161C112.744 8.29161 113.098 8.42817 113.379 8.70224C113.729 9.04364 113.905 9.5514 113.905 10.2226V12.9182Z" fill="white"/>
<path d="M119.55 10.4371C119.55 10.6179 119.536 10.7698 119.511 10.8939H116.411C116.425 11.342 116.573 11.6834 116.86 11.92C117.123 12.1316 117.461 12.2373 117.875 12.2373C118.334 12.2373 118.752 12.1662 119.129 12.0229L119.29 12.723C118.85 12.9096 118.331 13.0028 117.73 13.0028C117.01 13.0028 116.443 12.7961 116.033 12.3826C115.62 11.969 115.416 11.4142 115.416 10.7179C115.416 10.0342 115.607 9.46486 115.99 9.01096C116.391 8.52628 116.932 8.28394 117.616 8.28394C118.284 8.28394 118.792 8.52628 119.136 9.01096C119.413 9.39562 119.55 9.87165 119.55 10.4371ZM118.564 10.1765C118.571 9.87742 118.503 9.61969 118.363 9.40235C118.184 9.12251 117.911 8.98211 117.541 8.98211C117.203 8.98211 116.928 9.11866 116.718 9.39274C116.547 9.61104 116.445 9.87165 116.411 10.1765H118.564Z" fill="white"/>
</svg>
