<svg width="53" height="53" viewBox="0 0 53 53" fill="none" xmlns="http://www.w3.org/2000/svg">
<g clip-path="url(#clip0)">
<path d="M50.1219 26.8006H39.1394V24.8655C39.1394 24.1414 38.5504 23.5524 37.8263 23.5524H28.9533C28.2292 23.5524 27.6402 24.1414 27.6402 24.8655V26.8006H26.2023V19.5976C26.2023 18.1854 25.0532 17.0363 23.6411 17.0363H20.5105V3.09039C20.5105 2.24352 19.8224 1.55551 18.9756 1.55551H17.779V1.20686C17.779 0.54154 17.2375 0 16.5711 0H10.5657C9.90039 0 9.35885 0.54154 9.35885 1.20686V1.55551H8.1623C7.31544 1.55551 6.62742 2.24456 6.62742 3.09039V17.0353H2.56123C1.1491 17.0363 0 18.1854 0 19.5976V27.567C0 27.9951 0.346586 28.3427 0.775692 28.3427C1.2048 28.3427 1.55138 27.9951 1.55138 27.567V19.5976C1.55138 19.0406 2.00422 18.5877 2.56123 18.5877H23.6411C24.1981 18.5877 24.6509 19.0406 24.6509 19.5976V46.6746C24.6509 47.2316 24.1981 47.6844 23.6411 47.6844H2.56123C2.00422 47.6844 1.55138 47.2316 1.55138 46.6746V30.6687C1.55138 30.2406 1.2048 29.893 0.775692 29.893C0.346586 29.893 0 30.2396 0 30.6687V46.6746C0 48.0867 1.1491 49.2358 2.56123 49.2358H4.13737V52.0353C4.13737 52.4634 4.48395 52.811 4.91306 52.811C5.34217 52.811 5.68875 52.4634 5.68875 52.0353V49.2358H14.4101V50.5654C14.4101 51.8053 15.4189 52.8131 16.6578 52.8131H50.1219C51.3617 52.8131 52.3695 51.8043 52.3695 50.5654V29.0482C52.3695 27.8084 51.3617 26.8006 50.1219 26.8006ZM10.9102 1.55035H16.2287V3.11102H10.9102V1.55035ZM8.17881 3.10689H9.35988V3.45554C9.35988 4.12086 9.90142 4.66241 10.5667 4.66241H16.5722C17.2375 4.66241 17.779 4.12086 17.779 3.45554V3.10689H18.9601V17.0363H8.17881V3.10689ZM44.526 28.3509V51.1524H42.9746V28.3509H44.526ZM26.2023 46.6746V28.3509H33.3898C33.8179 28.3509 34.1655 28.0033 34.1655 27.5752C34.1655 27.1472 33.8189 26.7995 33.3898 26.7995H29.1906V25.1017H37.5891V26.7995H36.4916C36.0635 26.7995 35.7159 27.1472 35.7159 27.5752C35.7159 28.0033 36.0625 28.3509 36.4916 28.3509H41.4242V51.2617H22.0649V49.2348H23.6411C25.0532 49.2358 26.2023 48.0867 26.2023 46.6746ZM15.9605 50.5654V49.2358H20.5146V51.2627H16.6578C16.273 51.2627 15.9605 50.9492 15.9605 50.5654ZM50.8192 50.5654C50.8192 50.9502 50.5066 51.2627 50.1219 51.2627H46.0763V28.3509H50.1219C50.5066 28.3509 50.8192 28.6635 50.8192 29.0482V50.5654Z" fill="url(#paint0_linear)"/>
<path d="M29.7484 45.4912H35.4774C36.4357 45.4912 37.2155 44.7114 37.2155 43.7531V41.4972C37.2155 40.539 36.4357 39.7592 35.4774 39.7592H29.7484C28.7901 39.7592 28.0103 40.539 28.0103 41.4972V43.7531C28.0103 44.7114 28.7901 45.4912 29.7484 45.4912ZM29.5607 41.4962C29.5607 41.3931 29.6453 41.3085 29.7484 41.3085H35.4774C35.5805 41.3085 35.6651 41.3931 35.6651 41.4962V43.7521C35.6651 43.8553 35.5805 43.9398 35.4774 43.9398H29.7484C29.6453 43.9398 29.5607 43.8553 29.5607 43.7521V41.4962Z" fill="url(#paint1_linear)"/>
<path d="M6.57525 43.6883V22.5899C6.57525 22.1618 6.22866 21.8142 5.79956 21.8142C5.37045 21.8142 5.02386 22.1618 5.02386 22.5899V43.6883C5.02386 44.1164 5.37045 44.464 5.79956 44.464C6.22866 44.463 6.57525 44.1164 6.57525 43.6883Z" fill="url(#paint2_linear)"/>
<path d="M11.4449 43.6883V22.5899C11.4449 22.1618 11.0983 21.8142 10.6692 21.8142C10.2411 21.8142 9.89352 22.1618 9.89352 22.5899V43.6883C9.89352 44.1164 10.2401 44.464 10.6692 44.464C11.0973 44.463 11.4449 44.1164 11.4449 43.6883Z" fill="url(#paint3_linear)"/>
<path d="M16.3101 43.6883V22.5899C16.3101 22.1618 15.9636 21.8142 15.5344 21.8142C15.1053 21.8142 14.7588 22.1618 14.7588 22.5899V43.6883C14.7588 44.1164 15.1053 44.464 15.5344 44.464C15.9636 44.464 16.3101 44.1164 16.3101 43.6883Z" fill="url(#paint4_linear)"/>
<path d="M21.1753 43.6883V22.5899C21.1753 22.1618 20.8288 21.8142 20.3997 21.8142C19.9705 21.8142 19.624 22.1618 19.624 22.5899V43.6883C19.624 44.1164 19.9705 44.464 20.3997 44.464C20.8288 44.463 21.1753 44.1164 21.1753 43.6883Z" fill="url(#paint5_linear)"/>
</g>
<defs>
<linearGradient id="paint0_linear" x1="13.5824" y1="39.7007" x2="54.2073" y2="43.3942" gradientUnits="userSpaceOnUse">
<stop offset="0.00906761" stop-color="#00A8E4"/>
<stop offset="0.00916761" stop-color="#00A7E5"/>
<stop offset="0.99861" stop-color="#55D074"/>
</linearGradient>
<linearGradient id="paint1_linear" x1="30.3977" y1="44.0681" x2="37.4447" y2="45.1057" gradientUnits="userSpaceOnUse">
<stop offset="0.00906761" stop-color="#00A8E4"/>
<stop offset="0.00916761" stop-color="#00A7E5"/>
<stop offset="0.99861" stop-color="#55D074"/>
</linearGradient>
<linearGradient id="paint2_linear" x1="5.42623" y1="38.8405" x2="6.63959" y2="38.8482" gradientUnits="userSpaceOnUse">
<stop offset="0.00906761" stop-color="#00A8E4"/>
<stop offset="0.00916761" stop-color="#00A7E5"/>
<stop offset="0.99861" stop-color="#55D074"/>
</linearGradient>
<linearGradient id="paint3_linear" x1="10.2959" y1="38.8405" x2="11.5093" y2="38.8482" gradientUnits="userSpaceOnUse">
<stop offset="0.00906761" stop-color="#00A8E4"/>
<stop offset="0.00916761" stop-color="#00A7E5"/>
<stop offset="0.99861" stop-color="#55D074"/>
</linearGradient>
<linearGradient id="paint4_linear" x1="15.1611" y1="38.8405" x2="16.3745" y2="38.8482" gradientUnits="userSpaceOnUse">
<stop offset="0.00906761" stop-color="#00A8E4"/>
<stop offset="0.00916761" stop-color="#00A7E5"/>
<stop offset="0.99861" stop-color="#55D074"/>
</linearGradient>
<linearGradient id="paint5_linear" x1="20.0263" y1="38.8405" x2="21.2397" y2="38.8482" gradientUnits="userSpaceOnUse">
<stop offset="0.00906761" stop-color="#00A8E4"/>
<stop offset="0.00916761" stop-color="#00A7E5"/>
<stop offset="0.99861" stop-color="#55D074"/>
</linearGradient>
<clipPath id="clip0">
<rect width="52.3695" height="52.8131" fill="white"/>
</clipPath>
</defs>
</svg>
