<svg width="51" height="54" viewBox="0 0 51 54" fill="none" xmlns="http://www.w3.org/2000/svg">
<g clip-path="url(#clip0)">
<path d="M50.1715 11.9158L25.6532 0.0800806C25.4359 -0.0243335 25.1828 -0.0243335 24.9655 0.0800806L0.447187 11.9158C0.174023 12.0476 0 12.325 0 12.6277V41.3732C0 41.677 0.174023 41.9533 0.447187 42.0851L24.9655 53.9219C25.0741 53.9746 25.1923 54.001 25.3093 54.001C25.4264 54.001 25.5445 53.9746 25.6532 53.9219L50.1715 42.0862C50.4446 41.9543 50.6187 41.677 50.6187 41.3743V12.6277C50.6187 12.325 50.4446 12.0476 50.1715 11.9158ZM25.3093 1.67055L48.0083 12.6288L41.4281 15.8055C41.387 15.7738 41.3427 15.7443 41.2942 15.7211L18.7492 4.83672L25.3093 1.67055ZM16.9636 5.7311L39.6288 16.6735L34.9861 18.9147L12.3304 7.97653L16.9636 5.7311ZM35.8225 20.2679L40.1583 18.1743V26.4589L35.8225 28.5524V20.2679ZM26.1004 51.9496V24.9612L31.571 22.3203C31.9644 22.1304 32.1289 21.6579 31.9391 21.2645C31.7493 20.8711 31.2768 20.7066 30.8823 20.8964L25.3083 23.587L23.1145 22.528C22.7211 22.3382 22.2486 22.5027 22.0588 22.8961C21.8689 23.2895 22.0335 23.762 22.4269 23.9519L24.5173 24.9612V51.9496L1.58203 40.8775V13.888L19.0477 22.3203C19.1584 22.3741 19.2755 22.3994 19.3915 22.3994C19.6857 22.3994 19.9684 22.2348 20.1045 21.9522C20.2943 21.5588 20.1298 21.0863 19.7364 20.8964L2.61035 12.6277L10.4678 8.83399L34.2288 20.3048C34.232 20.31 34.2362 20.3143 34.2394 20.3185V29.8107C34.2394 30.0828 34.3796 30.3359 34.6096 30.4804C34.7372 30.5605 34.8838 30.6017 35.0304 30.6017C35.1475 30.6017 35.2656 30.5753 35.3742 30.5226L41.2921 27.6654C41.5652 27.5336 41.7393 27.2562 41.7393 26.9535V17.4097L49.0345 13.888V40.8764L26.1004 51.9496Z" fill="url(#paint0_linear)"/>
<path d="M8.10974 37.8084L4.51115 36.0714C4.11775 35.8815 3.64525 36.0461 3.4554 36.4395C3.26556 36.8329 3.43009 37.3054 3.82349 37.4963L7.42208 39.2333C7.53283 39.2871 7.6499 39.3124 7.76486 39.3124C8.05912 39.3124 8.34177 39.1479 8.47783 38.8652C8.66872 38.4708 8.50314 37.9983 8.10974 37.8084Z" fill="#239EE1"/>
<path d="M11.4209 35.6527L4.51695 32.3198C4.12355 32.13 3.65105 32.2945 3.4612 32.6879C3.27136 33.0813 3.43589 33.5538 3.82929 33.7447L10.7343 37.0775C10.8451 37.1313 10.9621 37.1566 11.0771 37.1566C11.3714 37.1566 11.654 36.9921 11.7901 36.7095C11.9799 36.3161 11.8143 35.8425 11.4209 35.6527Z" fill="#239EE1"/>
</g>
<defs>
<linearGradient id="paint0_linear" x1="13.1283" y1="40.5941" x2="52.4293" y2="43.9719" gradientUnits="userSpaceOnUse">
<stop offset="0.00906761" stop-color="#00A8E4"/>
<stop offset="0.00916761" stop-color="#00A7E5"/>
<stop offset="0.99861" stop-color="#55D074"/>
</linearGradient>
<clipPath id="clip0">
<rect width="50.6187" height="54" fill="white"/>
</clipPath>
</defs>
</svg>
