<svg width="132" height="132" viewBox="0 0 132 132" fill="none" xmlns="http://www.w3.org/2000/svg">
<path d="M130.858 125.268L98.7731 93.1902C107.38 83.2976 112.591 70.3902 112.591 56.2829C112.591 25.2293 87.3267 0 56.2954 0C25.2349 0 0 25.2585 0 56.2829C0 87.3073 25.2641 112.566 56.2954 112.566C70.4059 112.566 83.316 107.356 93.2109 98.7512L125.296 130.829C126.057 131.59 127.082 132 128.077 132C129.073 132 130.097 131.62 130.858 130.829C132.381 129.307 132.381 126.79 130.858 125.268ZM7.87492 56.2829C7.87492 29.5902 29.5968 7.90244 56.2661 7.90244C82.9647 7.90244 104.657 29.6195 104.657 56.2829C104.657 82.9463 82.9647 104.693 56.2661 104.693C29.5968 104.693 7.87492 82.9756 7.87492 56.2829Z" fill="url(#paint0_linear)"/>
<defs>
<linearGradient id="paint0_linear" x1="34.235" y1="99.2271" x2="136.618" y2="108.614" gradientUnits="userSpaceOnUse">
<stop offset="0.00906761" stop-color="#00A8E4"/>
<stop offset="0.00916761" stop-color="#00A7E5"/>
<stop offset="0.99861" stop-color="#55D074"/>
</linearGradient>
</defs>
</svg>
