<svg width="12" height="15" viewBox="0 0 12 15" fill="none" xmlns="http://www.w3.org/2000/svg">
<path d="M6.67839 0.988567L6.61668 0.981495L6.68434 0.996977C8.50293 1.41314 9.81392 3.10146 9.81392 5.01318V8.13197C9.81392 8.60452 10.0028 9.05757 10.3391 9.39151L11.3402 10.3857C11.5061 10.5505 11.5993 10.774 11.5993 11.0072V11.0078C11.5993 11.5349 11.169 11.9621 10.6383 11.9621H7.58923V11.9698H7.58151V12.4131C7.58151 13.3883 6.78564 14.1787 5.80353 14.1787C4.82143 14.1787 4.02556 13.3883 4.02556 12.4131V11.9698H4.01783V11.9621H0.968744C0.438085 11.9621 0.00772503 11.5346 0.00772503 11.0078V11.0072C0.00772503 10.774 0.100928 10.5505 0.266881 10.3857L1.26827 9.39151L1.26283 9.38603L1.26827 9.39151C1.60454 9.05729 1.79343 8.60424 1.79343 8.13197V4.87658C1.79343 2.97818 3.1323 1.39439 4.92297 0.995047L4.93757 1.06053L4.92896 0.986613C4.92781 0.976796 4.92648 0.967199 4.92517 0.957703C4.92188 0.934015 4.91869 0.910952 4.91869 0.886651C4.91869 0.401925 5.31556 0.00772503 5.80381 0.00772503C6.29206 0.00772503 6.68894 0.401925 6.68894 0.886651C6.68894 0.910978 6.6857 0.9342 6.68239 0.957979C6.68099 0.968034 6.67958 0.978188 6.67839 0.988567Z" fill="#01A9E4" stroke="#01A9E4" stroke-width="0.0154501"/>
</svg>
