<svg width="32" height="32" viewBox="0 0 32 32" fill="none" xmlns="http://www.w3.org/2000/svg">
<rect width="32" height="32" rx="6" fill="#0BB65E"/>
<path d="M21.3456 19.3802L20.3445 18.386C20.0097 18.0535 19.8216 17.6025 19.8216 17.132V14.0132C19.8216 12.1335 18.5565 10.4691 16.7867 10.0139C16.7297 9.99923 16.6967 9.94553 16.6967 9.88665C16.6967 9.39761 16.2963 9 15.8038 9C15.3113 9 14.911 9.39761 14.911 9.88665C14.911 9.94431 14.8784 9.9969 14.8224 10.0109C13.0781 10.4463 11.7857 12.0095 11.7857 13.8766V17.132C11.7857 17.6022 11.5976 18.0533 11.2628 18.386L10.2614 19.3802C10.094 19.5464 10 19.772 10 20.0072C10 20.5384 10.4339 20.9698 10.9687 20.9698H13.5745C13.8193 20.9698 14.0178 21.1683 14.0178 21.4131C14.0178 22.3926 14.8172 23.1864 15.8035 23.1864C16.7899 23.1864 17.5892 22.3926 17.5892 21.4131C17.5892 21.1683 17.7877 20.9698 18.0326 20.9698H20.6383C21.1732 20.9698 21.6071 20.5392 21.6071 20.0078C21.6071 19.7725 21.513 19.5464 21.3456 19.3802Z" fill="#FFFEFE"/>
</svg>
