<svg width="49" height="39" viewBox="0 0 49 39" fill="none" xmlns="http://www.w3.org/2000/svg">
<g clip-path="url(#clip0)">
<path d="M8.91846 37.8979V35.3743C8.96052 34.5331 8.37168 33.8181 7.53048 33.776C7.44636 33.776 7.4043 33.776 7.32018 33.776C6.7734 33.7339 6.22662 34.0284 5.89014 34.491C5.59572 34.0284 5.091 33.7339 4.54421 33.776C4.08155 33.7339 3.61889 33.9863 3.36653 34.3648V33.8601H2.52533V37.8979H3.40859V35.6687C3.32447 35.164 3.70301 34.6593 4.20773 34.6172C4.24979 34.6172 4.33391 34.6172 4.37597 34.6172C4.96481 34.6172 5.25924 34.9957 5.25924 35.6687V37.8979H6.1425V35.6687C6.05838 35.164 6.43692 34.6593 6.94164 34.6172C6.9837 34.6172 7.06782 34.6172 7.10988 34.6172C7.69872 34.6172 7.99314 34.9957 7.99314 35.6687V37.8979H8.91846ZM21.9992 33.9022H20.5691V32.6824H19.6858V33.9022H18.8867V34.7013H19.6858V36.552C19.6858 37.4773 20.0644 38.0241 21.0738 38.0241C21.4524 38.0241 21.8309 37.8979 22.1674 37.7297L21.915 36.9726C21.6627 37.0988 21.4103 37.1829 21.1579 37.1829C20.7373 37.1829 20.5691 36.9305 20.5691 36.5099V34.6593H21.9992V33.9022ZM29.4438 33.776C29.0232 33.776 28.6026 33.9863 28.3923 34.3648V33.8601H27.509V37.8979H28.3923V35.6266C28.3923 34.9537 28.6867 34.5751 29.2335 34.5751C29.4017 34.5751 29.612 34.6172 29.7803 34.6593L30.0326 33.8181C29.8644 33.8181 29.6541 33.776 29.4438 33.776ZM18.1717 34.1966C17.667 33.9022 17.1202 33.776 16.5313 33.776C15.5219 33.776 14.8489 34.2807 14.8489 35.0799C14.8489 35.7528 15.3537 36.1314 16.2369 36.2575L16.6575 36.2996C17.1202 36.3837 17.3725 36.5099 17.3725 36.7202C17.3725 37.0146 17.0361 37.2249 16.4472 37.2249C15.9846 37.2249 15.4798 37.0988 15.1013 36.8043L14.6807 37.4773C15.1854 37.8138 15.8163 38.0241 16.4052 37.982C17.5828 37.982 18.2558 37.4352 18.2558 36.6781C18.2558 35.9211 17.709 35.5846 16.8678 35.4584L16.4472 35.4163C16.0687 35.3743 15.7743 35.2902 15.7743 35.0378C15.7743 34.7854 16.0687 34.5751 16.5313 34.5751C16.994 34.5751 17.4146 34.7013 17.7931 34.9116L18.1717 34.1966ZM41.5992 33.776C41.1786 33.776 40.7579 33.9863 40.5476 34.3648V33.8601H39.6644V37.8979H40.5476V35.6266C40.5476 34.9537 40.8421 34.5751 41.3889 34.5751C41.5571 34.5751 41.7674 34.6172 41.9356 34.6593L42.188 33.8181C42.0198 33.8181 41.8095 33.776 41.5992 33.776ZM30.327 35.879C30.285 37.0146 31.1682 37.94 32.2618 37.982C32.3459 37.982 32.388 37.982 32.4721 37.982C32.9768 38.0241 33.5236 37.8558 33.9022 37.5194L33.4816 36.8043C33.1871 37.0146 32.8086 37.1408 32.4301 37.1829C31.715 37.1408 31.2103 36.5099 31.2524 35.7949C31.2944 35.164 31.7992 34.6593 32.4301 34.6172C32.8086 34.6172 33.1871 34.7434 33.4816 34.9957L33.9022 34.2807C33.4816 33.9442 32.9768 33.776 32.4721 33.8181C31.3365 33.7339 30.4112 34.6172 30.327 35.7108C30.327 35.7528 30.327 35.7949 30.327 35.879ZM38.5288 35.879V33.8601H37.6455V34.3648C37.3511 33.9863 36.8884 33.776 36.3837 33.776C35.206 33.776 34.2807 34.7013 34.2807 35.879C34.2807 37.0567 35.206 37.982 36.3837 37.982C36.8884 37.982 37.3511 37.7717 37.6455 37.3932V37.8979H38.5288V35.879ZM35.2481 35.879C35.2901 35.206 35.879 34.7013 36.5519 34.7434C37.2249 34.7854 37.7296 35.3743 37.6876 36.0472C37.6455 36.6781 37.1408 37.1829 36.4678 37.1829C35.7949 37.1829 35.2481 36.6782 35.2481 36.0052C35.2481 35.9631 35.2481 35.9211 35.2481 35.879ZM24.691 33.776C23.5133 33.776 22.588 34.7434 22.6301 35.9211C22.6721 37.0988 23.5974 38.0241 24.7751 37.982C25.364 38.0241 25.9949 37.8138 26.4575 37.4352L26.0369 36.8043C25.7004 37.0567 25.2798 37.2249 24.8592 37.2249C24.2704 37.267 23.7236 36.8464 23.6395 36.2575H26.6258C26.6258 36.1314 26.6258 36.0473 26.6258 35.9211C26.6258 34.6172 25.8266 33.776 24.691 33.776ZM24.691 34.5751C25.2378 34.5751 25.7004 34.9957 25.7004 35.5425H23.5974C23.6395 34.9957 24.1442 34.5331 24.691 34.5751ZM46.6043 35.879V32.2618H45.7631V34.3648C45.4687 33.9863 45.006 33.776 44.5013 33.776C43.3236 33.776 42.3983 34.7013 42.3983 35.879C42.3983 37.0567 43.3236 37.982 44.5013 37.982C45.006 37.982 45.4687 37.7717 45.7631 37.3932V37.8979H46.6043V35.879ZM48.0764 37.3091C48.1185 37.3091 48.2026 37.3091 48.2446 37.3511C48.2867 37.3511 48.3288 37.3932 48.3708 37.4352C48.4129 37.4773 48.4549 37.5194 48.4549 37.5614C48.497 37.6455 48.497 37.7717 48.4549 37.8558C48.4129 37.8979 48.4129 37.94 48.3708 37.982C48.3288 38.0241 48.2867 38.0661 48.2446 38.0661C48.2026 38.1082 48.1605 38.1082 48.0764 38.1082C47.9082 38.1082 47.782 38.0241 47.6979 37.8558C47.6558 37.7717 47.6558 37.6455 47.6979 37.5614C47.7399 37.5194 47.7399 37.4773 47.782 37.4352C47.824 37.3932 47.8661 37.3511 47.9082 37.3511C47.9923 37.3091 48.0343 37.3091 48.0764 37.3091ZM48.0764 38.0241C48.1185 38.0241 48.1605 38.0241 48.2026 37.982C48.2446 37.982 48.2867 37.94 48.2867 37.8979C48.4129 37.7717 48.4129 37.6035 48.2867 37.4773C48.2446 37.4352 48.2446 37.4352 48.2026 37.3932C48.1605 37.3932 48.1185 37.3511 48.0764 37.3511C48.0343 37.3511 47.9923 37.3511 47.9502 37.3932C47.9082 37.3932 47.8661 37.4352 47.8661 37.4773C47.7399 37.6035 47.7399 37.7717 47.8661 37.8979C47.9082 37.94 47.9502 37.94 47.9502 37.982C47.9923 38.0241 48.0343 38.0241 48.0764 38.0241ZM48.1185 37.5194C48.1605 37.5194 48.2026 37.5194 48.2446 37.5614C48.2867 37.6035 48.2867 37.6035 48.2867 37.6455C48.2867 37.6876 48.2867 37.6876 48.2446 37.7297C48.2026 37.7717 48.2026 37.7717 48.1605 37.7717L48.2867 37.8979H48.2026L48.0764 37.7717H48.0343V37.8979H47.9502V37.5194H48.1185ZM48.0343 37.6035V37.6876H48.1185H48.1605V37.6455V37.6035H48.1185H48.0343ZM43.4077 35.879C43.4498 35.206 44.0386 34.7013 44.7116 34.7434C45.3846 34.7854 45.8893 35.3743 45.8472 36.0472C45.8052 36.6781 45.3004 37.1829 44.6275 37.1829C43.9545 37.1829 43.4077 36.6782 43.4077 36.0052C43.3657 35.9631 43.4077 35.9211 43.4077 35.879ZM13.8395 35.879V33.8601H12.9562V34.3648C12.6618 33.9863 12.1992 33.776 11.6944 33.776C10.5167 33.776 9.59142 34.7013 9.59142 35.879C9.59142 37.0567 10.5167 37.982 11.6944 37.982C12.1992 37.982 12.6618 37.7717 12.9562 37.3932V37.8979H13.8395V35.879ZM10.6009 35.879C10.6429 35.206 11.2318 34.7013 11.9047 34.7434C12.5777 34.7854 13.0824 35.3743 13.0404 36.0472C12.9983 36.6781 12.4936 37.1829 11.8206 37.1829C11.1476 37.1829 10.6009 36.6782 10.6009 36.0052C10.6009 35.9631 10.6009 35.9211 10.6009 35.879Z" fill="#231F20"/>
<path d="M31.1265 3.24033H17.8776V27.0463H31.1265V3.24033Z" fill="#FF5F00"/>
<path d="M18.7172 15.1414C18.7172 10.5148 20.8623 6.09849 24.5215 3.2384C17.9181 -1.93499 8.41253 -0.799364 3.23914 5.80407C-1.93425 12.4075 -0.798631 21.871 5.8048 27.0444C11.3147 31.3766 19.0117 31.3766 24.5215 27.0444C20.8623 24.1843 18.7172 19.8101 18.7172 15.1414Z" fill="#EB001B"/>
<path d="M49.0003 15.1424C49.0003 23.5123 42.2286 30.284 33.8586 30.284C30.4518 30.284 27.1711 29.1484 24.5213 27.0454C31.0827 21.872 32.2183 12.3664 27.0449 5.80505C26.2878 4.83766 25.4466 3.99646 24.4792 3.23938C31.0406 -1.93401 40.5883 -0.798387 45.7617 5.80505C47.8647 8.45483 49.0003 11.7355 49.0003 15.1424Z" fill="#F79E1B"/>
<path d="M47.5727 24.5227V24.018H47.783V23.9339H47.2783V24.018H47.4886V24.5227H47.5727ZM48.5401 24.5227V23.9339H48.3718L48.2036 24.3545L48.0353 23.9339H47.9092V24.5227H48.0353V24.1021L48.2036 24.4806H48.3298L48.498 24.1021V24.5648L48.5401 24.5227Z" fill="#F79E1B"/>
</g>
<defs>
<clipPath id="clip0">
<rect width="49" height="38.1064" fill="white"/>
</clipPath>
</defs>
</svg>
