<svg width="49" height="39" viewBox="0 0 49 39" fill="none" xmlns="http://www.w3.org/2000/svg">
<g clip-path="url(#clip0)">
<path d="M14.8056 37.8968V35.3732C14.8476 34.532 14.2588 33.817 13.4176 33.775C13.3335 33.775 13.2914 33.775 13.2073 33.775C12.6605 33.7329 12.1137 34.0273 11.7772 34.49C11.4828 34.0273 10.9781 33.7329 10.4313 33.775C9.96864 33.7329 9.50598 33.9853 9.25362 34.3638V33.8591H8.37036V37.8548H9.25362V35.6256C9.1695 35.1209 9.54804 34.6582 10.0528 34.5741C10.0948 34.5741 10.1789 34.5741 10.221 34.5741C10.8098 34.5741 11.1043 34.9526 11.1043 35.6256V37.8548H11.9875V35.6256C11.9034 35.1209 12.2819 34.6162 12.7867 34.5741C12.8287 34.5741 12.9129 34.5741 12.9549 34.5741C13.5438 34.5741 13.8382 34.9526 13.8382 35.6256V37.8548L14.8056 37.8968ZM19.7266 35.878V33.8591H18.8433V34.3638C18.5489 33.9853 18.0862 33.775 17.5815 33.775C16.4038 33.775 15.4785 34.7003 15.4785 35.878C15.4785 37.0556 16.4038 37.981 17.5815 37.981C18.0862 37.981 18.5489 37.7707 18.8433 37.3921V37.8968H19.7266V35.878ZM16.488 35.878C16.53 35.205 17.1189 34.7003 17.7918 34.7423C18.4648 34.7844 18.9695 35.3732 18.9274 36.0462C18.8854 36.6771 18.3807 37.1818 17.7077 37.1818C17.0347 37.1818 16.488 36.6771 16.488 36.0041C16.488 35.9621 16.488 35.92 16.488 35.878ZM38.4433 33.775C38.7377 33.775 39.0322 33.817 39.2845 33.9432C39.5369 34.0273 39.7892 34.1956 39.9575 34.4059C40.1678 34.6162 40.294 34.8265 40.4201 35.0788C40.6304 35.6256 40.6304 36.2144 40.4201 36.7612C40.294 37.0136 40.1678 37.2239 39.9575 37.4342C39.7472 37.6445 39.5369 37.7707 39.2845 37.8968C38.7377 38.1071 38.1068 38.1071 37.5601 37.8968C37.3077 37.8127 37.0553 37.6445 36.8871 37.4342C36.6768 37.2239 36.5506 37.0136 36.4244 36.7612C36.2141 36.2144 36.2141 35.6256 36.4244 35.0788C36.5086 34.8265 36.6768 34.6162 36.8871 34.4059C37.0974 34.1956 37.3077 34.0694 37.5601 33.9432C37.8124 33.817 38.1489 33.775 38.4433 33.775ZM38.4433 34.6162C38.2751 34.6162 38.1068 34.6582 37.9386 34.7003C37.7704 34.7423 37.6442 34.8685 37.518 34.9526C37.3918 35.0788 37.3077 35.205 37.2656 35.3732C37.1395 35.7097 37.1395 36.0883 37.2656 36.4247C37.3077 36.593 37.4339 36.7192 37.518 36.8453C37.6442 36.9715 37.7704 37.0556 37.9386 37.0977C38.2751 37.2239 38.6116 37.2239 38.948 37.0977C39.1163 37.0556 39.2425 36.9295 39.3686 36.8453C39.4948 36.7192 39.5789 36.593 39.621 36.4247C39.7472 36.0883 39.7472 35.7097 39.621 35.3732C39.5789 35.205 39.4528 35.0788 39.3686 34.9526C39.2425 34.8265 39.1163 34.7423 38.948 34.7003C38.7798 34.6582 38.6116 34.6162 38.4433 34.6162ZM24.4794 35.878C24.4794 34.6162 23.6802 33.775 22.5867 33.775C21.409 33.775 20.4837 34.7423 20.5257 35.92C20.5678 37.0977 21.4931 38.023 22.6708 37.981C23.2596 37.981 23.8485 37.8127 24.3111 37.4342L23.8905 36.8033C23.5541 37.0556 23.1335 37.2239 22.7128 37.2239C22.124 37.2659 21.5772 36.8453 21.4931 36.2565H24.4794C24.4794 36.1303 24.4794 36.0041 24.4794 35.878ZM21.4931 35.5415C21.5352 34.9947 21.9978 34.5741 22.5446 34.5741C23.0914 34.5741 23.5541 34.9947 23.5541 35.5415H21.4931ZM28.1807 34.9106C27.8021 34.7003 27.3815 34.5741 26.9189 34.5741C26.4562 34.5741 26.1618 34.7423 26.1618 35.0368C26.1618 35.3312 26.4562 35.3732 26.8347 35.4153L27.2553 35.4574C28.1386 35.5835 28.6433 35.9621 28.6433 36.6771C28.6433 37.3921 27.9704 37.981 26.7927 37.981C26.1618 37.981 25.5729 37.8127 25.0682 37.4762L25.4888 36.8033C25.8674 37.0977 26.33 37.2239 26.8347 37.2239C27.4236 37.2239 27.7601 37.0556 27.7601 36.7192C27.7601 36.5089 27.5498 36.3827 27.045 36.2986L26.6244 36.2565C25.7412 36.1303 25.2365 35.7097 25.2365 35.0788C25.2365 34.2797 25.9094 33.775 26.9189 33.775C27.5077 33.775 28.0545 33.9011 28.5592 34.1956L28.1807 34.9106ZM32.3867 34.7003H30.9566V36.5089C30.9566 36.9295 31.0828 37.1818 31.5455 37.1818C31.7978 37.1818 32.0923 37.0977 32.3026 36.9715L32.5549 37.7286C32.2184 37.9389 31.8399 38.023 31.4613 38.023C30.4098 38.023 30.0734 37.4762 30.0734 36.5509V34.7003H29.2742V33.9011H30.0734V32.6814H30.9566V33.9011H32.3867V34.7003ZM35.415 33.775C35.6253 33.775 35.8356 33.817 36.0459 33.9011L35.7935 34.7423C35.6253 34.6582 35.415 34.6582 35.2468 34.6582C34.6579 34.6582 34.4056 35.0368 34.4056 35.7097V37.981H33.5223V33.9853H34.4056V34.49C34.5738 34.0273 34.9944 33.775 35.415 33.775ZM41.4716 37.308C41.5137 37.308 41.5978 37.308 41.6399 37.3501C41.6819 37.3501 41.724 37.3921 41.7661 37.4342C41.8081 37.4762 41.8502 37.5183 41.8502 37.5604C41.8923 37.6445 41.8923 37.7707 41.8502 37.8548C41.8081 37.8968 41.8081 37.9389 41.7661 37.981C41.724 38.023 41.6819 38.0651 41.6399 38.0651C41.5978 38.1071 41.5558 38.1071 41.4716 38.1071C41.3034 38.1071 41.1772 38.023 41.0931 37.8548C41.051 37.7707 41.051 37.6445 41.0931 37.5604C41.1352 37.5183 41.1352 37.4762 41.1772 37.4342C41.2193 37.3921 41.2613 37.3501 41.3034 37.3501C41.3455 37.308 41.3875 37.308 41.4716 37.308ZM41.4716 38.023C41.5137 38.023 41.5558 38.023 41.5978 37.981C41.6399 37.981 41.6819 37.9389 41.6819 37.8968C41.8081 37.7707 41.8081 37.5604 41.6819 37.4762C41.6399 37.4762 41.5978 37.4342 41.5978 37.4342C41.5558 37.4342 41.5137 37.3921 41.4716 37.3921C41.4296 37.3921 41.3875 37.3921 41.3455 37.4342C41.3034 37.4342 41.2613 37.4762 41.2613 37.5183C41.1352 37.6445 41.1352 37.8127 41.2613 37.9389C41.3034 37.981 41.3875 38.023 41.4716 38.023ZM41.4716 37.5183C41.5137 37.5183 41.5558 37.5183 41.5978 37.5604C41.6399 37.6024 41.6399 37.6024 41.6399 37.6445C41.6399 37.6865 41.6399 37.6865 41.5978 37.7286C41.5558 37.7707 41.5558 37.7707 41.5137 37.7707L41.6399 37.8968H41.5558L41.4296 37.7707H41.3875V37.8968H41.3034V37.5183H41.4716ZM41.3875 37.6024V37.6865H41.4716H41.5137V37.6445V37.6024H41.4716H41.3875Z" fill="black"/>
<path d="M31.1223 3.23573H17.8734V27.0417H31.1223V3.23573Z" fill="#7673C0"/>
<path d="M18.7143 15.1392C18.7143 10.5126 20.8594 6.09631 24.5186 3.23622C17.9152 -1.93717 8.4096 -0.801546 3.23621 5.80189C-1.93718 12.3633 -0.801561 21.8688 5.80187 27.0422C11.3117 31.3744 19.0087 31.3744 24.5186 27.0422C20.8594 24.1821 18.7143 19.8079 18.7143 15.1392Z" fill="#EB001B"/>
<path d="M47.5683 24.5185V24.0559H47.7786V23.9717H47.2739V24.0559H47.4842V24.5606L47.5683 24.5185ZM48.5357 24.5185V23.9297H48.3674L48.1992 24.3503L48.0309 23.9297H47.8627V24.5185H47.9889V24.0979L48.1571 24.4765H48.2833L48.4515 24.0979V24.5606L48.5357 24.5185Z" fill="#00A1DF"/>
<path d="M48.998 15.1392C48.998 23.5092 42.2263 30.2809 33.8563 30.2809C30.4495 30.2809 27.1688 29.1452 24.519 27.0422C31.0804 21.8688 32.216 12.3633 27.0426 5.80189C26.2855 4.83451 25.4443 3.9933 24.4769 3.23622C31.0383 -1.93717 40.5859 -0.801546 45.7593 5.80189C47.8623 8.45167 48.998 11.7324 48.998 15.1392Z" fill="#00A1DF"/>
</g>
<defs>
<clipPath id="clip0">
<rect width="49" height="38.1064" fill="white"/>
</clipPath>
</defs>
</svg>
