<svg width="57" height="19" viewBox="0 0 57 19" fill="none" xmlns="http://www.w3.org/2000/svg">
<g clip-path="url(#clip0)">
<path d="M24.7105 18.6799H20.0609L22.9663 0.327972H27.6159L24.7105 18.6799Z" fill="#005CA9"/>
<path d="M16.1471 0.327972L11.7125 12.9505L11.1869 10.2306L9.62425 1.98249C9.62425 1.98249 9.4331 0.327972 7.4165 0.327972H0.0860161L0 0.637275C0 0.637275 2.2412 1.11841 4.86469 2.73366L8.90744 18.6799H13.753L21.1504 0.327972H16.1471Z" fill="#005CA9"/>
<path d="M52.7279 18.6799H57.0001L53.2775 0.327972H49.5358C47.8107 0.327972 47.3901 1.69774 47.3901 1.69774L40.4563 18.6848H45.3019L46.2719 15.96H52.1832L52.7279 18.6799ZM47.61 12.1895L50.0519 5.321L51.4281 12.1895H47.61Z" fill="#005CA9"/>
<path d="M40.8195 4.74264L41.4837 0.800258C41.4837 0.800258 39.4336 0 37.3024 0C34.9943 0 29.5131 1.03592 29.5131 6.07804C29.5131 10.8207 35.9452 10.8796 35.9452 13.3687C35.9452 15.8579 30.1774 15.416 28.2707 13.845L27.5778 17.9641C27.5778 17.9641 29.6565 19 32.8295 19C36.0026 19 40.7908 17.3111 40.7908 12.7158C40.7908 7.94367 34.3013 7.50181 34.3013 5.42506C34.2966 3.34832 38.8267 3.61344 40.8195 4.74264Z" fill="#005CA9"/>
<path d="M11.1869 10.2355L9.62425 1.98249C9.62425 1.98249 9.4331 0.327972 7.4165 0.327972H0.0860161L0 0.637275C0 0.637275 3.52188 1.38844 6.90518 4.19671C10.1356 6.88715 11.1869 10.2355 11.1869 10.2355Z" fill="#F7A823"/>
<rect x="-34.5" y="-22.5" width="141" height="80" rx="9.5" stroke="#A19F99"/>
</g>
<defs>
<clipPath id="clip0">
<rect width="57" height="19" fill="white"/>
</clipPath>
</defs>
</svg>
