<svg width="96" height="97" viewBox="0 0 96 97" fill="none" xmlns="http://www.w3.org/2000/svg">
<g clip-path="url(#clip0)">
<path d="M91.8798 49.1289H71.7476V45.5816C71.7476 44.2542 70.6679 43.1745 69.3405 43.1745H53.0751C51.7477 43.1745 50.668 44.2542 50.668 45.5816V49.1289H48.0321V35.9248C48.0321 33.3362 45.9257 31.2298 43.3371 31.2298H37.5983V5.66508C37.5983 4.11266 36.3371 2.85145 34.7846 2.85145H32.5912V2.21233C32.5912 0.992712 31.5985 0 30.377 0H19.3683C18.1487 0 17.156 0.992712 17.156 2.21233V2.85145H14.9625C13.4101 2.85145 12.1489 4.11456 12.1489 5.66508V31.2279H4.69506C2.10644 31.2298 0 33.3362 0 35.9248V50.5338C0 51.3185 0.635336 51.9557 1.42194 51.9557C2.20855 51.9557 2.84388 51.3185 2.84388 50.5338V35.9248C2.84388 34.9038 3.67398 34.0737 4.69506 34.0737H43.3371C44.3582 34.0737 45.1883 34.9038 45.1883 35.9248V85.5604C45.1883 86.5815 44.3582 87.4116 43.3371 87.4116H4.69506C3.67398 87.4116 2.84388 86.5815 2.84388 85.5604V56.2197C2.84388 55.4349 2.20855 54.7977 1.42194 54.7977C0.635336 54.7977 0 55.4331 0 56.2197V85.5604C0 88.1491 2.10644 90.2555 4.69506 90.2555H7.58432V95.3874C7.58432 96.1721 8.21966 96.8093 9.00626 96.8093C9.79287 96.8093 10.4282 96.1721 10.4282 95.3874V90.2555H26.4156V92.6928C26.4156 94.9657 28.2649 96.8131 30.5358 96.8131H91.8798C94.1526 96.8131 96 94.9638 96 92.6928V53.2491C96 50.9762 94.1526 49.1289 91.8798 49.1289ZM19.9998 2.84199H29.7492V5.7029H19.9998V2.84199ZM14.9928 5.69533H17.1578V6.33445C17.1578 7.55407 18.1506 8.54678 19.3702 8.54678H30.3789C31.5985 8.54678 32.5912 7.55407 32.5912 6.33445V5.69533H34.7563V31.2298H14.9928V5.69533ZM81.6217 51.9709V93.7688H78.7779V51.9709H81.6217ZM48.0321 85.5604V51.9709H61.2078C61.9925 51.9709 62.6297 51.3336 62.6297 50.5489C62.6297 49.7642 61.9944 49.127 61.2078 49.127H53.51V46.0146H68.9056V49.127H66.8937C66.109 49.127 65.4717 49.7642 65.4717 50.5489C65.4717 51.3336 66.1071 51.9709 66.8937 51.9709H75.9359V93.9692H40.4478V90.2536H43.3371C45.9257 90.2555 48.0321 88.1491 48.0321 85.5604ZM29.2576 92.6928V90.2555H37.6058V93.9711H30.5358C29.8305 93.9711 29.2576 93.3963 29.2576 92.6928ZM93.158 92.6928C93.158 93.3981 92.5851 93.9711 91.8798 93.9711H84.4637V51.9709H91.8798C92.5851 51.9709 93.158 52.5438 93.158 53.2491V92.6928Z" fill="#3C4858"/>
<path d="M54.5292 83.3915H65.0311C66.7878 83.3915 68.2173 81.962 68.2173 80.2054V76.07C68.2173 74.3134 66.7878 72.8839 65.0311 72.8839H54.5292C52.7726 72.8839 51.343 74.3134 51.343 76.07V80.2054C51.343 81.962 52.7726 83.3915 54.5292 83.3915ZM54.185 76.0681C54.185 75.879 54.3401 75.724 54.5292 75.724H65.0311C65.2202 75.724 65.3753 75.879 65.3753 76.0681V80.2035C65.3753 80.3926 65.2202 80.5476 65.0311 80.5476H54.5292C54.3401 80.5476 54.185 80.3926 54.185 80.2035V76.0681Z" fill="#3C4858"/>
<path d="M12.0563 80.0806V41.4045C12.0563 40.6198 11.421 39.9826 10.6343 39.9826C9.84774 39.9826 9.2124 40.6198 9.2124 41.4045V80.0806C9.2124 80.8653 9.84774 81.5025 10.6343 81.5025C11.421 81.5006 12.0563 80.8653 12.0563 80.0806Z" fill="#3C4858"/>
<path d="M20.9774 80.0806V41.4045C20.9774 40.6198 20.3421 39.9826 19.5555 39.9826C18.7707 39.9826 18.1335 40.6198 18.1335 41.4045V80.0806C18.1335 80.8653 18.7688 81.5025 19.5555 81.5025C20.3402 81.5006 20.9774 80.8653 20.9774 80.0806Z" fill="#3C4858"/>
<path d="M29.8967 80.0806V41.4045C29.8967 40.6198 29.2613 39.9826 28.4747 39.9826C27.6881 39.9826 27.0528 40.6198 27.0528 41.4045V80.0806C27.0528 80.8653 27.6881 81.5025 28.4747 81.5025C29.2613 81.5025 29.8967 80.8653 29.8967 80.0806Z" fill="#3C4858"/>
<path d="M38.8179 80.0806V41.4045C38.8179 40.6198 38.1825 39.9826 37.3959 39.9826C36.6093 39.9826 35.974 40.6198 35.974 41.4045V80.0806C35.974 80.8653 36.6093 81.5025 37.3959 81.5025C38.1825 81.5006 38.8179 80.8653 38.8179 80.0806Z" fill="#3C4858"/>
</g>
<defs>
<clipPath id="clip0">
<rect width="96" height="96.8131" fill="white"/>
</clipPath>
</defs>
</svg>
