<svg width="133" height="39" viewBox="0 0 133 39" fill="none" xmlns="http://www.w3.org/2000/svg">
<path d="M128.046 38.4688H4.92485C2.21741 38.4688 0 36.3038 0 33.6604V4.81042C0 2.16704 2.21741 0.00208458 4.92485 0.00208458H128.046C130.753 0.00208458 132.971 2.16704 132.971 4.81042V33.6604C132.971 36.3038 130.753 38.4688 128.046 38.4688Z" fill="#131313"/>
<path d="M128.046 0.772618C130.326 0.772618 132.182 2.58416 132.182 4.81042V33.6604C132.182 35.8867 130.326 37.6982 128.046 37.6982H4.92485C2.64464 37.6982 0.789206 35.8867 0.789206 33.6604V4.81042C0.789206 2.58416 2.64464 0.772618 4.92485 0.772618H128.046ZM128.046 0.00208458H4.92485C2.21741 0.00208458 0 2.16704 0 4.81042V33.6604C0 36.3038 2.21741 38.4688 4.92485 38.4688H128.046C130.753 38.4688 132.971 36.3038 132.971 33.6604V4.81042C132.971 2.16704 130.753 0.00208458 128.046 0.00208458Z" fill="#A6A6A6"/>
<path d="M46.7044 9.85311C46.7044 10.6561 46.4582 11.2992 45.9731 11.7789C45.4153 12.3474 44.6889 12.6335 43.7987 12.6335C42.948 12.6335 42.2216 12.3426 41.6256 11.7692C41.0285 11.1874 40.7306 10.4734 40.7306 9.61871C40.7306 8.76403 41.0285 8.04999 41.6256 7.47299C42.2216 6.89479 42.948 6.60388 43.7987 6.60388C44.2223 6.60388 44.6261 6.68923 45.0115 6.8479C45.3956 7.00778 45.7083 7.22416 45.9349 7.49102L45.4202 7.9983C45.025 7.54271 44.487 7.31792 43.7987 7.31792C43.1782 7.31792 42.6402 7.52949 42.1834 7.95623C41.7315 8.38417 41.505 8.93833 41.505 9.61871C41.505 10.2991 41.7315 10.8581 42.1834 11.286C42.6402 11.7079 43.1782 11.9243 43.7987 11.9243C44.4574 11.9243 45.0115 11.7079 45.4486 11.2812C45.7367 10.9987 45.9004 10.6092 45.9435 10.1116H43.7987V9.41676H46.6601C46.6945 9.56702 46.7044 9.71247 46.7044 9.85311Z" fill="white" stroke="white" stroke-width="0.118359" stroke-miterlimit="10"/>
<path d="M51.2442 7.44411H48.5564V9.27128H50.9794V9.96608H48.5564V11.7932H51.2442V12.5013H47.7955V6.73608H51.2442V7.44411Z" fill="white" stroke="white" stroke-width="0.118359" stroke-miterlimit="10"/>
<path d="M54.4481 12.5013H53.6872V7.44411H52.0386V6.73608H56.0979V7.44411H54.4481V12.5013Z" fill="white" stroke="white" stroke-width="0.118359" stroke-miterlimit="10"/>
<path d="M59.035 12.5013V6.73608H59.7947V12.5013H59.035Z" fill="white" stroke="white" stroke-width="0.118359" stroke-miterlimit="10"/>
<path d="M63.1624 12.5013H62.4077V7.44411H60.7529V6.73608H64.8171V7.44411H63.1624V12.5013Z" fill="white" stroke="white" stroke-width="0.118359" stroke-miterlimit="10"/>
<path d="M72.5025 11.7596C71.9201 12.3426 71.1986 12.6335 70.338 12.6335C69.4725 12.6335 68.751 12.3426 68.1686 11.7596C67.5875 11.1778 67.2981 10.4638 67.2981 9.61871C67.2981 8.77364 67.5875 8.0596 68.1686 7.4778C68.751 6.89479 69.4725 6.60388 70.338 6.60388C71.1937 6.60388 71.9152 6.89479 72.4976 7.4826C73.0836 8.06922 73.3729 8.77845 73.3729 9.61871C73.3729 10.4638 73.0836 11.1778 72.5025 11.7596ZM68.7313 11.2764C69.1696 11.7079 69.7027 11.9243 70.338 11.9243C70.9684 11.9243 71.5064 11.7079 71.9398 11.2764C72.3769 10.8448 72.5985 10.2907 72.5985 9.61871C72.5985 8.94674 72.3769 8.39258 71.9398 7.96103C71.5064 7.52949 70.9684 7.31311 70.338 7.31311C69.7027 7.31311 69.1696 7.52949 68.7313 7.96103C68.2942 8.39258 68.0726 8.94674 68.0726 9.61871C68.0726 10.2907 68.2942 10.8448 68.7313 11.2764Z" fill="white" stroke="white" stroke-width="0.118359" stroke-miterlimit="10"/>
<path d="M74.4408 12.5013V6.73608H75.3642L78.2354 11.2199H78.2686L78.2354 10.1115V6.73608H78.995V12.5013H78.2021L75.1955 7.79632H75.1623L75.1955 8.90945V12.5013H74.4408Z" fill="white" stroke="white" stroke-width="0.118359" stroke-miterlimit="10"/>
<path d="M67.1109 20.9208C64.7975 20.9208 62.9075 22.6398 62.9075 25.0115C62.9075 27.3639 64.7975 29.101 67.1109 29.101C69.4293 29.101 71.3192 27.3639 71.3192 25.0115C71.3192 22.6398 69.4293 20.9208 67.1109 20.9208ZM67.1109 27.4902C65.8415 27.4902 64.7494 26.4672 64.7494 25.0115C64.7494 23.5365 65.8415 22.5316 67.1109 22.5316C68.3803 22.5316 69.4773 23.5365 69.4773 25.0115C69.4773 26.4672 68.3803 27.4902 67.1109 27.4902ZM57.9396 20.9208C55.6212 20.9208 53.7363 22.6398 53.7363 25.0115C53.7363 27.3639 55.6212 29.101 57.9396 29.101C60.2567 29.101 62.143 27.3639 62.143 25.0115C62.143 22.6398 60.2567 20.9208 57.9396 20.9208ZM57.9396 27.4902C56.669 27.4902 55.5732 26.4672 55.5732 25.0115C55.5732 23.5365 56.669 22.5316 57.9396 22.5316C59.209 22.5316 60.3011 23.5365 60.3011 25.0115C60.3011 26.4672 59.209 27.4902 57.9396 27.4902ZM47.0262 22.1745V23.9128H51.2775C51.1532 24.884 50.8207 25.5981 50.311 26.0957C49.6905 26.6968 48.724 27.3639 47.0262 27.3639C44.4098 27.3639 42.3611 25.3024 42.3611 22.7479C42.3611 20.1935 44.4098 18.1319 47.0262 18.1319C48.4408 18.1319 49.4701 18.6717 50.2298 19.3713L51.4844 18.1464C50.4218 17.1559 49.0084 16.3949 47.0262 16.3949C43.4384 16.3949 40.4232 19.2451 40.4232 22.7479C40.4232 26.2508 43.4384 29.101 47.0262 29.101C48.9653 29.101 50.4218 28.4807 51.5669 27.3171C52.7402 26.1715 53.1059 24.5607 53.1059 23.26C53.1059 22.8561 53.0714 22.4847 53.0098 22.1745H47.0262ZM91.6526 23.5221C91.3067 22.6073 90.2392 20.9208 88.0649 20.9208C85.9103 20.9208 84.1164 22.5784 84.1164 25.0115C84.1164 27.3026 85.8918 29.101 88.2717 29.101C90.1961 29.101 91.3067 27.9554 91.7634 27.2882L90.3352 26.359C89.8588 27.0394 89.2099 27.4902 88.2717 27.4902C87.3397 27.4902 86.6711 27.073 86.2427 26.2508L91.8459 23.9873L91.6526 23.5221ZM85.9398 24.884C85.8918 23.3069 87.1944 22.4991 88.1277 22.4991C88.859 22.4991 89.4795 22.8561 89.6864 23.367L85.9398 24.884ZM81.3856 28.8521H83.2275V16.8313H81.3856V28.8521ZM78.3691 21.832H78.3075C77.8938 21.3535 77.1046 20.9208 76.1049 20.9208C74.0069 20.9208 72.0887 22.7191 72.0887 25.0247C72.0887 27.3171 74.0069 29.101 76.1049 29.101C77.1046 29.101 77.8938 28.6646 78.3075 28.1717H78.3691V28.7584C78.3691 30.3223 77.5134 31.1625 76.1332 31.1625C75.0079 31.1625 74.3098 30.3691 74.0217 29.702L72.4199 30.3547C72.8816 31.439 74.1042 32.7733 76.1332 32.7733C78.2928 32.7733 80.115 31.5328 80.115 28.5143V21.1696H78.3691V21.832ZM76.2625 27.4902C74.9931 27.4902 73.9306 26.4528 73.9306 25.0247C73.9306 23.5834 74.9931 22.5316 76.2625 22.5316C77.5134 22.5316 78.4996 23.5834 78.4996 25.0247C78.4996 26.4528 77.5134 27.4902 76.2625 27.4902ZM100.276 16.8313H95.8708V28.8521H97.7077V24.2974H100.276C102.316 24.2974 104.317 22.8561 104.317 20.5638C104.317 18.2726 102.311 16.8313 100.276 16.8313ZM100.324 22.6253H97.7077V18.5034H100.324C101.696 18.5034 102.479 19.6153 102.479 20.5638C102.479 21.4942 101.696 22.6253 100.324 22.6253ZM111.68 20.8979C110.352 20.8979 108.972 21.4701 108.404 22.7383L110.035 23.4055C110.386 22.7383 111.031 22.522 111.713 22.522C112.666 22.522 113.632 23.0809 113.647 24.0678V24.194C113.315 24.0065 112.603 23.7288 111.728 23.7288C109.972 23.7288 108.183 24.6725 108.183 26.4335C108.183 28.0443 109.621 29.0817 111.238 29.0817C112.474 29.0817 113.156 28.5372 113.584 27.9037H113.647V28.8329H115.421V24.2217C115.421 22.0904 113.791 20.8979 111.68 20.8979ZM111.458 27.4854C110.857 27.4854 110.02 27.1944 110.02 26.4672C110.02 25.5368 111.064 25.1798 111.968 25.1798C112.777 25.1798 113.156 25.3541 113.647 25.5837C113.503 26.6968 112.522 27.4854 111.458 27.4854ZM121.885 21.1612L119.773 26.3722H119.711L117.528 21.1612H115.547L118.827 28.4434L116.955 32.4956H118.875L123.929 21.1612H121.885ZM105.326 28.8521H107.168V16.8313H105.326V28.8521Z" fill="white"/>
<path d="M10.2783 7.25183C9.98899 7.54755 9.82155 8.00794 9.82155 8.60418V29.8714C9.82155 30.4677 9.98899 30.9281 10.2783 31.2238L10.3497 31.2887L22.556 19.376V19.0948L10.3497 7.18211L10.2783 7.25183Z" fill="url(#paint0_linear)"/>
<path d="M26.6201 23.3489L22.5558 19.376V19.0947L26.625 15.1218L26.7161 15.1735L31.5351 17.8505C32.9103 18.6103 32.9103 19.8604 31.5351 20.625L26.7161 23.2972L26.6201 23.3489Z" fill="url(#paint1_linear)"/>
<path d="M26.7164 23.2972L22.5561 19.2354L10.2785 31.2237C10.7353 31.6925 11.4801 31.749 12.3272 31.2802L26.7164 23.2972Z" fill="url(#paint2_linear)"/>
<path d="M26.7164 15.1736L12.3272 7.1906C11.4801 6.7266 10.7353 6.78309 10.2785 7.2519L22.5561 19.2355L26.7164 15.1736Z" fill="url(#paint3_linear)"/>
<defs>
<linearGradient id="paint0_linear" x1="21.4722" y1="30.0929" x2="5.33775" y2="13.5675" gradientUnits="userSpaceOnUse">
<stop stop-color="#00A0FF"/>
<stop offset="0.0066" stop-color="#00A1FF"/>
<stop offset="0.2601" stop-color="#00BEFF"/>
<stop offset="0.5122" stop-color="#00D2FF"/>
<stop offset="0.7604" stop-color="#00DFFF"/>
<stop offset="1" stop-color="#00E3FF"/>
</linearGradient>
<linearGradient id="paint1_linear" x1="33.3259" y1="19.234" x2="9.49268" y2="19.234" gradientUnits="userSpaceOnUse">
<stop stop-color="#FFE000"/>
<stop offset="0.4087" stop-color="#FFBD00"/>
<stop offset="0.7754" stop-color="#FFA500"/>
<stop offset="1" stop-color="#FF9C00"/>
</linearGradient>
<linearGradient id="paint2_linear" x1="24.4542" y1="17.0273" x2="2.57454" y2="-5.38253" gradientUnits="userSpaceOnUse">
<stop stop-color="#FF3A44"/>
<stop offset="1" stop-color="#C31162"/>
</linearGradient>
<linearGradient id="paint3_linear" x1="7.18795" y1="38.2994" x2="16.9582" y2="28.2925" gradientUnits="userSpaceOnUse">
<stop stop-color="#32A071"/>
<stop offset="0.0685" stop-color="#2DA771"/>
<stop offset="0.4762" stop-color="#15CF74"/>
<stop offset="0.8009" stop-color="#06E775"/>
<stop offset="1" stop-color="#00F076"/>
</linearGradient>
</defs>
</svg>
