<svg width="27" height="26" viewBox="0 0 27 26" fill="none" xmlns="http://www.w3.org/2000/svg">
<path fill-rule="evenodd" clip-rule="evenodd" d="M0.476716 25.5239C0.793579 25.8408 1.20956 26 1.62555 26C2.04153 26 2.45751 25.8408 2.77438 25.5239L25.5235 2.77424C26.1588 2.13887 26.1588 1.11189 25.5235 0.476524C24.8881 -0.158841 23.8612 -0.158841 23.2258 0.476524L18.7654 4.93708C17.0868 3.95072 15.1629 3.25036 13.0001 3.25036C5.27353 3.25036 0.408469 11.8448 0.205352 12.2105C-0.0692627 12.7028 -0.0676378 13.3024 0.208601 13.7948C0.322347 13.9979 1.90503 16.723 4.58456 19.1182L0.475091 23.2278C-0.158634 23.8615 -0.158634 24.8885 0.476716 25.5239ZM3.54688 12.9983C4.80945 11.1068 8.36481 6.5 13.0024 6.5C14.2081 6.5 15.3374 6.82662 16.379 7.32549L13.8343 9.8702C13.5679 9.79707 13.2916 9.74995 13.0024 9.74995C11.2068 9.74995 9.75251 11.2043 9.75251 12.9999C9.75251 13.2891 9.79963 13.5654 9.87275 13.8319L6.89262 16.8121C5.34081 15.4536 4.1611 13.9131 3.54688 12.9983ZM21.5714 11.5078L23.7852 9.28571C25.0258 10.7869 25.73 12.029 25.8031 12.1616C26.0689 12.636 26.0674 13.2165 25.8015 13.6908C25.6041 14.0404 20.8827 22.2857 13.5651 22.2857C12.7209 22.2857 11.9156 22.1671 11.1445 21.9736L13.9662 19.1414C18.1808 18.884 21.4299 14.6864 22.6114 12.9231C22.358 12.5439 22.0036 12.0492 21.5714 11.5078Z" fill="url(#paint0_linear)"/>
<defs>
<linearGradient id="paint0_linear" x1="6.74369" y1="19.5447" x2="26.9113" y2="21.394" gradientUnits="userSpaceOnUse">
<stop offset="0.00906761" stop-color="#00A8E4"/>
<stop offset="0.00916761" stop-color="#00A7E5"/>
<stop offset="0.99861" stop-color="#55D074"/>
</linearGradient>
</defs>
</svg>
