<svg width="31" height="31" viewBox="0 0 31 31" fill="none" xmlns="http://www.w3.org/2000/svg">
<path fill-rule="evenodd" clip-rule="evenodd" d="M15.5 0.484376C23.7929 0.484376 30.5156 7.2071 30.5156 15.5C30.5156 23.7929 23.7929 30.5156 15.5 30.5156C7.2071 30.5156 0.484374 23.7929 0.484374 15.5C0.484373 7.2071 7.2071 0.484377 15.5 0.484376ZM15.5 3.39062C8.81217 3.39062 3.39062 8.81218 3.39062 15.5C3.39062 22.1878 8.81218 27.6094 15.5 27.6094C22.1878 27.6094 27.6094 22.1878 27.6094 15.5C27.6094 8.81218 22.1878 3.39062 15.5 3.39062ZM18.0775 21.3713C18.645 20.8038 18.645 19.8837 18.0775 19.3162L14.2613 15.5L18.0775 11.6838C18.645 11.1163 18.645 10.1962 18.0775 9.62873C17.51 9.06125 16.59 9.06125 16.0225 9.62873L11.1787 14.4725C10.6113 15.04 10.6113 15.96 11.1787 16.5275L16.0225 21.3713C16.59 21.9387 17.51 21.9387 18.0775 21.3713Z" fill="#01A9E4"/>
</svg>
