<svg width="86" height="86" viewBox="0 0 86 86" fill="none" xmlns="http://www.w3.org/2000/svg">
<path d="M85.2561 81.6142L64.3522 60.7149C69.9596 54.2696 73.3546 45.8603 73.3546 36.6692C73.3546 16.4373 56.8947 0 36.6773 0C16.4409 0 0 16.4563 0 36.6692C0 56.882 16.46 73.3384 36.6773 73.3384C45.8705 73.3384 54.2817 69.9441 60.7283 64.3379L81.6323 85.2373C82.1282 85.733 82.7957 86 83.4442 86C84.0927 86 84.7603 85.7521 85.2561 85.2373C86.2479 84.2457 86.2479 82.6058 85.2561 81.6142ZM5.13063 36.6692C5.13063 19.2785 19.2828 5.14856 36.6582 5.14856C54.0528 5.14856 68.1859 19.2976 68.1859 36.6692C68.1859 54.0408 54.0528 68.2089 36.6582 68.2089C19.2828 68.2089 5.13063 54.0599 5.13063 36.6692Z" fill="#0BB65E"/>
<g clip-path="url(#clip0)">
<path d="M52.7744 25.1883H42.5061V23.3787C42.5061 22.7015 41.9544 22.1507 41.2773 22.1507H32.9804C32.3034 22.1507 31.7526 22.7015 31.7526 23.3787V25.1883H30.5151V26.6381H37.1289C37.5291 26.6381 37.8542 26.3131 37.8542 25.9127C37.8542 25.5124 37.5301 25.1873 37.1289 25.1873H33.2023V23.6005H41.0554V25.1883H40.0292C39.6289 25.1883 39.3039 25.5134 39.3039 25.9137C39.3039 26.314 39.6279 26.6391 40.0292 26.6391H44.6415V48.0645H30.5151C30.5498 48.541 30.5142 49.0378 30.5151 49.5143H52.7744C53.9338 49.5143 54.8761 48.5709 54.8761 47.4124V27.2912C54.8771 26.1317 53.9338 25.1883 52.7744 25.1883ZM47.5419 47.9622H46.0912V26.6391H47.5419V47.9622ZM53.4264 47.4124C53.4264 47.7722 53.1342 48.0645 52.7744 48.0645H48.9915V26.6391H52.7744C53.1342 26.6391 53.4264 26.9314 53.4264 27.2912V47.4124Z" fill="#0BB65E"/>
<path d="M19.4062 27.2912V47.4124C19.4062 48.5718 20.3496 49.5143 21.5079 49.5143H43.7672C43.7682 49.0378 43.7325 48.541 43.7672 48.0645H29.6418V26.6391H34.2541C34.6544 26.6391 34.9795 26.314 34.9795 25.9137C34.9795 25.5134 34.6554 25.1883 34.2541 25.1883H33.2279V23.6005H41.081V25.1883H37.1535C36.7532 25.1883 36.4282 25.5134 36.4282 25.9137C36.4282 26.314 36.7522 26.6391 37.1535 26.6391H43.7672V25.1883H42.5297V23.3787C42.5297 22.7015 41.979 22.1507 41.3019 22.1507H33.0051C32.328 22.1507 31.7772 22.7015 31.7772 23.3787V25.1883H21.5079C20.3496 25.1883 19.4062 26.1317 19.4062 27.2912ZM26.7405 26.6391H28.1911V47.9622H26.7405V26.6391ZM20.8559 27.2912C20.8559 26.9314 21.1482 26.6391 21.5079 26.6391H25.2908V48.0654H21.5079C21.1482 48.0654 20.8559 47.7731 20.8559 47.4133V27.2912Z" fill="#0BB65E"/>
<path d="M34.4619 42.6673H39.8189C40.7149 42.6673 41.4441 41.9381 41.4441 41.0419V38.9323C41.4441 38.0361 40.7149 37.3069 39.8189 37.3069H34.4619C33.5659 37.3069 32.8367 38.0361 32.8367 38.9323V41.0419C32.8367 41.9381 33.5659 42.6673 34.4619 42.6673ZM34.2864 38.9323C34.2864 38.8358 34.3655 38.7567 34.4619 38.7567H39.8189C39.9153 38.7567 39.9944 38.8358 39.9944 38.9323V41.0419C39.9944 41.1384 39.9153 41.2175 39.8189 41.2175H34.4619C34.3655 41.2175 34.2864 41.1384 34.2864 41.0419V38.9323Z" fill="#0BB65E"/>
</g>
<defs>
<clipPath id="clip0">
<rect width="35.4713" height="27.3636" fill="white" transform="translate(19.4023 22.1523)"/>
</clipPath>
</defs>
</svg>
