<svg width="86" height="86" viewBox="0 0 86 86" fill="none" xmlns="http://www.w3.org/2000/svg">
<path d="M85.2561 81.6142L64.3522 60.7149C69.9596 54.2696 73.3546 45.8603 73.3546 36.6692C73.3546 16.4373 56.8947 0 36.6773 0C16.4409 0 0 16.4563 0 36.6692C0 56.882 16.46 73.3384 36.6773 73.3384C45.8705 73.3384 54.2817 69.9441 60.7283 64.3379L81.6323 85.2373C82.1282 85.733 82.7957 86 83.4442 86C84.0927 86 84.7603 85.7521 85.2561 85.2373C86.2479 84.2457 86.2479 82.6058 85.2561 81.6142ZM5.13063 36.6692C5.13063 19.2785 19.2828 5.14856 36.6582 5.14856C54.0528 5.14856 68.1859 19.2976 68.1859 36.6692C68.1859 54.0408 54.0528 68.2089 36.6582 68.2089C19.2828 68.2089 5.13063 54.0599 5.13063 36.6692Z" fill="#0BB65E"/>
<g clip-path="url(#clip0)">
<path d="M54.6874 25.4552L37.5497 17.1823C37.3978 17.1093 37.2209 17.1093 37.069 17.1823L19.9313 25.4552C19.7403 25.5473 19.6187 25.7412 19.6187 25.9528V46.0453C19.6187 46.2576 19.7403 46.4507 19.9313 46.5429L37.069 54.8165C37.145 54.8534 37.2275 54.8718 37.3093 54.8718C37.3912 54.8718 37.4737 54.8534 37.5497 54.8165L54.6874 46.5436C54.8784 46.4515 55 46.2576 55 46.046V25.9528C55 25.7412 54.8784 25.5473 54.6874 25.4552ZM37.3093 18.294L53.1754 25.9535L48.576 28.174C48.5473 28.1519 48.5163 28.1312 48.4824 28.115L32.7239 20.5071L37.3093 18.294ZM31.4759 21.1322L47.3184 28.7807L44.0732 30.3473L28.2373 22.7017L31.4759 21.1322ZM44.6578 31.2931L47.6884 29.8298V35.6205L44.6578 37.0838V31.2931ZM37.8622 53.438V34.5737L41.6861 32.7277C41.9611 32.595 42.0761 32.2647 41.9434 31.9898C41.8107 31.7148 41.4804 31.5998 41.2047 31.7325L37.3086 33.6131L35.7752 32.8729C35.5002 32.7402 35.17 32.8552 35.0373 33.1302C34.9046 33.4052 35.0196 33.7355 35.2946 33.8682L36.7557 34.5737V53.438L20.7245 45.6988V26.8338L32.9326 32.7277C33.01 32.7653 33.0918 32.783 33.1729 32.783C33.3786 32.783 33.5761 32.668 33.6712 32.4704C33.8039 32.1954 33.6889 31.8652 33.414 31.7325L21.4433 25.9528L26.9354 23.3011L43.5439 31.3189C43.5461 31.3226 43.549 31.3255 43.5512 31.3285V37.9633C43.5512 38.1535 43.6493 38.3304 43.81 38.4314C43.8992 38.4875 44.0017 38.5162 44.1041 38.5162C44.186 38.5162 44.2685 38.4978 44.3445 38.4609L48.4809 36.4639C48.6719 36.3717 48.7935 36.1778 48.7935 35.9662V29.2953L53.8927 26.8338V45.6981L37.8622 53.438Z" fill="#0BB65E"/>
<path d="M25.2861 43.5547L22.7708 42.3405C22.4958 42.2078 22.1656 42.3228 22.0329 42.5978C21.9002 42.8728 22.0152 43.2031 22.2901 43.3365L24.8055 44.5507C24.8829 44.5883 24.9647 44.606 25.0451 44.606C25.2507 44.606 25.4483 44.491 25.5434 44.2934C25.6769 44.0177 25.5611 43.6874 25.2861 43.5547Z" fill="#0BB65E"/>
<path d="M27.602 42.0489L22.7763 39.7193C22.5013 39.5866 22.171 39.7016 22.0383 39.9766C21.9056 40.2516 22.0206 40.5818 22.2956 40.7153L27.1221 43.0448C27.1995 43.0824 27.2813 43.1001 27.3617 43.1001C27.5673 43.1001 27.7649 42.9851 27.86 42.7876C27.9927 42.5126 27.877 42.1816 27.602 42.0489Z" fill="#0BB65E"/>
</g>
<defs>
<clipPath id="clip0">
<rect width="35.3813" height="37.7448" fill="white" transform="translate(19.6172 17.1289)"/>
</clipPath>
</defs>
</svg>
