<svg width="100" height="100" viewBox="0 0 100 100" fill="none" xmlns="http://www.w3.org/2000/svg">
<circle cx="50" cy="50" r="50" fill="#C4C4C4"/>
<path fill-rule="evenodd" clip-rule="evenodd" d="M50 53C48.3431 53 47 51.6569 47 50C47 48.3431 48.3431 47 50 47C51.6569 47 53 48.3431 53 50C53 51.6569 51.6569 53 50 53ZM58 42C59.1 42 60 42.9 60 44V56C60 57.1 59.1 58 58 58H42C40.9 58 40 57.1 40 56V44C40 42.9 40.9 42 42 42H45.17L46.4 40.65C46.78 40.24 47.32 40 47.88 40H52.12C52.68 40 53.22 40.24 53.59 40.65L54.83 42H58ZM50 55C52.76 55 55 52.76 55 50C55 47.24 52.76 45 50 45C47.24 45 45 47.24 45 50C45 52.76 47.24 55 50 55Z" fill="#FFFEFE"/>
</svg>
