<svg width="8" height="20" viewBox="0 0 8 20" fill="none" xmlns="http://www.w3.org/2000/svg">
<path d="M3.08329 13.1471H5.06965V15H3.08329V13.1471ZM0.726353 7.78094C0.726353 7.23741 0.805412 6.74329 0.963529 6.29859C1.13153 5.85388 1.36871 5.47341 1.67506 5.15718C1.99129 4.84094 2.36682 4.59882 2.80165 4.43082C3.24635 4.25294 3.74047 4.164 4.284 4.164C4.73859 4.164 5.15859 4.23318 5.544 4.37153C5.93929 4.5 6.28024 4.69271 6.56682 4.94965C6.86329 5.19671 7.09553 5.508 7.26353 5.88353C7.43153 6.25906 7.51553 6.684 7.51553 7.15835C7.51553 7.50423 7.476 7.80565 7.39694 8.06259C7.32776 8.30965 7.22894 8.52706 7.10047 8.71482C6.98188 8.89271 6.84353 9.05576 6.68541 9.204C6.52729 9.34235 6.36918 9.48071 6.21106 9.61906C6.02329 9.77718 5.85035 9.93035 5.69224 10.0786C5.53412 10.2268 5.39576 10.3948 5.27718 10.5826C5.15859 10.7605 5.06471 10.9729 4.99553 11.22C4.93624 11.4671 4.90659 11.7685 4.90659 12.1242H3.30565C3.30565 11.6894 3.32541 11.3238 3.36494 11.0273C3.41435 10.7209 3.48847 10.4541 3.58729 10.2268C3.68612 9.99953 3.80471 9.80188 3.94306 9.63388C4.09129 9.456 4.26424 9.28306 4.46188 9.11506C4.62 8.97671 4.76824 8.84824 4.90659 8.72965C5.05482 8.61106 5.18329 8.48259 5.292 8.34423C5.41059 8.196 5.49953 8.03294 5.55882 7.85506C5.628 7.67718 5.66259 7.46471 5.66259 7.21765C5.66259 6.92118 5.60824 6.66918 5.49953 6.46165C5.40071 6.24423 5.27718 6.07129 5.12894 5.94282C4.98071 5.81435 4.82259 5.72047 4.65459 5.66118C4.48659 5.60188 4.33835 5.57223 4.20988 5.57223C3.59718 5.57223 3.14259 5.77482 2.84612 6.18C2.55953 6.57529 2.41624 7.10894 2.41624 7.78094H0.726353Z" fill="#FFFEFE"/>
</svg>
