<svg width="85" height="91" viewBox="0 0 85 91" fill="none" xmlns="http://www.w3.org/2000/svg">
<g clip-path="url(#clip0)">
<path d="M84.2491 20.008L43.0774 0.133256C42.7125 -0.0420789 42.2875 -0.0420789 41.9226 0.133256L0.750927 20.008C0.292224 20.2294 0 20.6952 0 21.2035V69.4736C0 69.9837 0.292224 70.4477 0.750927 70.6691L41.9226 90.5456C42.1051 90.6342 42.3034 90.6784 42.5 90.6784C42.6966 90.6784 42.8949 90.6342 43.0774 90.5456L84.2491 70.6708C84.7078 70.4494 85 69.9837 85 69.4754V21.2035C85 20.6952 84.7078 20.2294 84.2491 20.008ZM42.5 2.80401L80.6166 21.2053L69.567 26.5397C69.498 26.4865 69.4236 26.437 69.3421 26.398L31.484 8.12071L42.5 2.80401ZM28.4856 9.62257L66.5456 27.9973L58.7494 31.7607L20.7054 13.3931L28.4856 9.62257ZM60.1539 34.033L67.4347 30.5175V44.4291L60.1539 47.9446V34.033ZM43.8283 87.2337V41.9142L53.0148 37.4795C53.6754 37.1607 53.9516 36.3673 53.6328 35.7067C53.3141 35.0461 52.5206 34.7698 51.8583 35.0886L42.4982 39.6065L38.8144 37.8284C38.1538 37.5096 37.3604 37.7859 37.0416 38.4465C36.7228 39.1071 36.9991 39.9005 37.6597 40.2193L41.1699 41.9142V87.2337L2.65658 68.6412V23.3199L31.9852 37.4795C32.1712 37.5698 32.3678 37.6123 32.5626 37.6123C33.0567 37.6123 33.5314 37.336 33.7598 36.8614C34.0786 36.2008 33.8023 35.4074 33.1417 35.0886L4.38336 21.2035L17.5777 14.833L57.4778 34.095C57.4831 34.1039 57.4902 34.1109 57.4955 34.118V50.0575C57.4955 50.5145 57.7311 50.9395 58.1172 51.1821C58.3315 51.3167 58.5776 51.3858 58.8238 51.3858C59.0204 51.3858 59.2188 51.3415 59.4012 51.253L69.3386 46.4552C69.7973 46.2338 70.0895 45.768 70.0895 45.2597V29.2335L82.3399 23.3199V68.6394L43.8283 87.2337Z" fill="#3C4858"/>
<path d="M13.617 63.4886L7.57416 60.5716C6.91356 60.2528 6.12013 60.5291 5.80134 61.1897C5.48255 61.8503 5.75883 62.6438 6.41944 62.9643L12.4623 65.8813C12.6482 65.9716 12.8448 66.0141 13.0379 66.0141C13.532 66.0141 14.0066 65.7378 14.2351 65.2632C14.5557 64.6008 14.2776 63.8074 13.617 63.4886Z" fill="#3C4858"/>
<path d="M19.1786 59.8695L7.5853 54.273C6.9247 53.9542 6.13127 54.2305 5.81248 54.8911C5.49369 55.5517 5.76997 56.3452 6.43058 56.6657L18.0257 62.2622C18.2116 62.3526 18.4082 62.3951 18.6013 62.3951C19.0954 62.3951 19.57 62.1188 19.7985 61.6441C20.1173 60.9835 19.8392 60.1883 19.1786 59.8695Z" fill="#3C4858"/>
</g>
<defs>
<clipPath id="clip0">
<rect width="85" height="90.678" fill="white"/>
</clipPath>
</defs>
</svg>
