<svg width="26" height="20" viewBox="0 0 26 20" fill="none" xmlns="http://www.w3.org/2000/svg">
<path fill-rule="evenodd" clip-rule="evenodd" d="M13.0003 19.547C20.6492 19.547 25.5844 10.9605 25.7908 10.5965C26.0687 10.1025 26.0703 9.49795 25.7924 9.00394C25.5877 8.63832 20.6882 0.046875 13.0003 0.046875C5.27337 0.046875 0.408085 8.64157 0.204959 9.00719C-0.0696684 9.49957 -0.0680434 10.0992 0.208209 10.5916C0.41296 10.9556 5.31237 19.547 13.0003 19.547ZM13.0032 3.2969C17.6166 3.2969 21.1868 7.90381 22.4575 9.79695C21.1835 11.6917 17.6134 16.297 13.0032 16.297C8.38656 16.297 4.8164 11.6852 3.54727 9.79532C4.8099 7.90381 8.36543 3.2969 13.0032 3.2969ZM16.2501 9.79695C16.2501 11.5919 14.795 13.047 13.0001 13.047C11.2052 13.047 9.75007 11.5919 9.75007 9.79695C9.75007 8.00201 11.2052 6.54692 13.0001 6.54692C14.795 6.54692 16.2501 8.00201 16.2501 9.79695Z" fill="url(#paint0_linear)"/>
<defs>
<linearGradient id="paint0_linear" x1="6.74326" y1="14.7055" x2="26.7797" y2="17.155" gradientUnits="userSpaceOnUse">
<stop offset="0.00906761" stop-color="#00A8E4"/>
<stop offset="0.00916761" stop-color="#00A7E5"/>
<stop offset="0.99861" stop-color="#55D074"/>
</linearGradient>
</defs>
</svg>
