<svg width="15" height="15" viewBox="0 0 15 15" fill="none" xmlns="http://www.w3.org/2000/svg">
<g clip-path="url(#clip0)">
<path d="M13.7413 5.19616L9.53692 4.58519L7.65889 0.778065C7.60429 0.685355 7.52644 0.608504 7.43303 0.555111C7.33962 0.501718 7.23389 0.473633 7.1263 0.473633C7.01871 0.473633 6.91298 0.501718 6.81957 0.555111C6.72616 0.608504 6.6483 0.685355 6.5937 0.778065L4.71211 4.58519L0.507766 5.19616C0.398125 5.21198 0.295097 5.25817 0.210331 5.32949C0.125565 5.40081 0.0624413 5.49442 0.0280966 5.59974C-0.006248 5.70506 -0.0104439 5.81788 0.0159833 5.92546C0.0424105 6.03304 0.0984068 6.13108 0.177642 6.2085L3.22061 9.17369L2.50277 13.3614C2.48406 13.4706 2.49627 13.5828 2.53802 13.6855C2.57978 13.7881 2.64941 13.877 2.73904 13.9421C2.82867 14.0072 2.93473 14.0459 3.04522 14.0539C3.15572 14.0619 3.26624 14.0388 3.3643 13.9872L7.12452 12.0106L10.8847 13.9872C10.9828 14.0388 11.0933 14.0619 11.2038 14.0539C11.3143 14.0459 11.4204 14.0072 11.51 13.9421C11.5996 13.877 11.6693 13.7881 11.711 13.6855C11.7528 13.5828 11.765 13.4706 11.7463 13.3614L11.0284 9.17369L14.0714 6.2085C14.1506 6.13116 14.2066 6.03322 14.2331 5.92572C14.2596 5.81823 14.2555 5.70547 14.2213 5.60019C14.1871 5.4949 14.1241 5.40127 14.0395 5.32988C13.9549 5.25848 13.852 5.21217 13.7425 5.19616H13.7413Z" fill="#01A9E4"/>
</g>
<defs>
<clipPath id="clip0">
<rect width="14.25" height="14.25" fill="white" transform="translate(0 0.125)"/>
</clipPath>
</defs>
</svg>
