<svg width="15" height="16" viewBox="0 0 15 16" fill="none" xmlns="http://www.w3.org/2000/svg">
<g clip-path="url(#clip0)">
<path d="M13.9912 5.94616L9.78686 5.33519L7.90883 1.52806C7.85423 1.43536 7.77638 1.3585 7.68297 1.30511C7.58956 1.25172 7.48383 1.22363 7.37624 1.22363C7.26864 1.22363 7.16292 1.25172 7.06951 1.30511C6.9761 1.3585 6.89824 1.43536 6.84364 1.52806L4.96205 5.33519L0.757705 5.94616C0.648064 5.96198 0.545036 6.00817 0.46027 6.07949C0.375504 6.15081 0.31238 6.24442 0.278036 6.34974C0.243691 6.45506 0.239495 6.56788 0.265922 6.67546C0.292349 6.78304 0.348346 6.88108 0.42758 6.9585L3.47055 9.92369L2.75271 14.1114C2.734 14.2206 2.74621 14.3328 2.78796 14.4355C2.82972 14.5381 2.89934 14.627 2.98898 14.6921C3.07861 14.7572 3.18467 14.7959 3.29516 14.8039C3.40566 14.8119 3.51618 14.7888 3.61424 14.7372L7.37446 12.7606L11.1347 14.7372C11.2327 14.7888 11.3433 14.8119 11.4537 14.8039C11.5642 14.7959 11.6703 14.7572 11.7599 14.6921C11.8496 14.627 11.9192 14.5381 11.9609 14.4355C12.0027 14.3328 12.0149 14.2206 11.9962 14.1114L11.2784 9.92369L14.3213 6.9585C14.4005 6.88116 14.4566 6.78322 14.483 6.67572C14.5095 6.56823 14.5054 6.45547 14.4712 6.35019C14.437 6.2449 14.374 6.15127 14.2894 6.07988C14.2048 6.00848 14.1019 5.96217 13.9924 5.94616H13.9912Z" fill="white"/>
</g>
<defs>
<clipPath id="clip0">
<rect width="14.25" height="14.25" fill="white" transform="translate(0.25 0.875)"/>
</clipPath>
</defs>
</svg>
