<svg width="43" height="43" viewBox="0 0 43 43" fill="none" xmlns="http://www.w3.org/2000/svg">
<rect width="43" height="43" rx="6.71875" fill="#1F2D3D"/>
<path fill-rule="evenodd" clip-rule="evenodd" d="M29.5625 15.2292V27.7708C29.5625 28.246 29.3737 28.7017 29.0377 29.0377C28.7017 29.3737 28.246 29.5625 27.7708 29.5625H24.4115C24.2927 29.5625 24.1787 29.5153 24.0947 29.4313C24.0107 29.3473 23.9635 29.2334 23.9635 29.1146V23.7396H26.0598C26.163 23.7396 26.2631 23.7039 26.3431 23.6387C26.4231 23.5734 26.4781 23.4824 26.4987 23.3813L26.8212 21.7688C26.8278 21.7366 26.8272 21.7033 26.8195 21.6714C26.8118 21.6395 26.7972 21.6097 26.7767 21.584C26.7562 21.5584 26.7303 21.5375 26.7008 21.523C26.6714 21.5085 26.6391 21.5006 26.6063 21.5H23.9635V18.5885C23.9635 18.5291 23.9871 18.4722 24.0291 18.4302C24.0711 18.3882 24.1281 18.3646 24.1875 18.3646H26.4271C26.5459 18.3646 26.6598 18.3174 26.7438 18.2334C26.8278 18.1494 26.875 18.0355 26.875 17.9167V16.5729C26.875 16.4541 26.8278 16.3402 26.7438 16.2562C26.6598 16.1722 26.5459 16.125 26.4271 16.125H24.1875C23.4747 16.125 22.7912 16.4081 22.2872 16.9122C21.7831 17.4162 21.5 18.0997 21.5 18.8125V21.5H20.3981C20.2793 21.5 20.1654 21.5472 20.0814 21.6312C19.9974 21.7152 19.9502 21.8291 19.9502 21.9479V23.2917C19.9502 23.4105 19.9974 23.5244 20.0814 23.6084C20.1654 23.6924 20.2793 23.7396 20.3981 23.7396H21.5V29.1146C21.5 29.2334 21.4528 29.3473 21.3688 29.4313C21.2848 29.5153 21.1709 29.5625 21.0521 29.5625H15.2292C14.754 29.5625 14.2983 29.3737 13.9623 29.0377C13.6263 28.7017 13.4375 28.246 13.4375 27.7708V15.2292C13.4375 14.754 13.6263 14.2983 13.9623 13.9623C14.2983 13.6263 14.754 13.4375 15.2292 13.4375H27.7708C28.246 13.4375 28.7017 13.6263 29.0377 13.9623C29.3737 14.2983 29.5625 14.754 29.5625 15.2292Z" fill="white"/>
</svg>
