<svg width="43" height="43" viewBox="0 0 43 43" fill="none" xmlns="http://www.w3.org/2000/svg">
<rect width="43" height="43" rx="6.71875" fill="#1F2D3D"/>
<path fill-rule="evenodd" clip-rule="evenodd" d="M29.5625 21.3118C29.5625 25.0295 27.5827 29.5624 21.6165 29.5624C19.463 29.5767 17.392 28.7356 15.8584 27.2238C14.3248 25.7121 13.4541 23.6533 13.4375 21.4999C13.4541 19.3465 14.3248 17.2878 15.8584 15.776C17.392 14.2643 19.463 13.4231 21.6165 13.4374C23.4714 13.4443 25.2701 14.0754 26.7227 15.2291C26.7724 15.2697 26.8131 15.32 26.8424 15.3771C26.8717 15.4341 26.8889 15.4966 26.8929 15.5606C26.8932 15.6254 26.8806 15.6896 26.8561 15.7495C26.8315 15.8095 26.7953 15.864 26.7496 15.9099C26.1664 16.4431 25.6103 17.0052 25.0833 17.5941C25.0094 17.6755 24.9077 17.7261 24.7982 17.7361C24.6887 17.746 24.5795 17.7146 24.4921 17.6479C23.6645 17.0354 22.6545 16.7197 21.6254 16.752C20.3543 16.752 19.1353 17.257 18.2365 18.1558C17.3377 19.0546 16.8327 20.2736 16.8327 21.5447C16.8327 22.8158 17.3377 24.0349 18.2365 24.9337C19.1353 25.8325 20.3543 26.3374 21.6254 26.3374C24.3129 26.3374 25.4506 25.1908 26.0419 23.1572H21.9479C21.8291 23.1572 21.7152 23.11 21.6312 23.026C21.5472 22.942 21.5 22.8281 21.5 22.7093V20.3354C21.5 20.2166 21.5472 20.1026 21.6312 20.0186C21.7152 19.9346 21.8291 19.8874 21.9479 19.8874H29.1146C29.2142 19.8868 29.3105 19.9231 29.3849 19.9893C29.4593 20.0554 29.5066 20.1468 29.5177 20.2458C29.5509 20.6001 29.5659 20.9559 29.5625 21.3118Z" fill="white"/>
</svg>
