<svg width="43" height="43" viewBox="0 0 43 43" fill="none" xmlns="http://www.w3.org/2000/svg">
<rect width="43" height="43" rx="6.71875" fill="#1F2D3D"/>
<g clip-path="url(#clip0)">
<path d="M27.0693 17.2697C27.7817 17.2697 28.3593 16.6921 28.3593 15.9797C28.3593 15.2672 27.7817 14.6897 27.0693 14.6897C26.3568 14.6897 25.7793 15.2672 25.7793 15.9797C25.7793 16.6921 26.3568 17.2697 27.0693 17.2697Z" fill="white"/>
<path d="M21.5 26.875C18.5357 26.875 16.125 24.4643 16.125 21.5C16.125 18.5357 18.5357 16.125 21.5 16.125C24.4643 16.125 26.875 18.5357 26.875 21.5C26.875 24.4643 24.4643 26.875 21.5 26.875ZM21.5 18.8125C20.0178 18.8125 18.8125 20.0178 18.8125 21.5C18.8125 22.9822 20.0178 24.1875 21.5 24.1875C22.9822 24.1875 24.1875 22.9822 24.1875 21.5C24.1875 20.0178 22.9822 18.8125 21.5 18.8125Z" fill="white"/>
<path d="M26.875 32.25H16.125C13.3623 32.25 10.75 29.6378 10.75 26.875V16.125C10.75 13.3623 13.3623 10.75 16.125 10.75H26.875C29.6378 10.75 32.25 13.3623 32.25 16.125V26.875C32.25 29.6378 29.6378 32.25 26.875 32.25ZM16.125 13.4375C14.8686 13.4375 13.4375 14.8686 13.4375 16.125V26.875C13.4375 28.1556 14.8444 29.5625 16.125 29.5625H26.875C28.1314 29.5625 29.5625 28.1314 29.5625 26.875V16.125C29.5625 14.8686 28.1314 13.4375 26.875 13.4375H16.125Z" fill="white"/>
</g>
<defs>
<clipPath id="clip0">
<rect width="21.5" height="21.5" fill="white" transform="translate(10.75 10.75)"/>
</clipPath>
</defs>
</svg>
