<svg width="43" height="43" viewBox="0 0 43 43" fill="none" xmlns="http://www.w3.org/2000/svg">
<rect width="43" height="43" rx="6.71875" fill="#1F2D3D"/>
<path d="M17.4683 19.2604V28.2188C17.4683 28.3375 17.4211 28.4515 17.3371 28.5355C17.2531 28.6195 17.1392 28.6667 17.0204 28.6667H14.7808C14.662 28.6667 14.5481 28.6195 14.4641 28.5355C14.3801 28.4515 14.3329 28.3375 14.3329 28.2188V19.2604C14.3329 19.1416 14.3801 19.0277 14.4641 18.9437C14.5481 18.8597 14.662 18.8125 14.7808 18.8125H17.0204C17.1392 18.8125 17.2531 18.8597 17.3371 18.9437C17.4211 19.0277 17.4683 19.1416 17.4683 19.2604ZM29.5621 22.7631C29.5771 21.8217 29.2699 20.9034 28.6915 20.1605C28.1131 19.4175 27.2982 18.8945 26.3819 18.6781C25.7584 18.5439 25.1118 18.5608 24.4962 18.7276C23.8805 18.8943 23.3138 19.2061 22.8433 19.6367V19.2604C22.8433 19.1416 22.7961 19.0277 22.7121 18.9437C22.6281 18.8597 22.5142 18.8125 22.3954 18.8125H20.1558C20.037 18.8125 19.9231 18.8597 19.8391 18.9437C19.7551 19.0277 19.7079 19.1416 19.7079 19.2604V28.2188C19.7079 28.3375 19.7551 28.4515 19.8391 28.5355C19.9231 28.6195 20.037 28.6667 20.1558 28.6667H22.3954C22.5142 28.6667 22.6281 28.6195 22.7121 28.5355C22.7961 28.4515 22.8433 28.3375 22.8433 28.2188V23.1662C22.8326 22.7304 22.9758 22.3047 23.2477 21.9639C23.5197 21.6232 23.903 21.3891 24.3304 21.3029C24.5898 21.2581 24.856 21.2711 25.1099 21.3408C25.3637 21.4106 25.5991 21.5354 25.7993 21.7065C25.9994 21.8776 26.1594 22.0906 26.2678 22.3305C26.3763 22.5705 26.4305 22.8313 26.4266 23.0946V28.2188C26.4266 28.3375 26.4738 28.4515 26.5578 28.5355C26.6418 28.6195 26.7558 28.6667 26.8746 28.6667H29.1141C29.2329 28.6667 29.3469 28.6195 29.4309 28.5355C29.5149 28.4515 29.5621 28.3375 29.5621 28.2188V22.7631ZM15.6766 13.4375C15.3223 13.4375 14.9759 13.5426 14.6813 13.7395C14.3866 13.9363 14.157 14.2161 14.0214 14.5435C13.8858 14.8709 13.8503 15.2312 13.9194 15.5787C13.9885 15.9263 14.1592 16.2455 14.4097 16.4961C14.6603 16.7466 14.9796 16.9173 15.3271 16.9864C15.6747 17.0555 16.0349 17.0201 16.3623 16.8845C16.6897 16.7488 16.9695 16.5192 17.1664 16.2246C17.3632 15.9299 17.4683 15.5835 17.4683 15.2292C17.4683 14.754 17.2795 14.2983 16.9435 13.9623C16.6075 13.6263 16.1518 13.4375 15.6766 13.4375Z" fill="white"/>
</svg>
