<svg width="43" height="43" viewBox="0 0 43 43" fill="none" xmlns="http://www.w3.org/2000/svg">
<rect width="43" height="43" rx="6.71875" fill="#1F2D3D"/>
<g clip-path="url(#clip0)">
<path d="M32.5 15.0312C31.6938 15.4344 30.8875 15.5687 29.9469 15.7031C30.8875 15.1656 31.5594 14.3594 31.8281 13.2844C31.0219 13.8219 30.0812 14.0906 29.0063 14.3594C28.2 13.5531 26.9906 13.0156 25.7812 13.0156C23.4969 13.0156 21.4812 15.0313 21.4812 17.45C21.4812 17.8531 21.4812 18.1219 21.6156 18.3906C17.9875 18.2562 14.6281 16.5094 12.4781 13.8219C12.075 14.4937 11.9406 15.1656 11.9406 16.1063C11.9406 17.5844 12.7469 18.9281 13.9562 19.7344C13.2844 19.7344 12.6125 19.4656 11.9406 19.1969C11.9406 21.3469 13.4188 23.0938 15.4344 23.4969C15.0312 23.6313 14.6281 23.6312 14.225 23.6312C13.9563 23.6312 13.6875 23.6313 13.4188 23.4969C13.9562 25.2438 15.5687 26.5875 17.5844 26.5875C16.1063 27.7969 14.225 28.4688 12.075 28.4688H11C13.0156 29.6781 15.3 30.4844 17.7188 30.4844C25.7812 30.4844 30.2156 23.7656 30.2156 17.9875V17.45C31.1562 16.7781 31.9625 15.9719 32.5 15.0312Z" fill="white"/>
</g>
<defs>
<clipPath id="clip0">
<rect width="21.5" height="21.5" fill="white" transform="translate(11 11)"/>
</clipPath>
</defs>
</svg>
